<svg xmlns="http://www.w3.org/2000/svg" width="179" height="94" viewBox="0 0 179 94"><g><g><g><path fill="#f5d1c3" d="M35.526 69.685c1.805 5.633 3.813 11.577 8.34 15.373 3.818 3.202 8.878 4.395 13.744 5.442C69.267 93 81.295 95.235 93 93.214c16.369-2.807 30.706-13.962 38.92-28.381 8.212-14.42 10.581-31.776 8.203-48.208-14.123-1.444-28.46-.11-42.642 1.224l-48.89 4.6c-7.47.703-17.105-.008-24.224 2.29-3.856 1.261-2.088 3.615-1.021 6.94 1.25 3.897 2.498 7.796 3.747 11.694l8.433 26.312"/></g><g><path fill="#eda22d" d="M34.416 66.385c-5.318-1.319-9.71-4.871-12.942-7.818-8.2-7.48-14.418-16.457-17.98-25.96-2.977-7.94-5.747-17.704-.714-22.78 2.524-2.544 6.37-2.951 9.764-3.31.62-.066 1.224-.13 1.797-.204A750.937 750.937 0 0 1 31 4.303c.648-.07 65.808-5.596 67.6-4.02l.306.268.026.449c.313 15-.112 30.722-8.839 42.741C81.386 55.738 66.671 61 52.066 64.901 47.877 66 43.756 67 39.676 67c-1.761 0-3.514-.183-5.26-.615zm-11.698-9.189c3.072 2.804 7.227 6.172 12.142 7.39 5.367 1.33 10.976.06 16.729-1.474 14.275-3.813 28.64-8.93 37.01-20.46 8.248-11.363 8.775-26.391 8.5-40.89-6.573-.4-60.344 3.778-65.894 4.383a743.939 743.939 0 0 0-16.622 2.003 65.63 65.63 0 0 1-1.844.21c-3.088.327-6.587.698-8.648 2.775C-.749 16 3.591 27.595 5.224 32c3.46 9.184 9.51 17.914 17.494 25.196z"/></g><g><g><path fill="#eda22d" d="M120 30a.986.986 0 0 1-.616-.21c-.384-.344-.512-.973-.174-1.413 2.367-3.067 4.79-6.238 8.022-8.666 3.69-2.788 7.768-3.993 11.505-3.403 2.154.343 4.105 1.266 5.991 2.156.854.404 1.709.808 2.58 1.158 8.51 3.378 19 .765 24.94-6.267a.984.984 0 0 1 1.402-.114c.419.361.469.994.112 1.416-6.471 7.664-17.903 10.538-27.186 6.831a48.49 48.49 0 0 1-2.692-1.205c-1.884-.872-3.582-1.694-5.456-1.99-3.15-.494-6.794.603-10.003 3.027-2.994 2.263-5.358 5.33-7.645 8.294A.989.989 0 0 1 120 30"/></g><g><path fill="#eda22d" d="M125 40h-.11a1.027 1.027 0 0 1-.89-1.127c.36-2.94 2.33-5.656 5-6.873 2.727-1.284 6.079-1 8.566.584.888.58 1.709 1.32 2.504 2.039 1.708 1.545 3.187 2.883 4.856 2.433 1.15-.304 1.978-1.428 2.855-2.623C148.798 33 150 31.482 151.855 31c1.959-.402 3.702.56 5.242 1.408.44.24.903.483 1.318.687 2.744 1.288 6.355 1.217 9.907-.196 3.314-1.317 6.233-3.542 9.056-5.692.446-.337 1.078-.207 1.415.186.338.443.207 1.073-.19 1.41-2.93 2.197-5.963 4.543-9.532 5.963-4.071 1.62-8.26 1.674-11.513.147-.477-.222-.955-.483-1.434-.744-1.346-.737-2.62-1.431-3.818-1.169-1.17.274-2.01 1.412-2.899 2.625-.995 1.375-2.125 2.887-3.963 3.375-2.735.732-4.856-1.193-6.73-2.885-.77-.698-1.498-1.356-2.254-1.85-1.918-1.265-4.46-1.441-6.58-.476-2.079.966-3.598 3.056-3.88 5.324a.992.992 0 0 1-1 .887"/></g><g><path fill="#eda22d" d="M129 55h-.313c-.522-.214-.808-.763-.687-1.274 1.588-4.595 6.8-7.55 11.663-6.597 1.17.232 2.337.66 3.405 1.074 1.982.797 3.856 1.45 5.57.86 1.227-.429 2.17-1.475 3.166-2.586 1.107-1.23 2.251-2.477 3.934-3.114 1.886-.68 4.099-.363 6.762.839.5.214.911.442 1.365.67 1.378.694 2.678 1.35 4.075 1.577 1.596.27 3.582-.303 4.137-1.691a.993.993 0 0 1 1.288-.553c.513.194.766.795.567 1.257-.932 2.42-3.932 3.293-6.32 2.903-1.706-.28-3.208-1.039-4.612-1.77-.485-.218-.92-.44-1.36-.595-2.152-1.056-3.854-1.304-5.208-.818-1.21.439-2.143 1.478-3.13 2.576-1.121 1.242-2.302 2.533-3.995 3.13-2.412.84-4.721-.034-6.958-.888-1.067-.389-2.076-.768-3.081-1-3.85-.742-8.11 1.699-9.325 5.33A.996.996 0 0 1 129 55"/></g></g></g></g></svg>