<svg xmlns="http://www.w3.org/2000/svg" width="24" height="24" viewBox="0 0 24 24"><g><g><g><g><path fill="none" stroke="#b02c44" stroke-linecap="round" stroke-linejoin="round" stroke-miterlimit="20" stroke-width="1.5" d="M2 21h20"/></g><g><path fill="none" stroke="#b02c44" stroke-linecap="round" stroke-linejoin="round" stroke-miterlimit="20" stroke-width="1.5" d="M8.5 17h7"/></g><g><path fill="none" stroke="#b02c44" stroke-linecap="round" stroke-linejoin="round" stroke-miterlimit="20" stroke-width="1.5" d="M12 17v4"/></g><g><path fill="none" stroke="#b02c44" stroke-linecap="round" stroke-linejoin="round" stroke-miterlimit="20" stroke-width="1.5" d="M3 21v0-7 0a1 1 0 0 1 1-1h2v0"/></g><g><path fill="none" stroke="#b02c44" stroke-linecap="round" stroke-linejoin="round" stroke-miterlimit="20" stroke-width="1.5" d="M18 13v0h2v0a1 1 0 0 1 1 1v7"/></g><g><path fill="none" stroke="#b02c44" stroke-linecap="round" stroke-linejoin="round" stroke-miterlimit="20" stroke-width="1.5" d="M6 21v0-10.643 0c0-.357.19-.69.5-.868l5-2.857v0a1 1 0 0 1 .992 0l5 2.857v0c.31.179.508.511.508.868V21"/></g><g><path fill="none" stroke="#b02c44" stroke-linecap="round" stroke-linejoin="round" stroke-miterlimit="20" stroke-width="1.5" d="M12 9.51v0s-.05.022-.05.05v0c0 .028.05.05.05.05v0s.05-.022.05-.05v0c0-.028-.05-.05-.05-.05v0"/></g><g><path fill="none" stroke="#b02c44" stroke-linecap="round" stroke-linejoin="round" stroke-miterlimit="20" stroke-width="1.5" d="M15 17v4"/></g><g><path fill="none" stroke="#b02c44" stroke-linecap="round" stroke-linejoin="round" stroke-miterlimit="20" stroke-width="1.5" d="M9 21v-4"/></g><g><path fill="none" stroke="#b02c44" stroke-linecap="round" stroke-linejoin="round" stroke-miterlimit="20" stroke-width="1.5" d="M12 6.5v0-4 0a.5.5 0 0 1 .5-.5h3v0a.5.5 0 0 1 .5.5v1.418a.5.5 0 0 1-.5.5H12v0"/></g><g><path fill="none" stroke="#b02c44" stroke-linecap="round" stroke-linejoin="round" stroke-miterlimit="20" stroke-width="1.5" d="M15 13H9"/></g></g><g/></g></g></svg>