<svg xmlns="http://www.w3.org/2000/svg" width="24" height="24" viewBox="0 0 24 24"><g><g><g><g><path fill="none" stroke="#b02c44" stroke-linecap="round" stroke-linejoin="round" stroke-miterlimit="20" stroke-width="1.5" d="M3 7v0a4 4 0 0 1 4-4h10v0a4 4 0 0 1 4 4v10a4 4 0 0 1-4 4H7v0a4 4 0 0 1-4-4v0z"/></g><g><path fill="none" stroke="#b02c44" stroke-linecap="round" stroke-linejoin="round" stroke-miterlimit="20" stroke-width="1.5" d="M12 16v0l4.586-4.584v0a2 2 0 0 1 2.828 0L21 13v0"/></g><g><path fill="none" stroke="#b02c44" stroke-linecap="round" stroke-linejoin="round" stroke-miterlimit="20" stroke-width="1.5" d="M7.5 9a1.5 1.5 0 1 0 0-3 1.5 1.5 0 0 0 0 3z"/></g><g><path fill="none" stroke="#b02c44" stroke-linecap="round" stroke-linejoin="round" stroke-miterlimit="20" stroke-width="1.5" d="M3.35 18.646v0l4.23-4.23v0a2 2 0 0 1 2.828 0l6.417 6.417v0"/></g></g><g/></g></g></svg>