<svg xmlns="http://www.w3.org/2000/svg" width="22" height="22" viewBox="0 0 22 22"><g><g><g><path fill="none" stroke="#b02c44" stroke-linecap="round" stroke-linejoin="round" stroke-miterlimit="20" stroke-width="1.5" d="M14.893 11v0c-.28.358-.708.576-1.167.586v0A1.541 1.541 0 0 1 12.56 11"/></g><g><path fill="none" stroke="#b02c44" stroke-linecap="round" stroke-linejoin="round" stroke-miterlimit="20" stroke-width="1.5" d="M9.443 11v0a1.524 1.524 0 0 1-1.166.586v0A1.542 1.542 0 0 1 7.11 11"/></g><g><path fill="none" stroke="#b02c44" stroke-linecap="round" stroke-linejoin="round" stroke-miterlimit="20" stroke-width="1.5" d="M11 20.47v0c3.751-.002 7-2.47 8-6.137v0a2.24 2.24 0 0 0 2-2.44 2.25 2.25 0 0 0-2-1.953v0c-1.179-4.436-5.753-7.053-10.188-5.846C6 4.87 3.741 7.093 3 9.94v0a2.232 2.232 0 0 0-2 2.44 2.24 2.24 0 0 0 2 1.953v0C4 18 7.243 20.468 11 20.47z"/></g><g><path fill="none" stroke="#b02c44" stroke-linecap="round" stroke-linejoin="round" stroke-miterlimit="20" stroke-width="1.5" d="M13.224 15.143v0c-1.224 1.111-3.17 1.111-4.444 0"/></g><g><path fill="none" stroke="#b02c44" stroke-linecap="round" stroke-linejoin="round" stroke-miterlimit="20" stroke-width="1.5" d="M8.72 1.53v0C10 1.53 11 2.551 11 3.811"/></g><g><path fill="none" stroke="#b02c44" stroke-linecap="round" stroke-linejoin="round" stroke-miterlimit="20" stroke-width="1.5" d="M11 3.811v0c0-1.26 1-2.281 2.281-2.281"/></g></g></g></svg>