<svg xmlns="http://www.w3.org/2000/svg" width="20" height="21" viewBox="0 0 20 21"><g><g><path fill="none" stroke="#b02c44" stroke-linecap="round" stroke-linejoin="round" stroke-miterlimit="20" stroke-width="1.5" d="M10 16.08V20"/></g><g><path fill="none" stroke="#b02c44" stroke-linecap="round" stroke-linejoin="round" stroke-miterlimit="20" stroke-width="1.5" d="M1 20v0-1.471c0-1.43 1-2.662 2.412-2.942L6.258 15c.235 0 .48 0 .679.152v0a5.522 5.522 0 0 0 6.126 0v0c.2-.152.444-.152.68-.152l2.845.587A2.99 2.99 0 0 1 19 18.529V20"/></g><g><path fill="none" stroke="#b02c44" stroke-linecap="round" stroke-linejoin="round" stroke-miterlimit="20" stroke-width="1.5" d="M14 6.4V9c0 2.21-1.79 4-4 4v0c-2.21 0-4-1.79-4-4V6.4v0"/></g><g><path fill="none" stroke="#b02c44" stroke-linecap="round" stroke-linejoin="round" stroke-miterlimit="20" stroke-width="1.5" d="M12.098 12.41l.724 2.896"/></g><g><path fill="none" stroke="#b02c44" stroke-linecap="round" stroke-linejoin="round" stroke-miterlimit="20" stroke-width="1.5" d="M7.902 12.41l-.724 2.896"/></g><g><path fill="none" stroke="#b02c44" stroke-linecap="round" stroke-linejoin="round" stroke-miterlimit="20" stroke-width="1.5" d="M4.097 5.456L8.55 7.661a3.268 3.268 0 0 0 2.898 0l4.454-2.205a1.064 1.064 0 0 0 0-1.912L11.45 1.339a3.268 3.268 0 0 0-2.898 0L4.097 3.544a1.064 1.064 0 0 0 0 1.912z"/></g><g><path fill="none" stroke="#b02c44" stroke-linecap="round" stroke-linejoin="round" stroke-miterlimit="20" stroke-width="1.5" d="M16.5 4.53v2.6"/></g></g></svg>