<svg xmlns="http://www.w3.org/2000/svg" width="20" height="20" viewBox="0 0 20 20"><g><g><g><path fill="none" stroke="#eda22d" stroke-linecap="round" stroke-linejoin="round" stroke-miterlimit="20" stroke-width="1.5" d="M1 5v0a4 4 0 0 1 4-4h10v0a4 4 0 0 1 4 4v10a4 4 0 0 1-4 4H5v0a4 4 0 0 1-4-4v0z"/></g><g><path fill="none" stroke="#eda22d" stroke-linecap="round" stroke-linejoin="round" stroke-miterlimit="20" stroke-width="1.5" d="M10 14v0l4.586-4.584v0a2 2 0 0 1 2.828 0L19 11v0"/></g><g><path fill="none" stroke="#eda22d" stroke-linecap="round" stroke-linejoin="round" stroke-miterlimit="20" stroke-width="1.5" d="M5.5 7a1.5 1.5 0 1 0 0-3 1.5 1.5 0 0 0 0 3z"/></g><g><path fill="none" stroke="#eda22d" stroke-linecap="round" stroke-linejoin="round" stroke-miterlimit="20" stroke-width="1.5" d="M1.35 16.646v0l4.23-4.23v0a2 2 0 0 1 2.828 0l6.417 6.417v0"/></g></g></g></svg>