<svg xmlns="http://www.w3.org/2000/svg" width="24" height="24" viewBox="0 0 24 24"><g><g><g><g><path fill="none" stroke="#eda22d" stroke-linecap="round" stroke-linejoin="round" stroke-miterlimit="20" stroke-width="1.5" d="M15.893 12v0c-.28.358-.708.576-1.167.586v0A1.541 1.541 0 0 1 13.56 12"/></g><g><path fill="none" stroke="#eda22d" stroke-linecap="round" stroke-linejoin="round" stroke-miterlimit="20" stroke-width="1.5" d="M10.443 12v0a1.524 1.524 0 0 1-1.166.586v0A1.542 1.542 0 0 1 8.11 12"/></g><g><path fill="none" stroke="#eda22d" stroke-linecap="round" stroke-linejoin="round" stroke-miterlimit="20" stroke-width="1.5" d="M12 21.47v0c3.751-.002 7-2.47 8-6.137v0a2.24 2.24 0 0 0 2-2.44 2.25 2.25 0 0 0-2-1.953v0c-1.179-4.436-5.753-7.053-10.188-5.846C7 5.87 4.741 8.093 4 10.94v0a2.232 2.232 0 0 0-2 2.44 2.24 2.24 0 0 0 2 1.953v0C5 19 8.243 21.468 12 21.47z"/></g><g><path fill="none" stroke="#eda22d" stroke-linecap="round" stroke-linejoin="round" stroke-miterlimit="20" stroke-width="1.5" d="M14.224 16.143v0c-1.224 1.111-3.17 1.111-4.444 0"/></g><g><path fill="none" stroke="#eda22d" stroke-linecap="round" stroke-linejoin="round" stroke-miterlimit="20" stroke-width="1.5" d="M9.72 2.53v0C11 2.53 12 3.551 12 4.811"/></g><g><path fill="none" stroke="#eda22d" stroke-linecap="round" stroke-linejoin="round" stroke-miterlimit="20" stroke-width="1.5" d="M12 4.811v0c0-1.26 1-2.281 2.281-2.281"/></g></g><g/></g></g></svg>