<svg xmlns="http://www.w3.org/2000/svg" width="131" height="147" viewBox="0 0 131 147"><g><g><path fill="#f5d1c3" d="M128.9 128.414c-1.693-2.641-5.675-3.414-8.43-4.414-6.47-2.463-13.062-4.697-19.597-7C89 112.868 78 110.167 65.35 111.234 42.541 113.157 21.1 122 2.919 135.698c-.789.021-1.324.531-1.545 1.177-.243.19-.492.372-.734.56-1.49 1.178-.116 3.066 1.438 3.045.065.464.337.892.922 1.149 23.92 10.153 53 3.233 77.906.835 13.496-1.299 27.524-1.863 40.857-4.365 4.699-.881 10.751-4.043 7.136-9.685"/></g><g><path fill="#d84535" d="M83.222 128s.07.482 0 .668c-.069.185-.301 1.02-.222 1.332.135.243 10 3.767 10.518 3.915.482.149 1.164.085 1.145-.185-.019-.297.427-2.73.337-3.004a23.346 23.346 0 0 1-.358-.983L83.222 128"/></g><g><path fill="#e15f47" d="M95 129.732v.877c-.076.316-.207 1.044-.301 1.286s-.188.392-.282.578c-.093.186-.524.672-.6.527-.074-.229-4.274-1.324-5.173-1.635-.9-.31-5.398-1.745-5.529-2.156-.115-.41.038-.577.075-.857s-.506-1.026.094-1.352c.599-.42.843-.55 1.03-1 .188-.482.076-.725.544-.856.47-.144.142-.316 1.087.187.994.503 8.975 3.971 9.055 4.065v.336"/></g><g><path fill="#d84535" d="M85.192 125c1.495.823 2.987 1.64 4.522 2.327.76.34 1.52.673 2.286 1.084.321.185.665.393 1 .589.173.17.348.315.528.451.16.122.34.228.472.411 0 .073 0 .138-.095.138-.184-.055-.344-.209-.51-.318-.19-.126-.395-.23-.587-.34-.373-.21-.745-.42-1.12-.621-.688-.392-1.474-.721-2.22-1.065-1.468-.656-3.076-1.18-4.41-2.33-.13-.112-.058-.393.134-.326"/></g><g><path fill="#d84535" d="M84.333 127c.412.137.81.347 1.202.521.4.179.792.373 1.182.57.763.385 1.554.702 2.362.992.393.142.809.224 1.21.341.421.122.842.24 1.259.37.452.13.83.276 1.24.421.372.132.824.259 1.142.49.141.104.07.295-.113.295-.4 0-.817-.172-1.217-.292a21.087 21.087 0 0 1-1.237-.428c-.363-.16-.806-.332-1.207-.508-.4-.176-.782-.389-1.156-.547a46.84 46.84 0 0 0-2.498-.878c-.8-.249-1.666-.51-2.393-.923-.249-.14-.028-.49.224-.424"/></g><g><path fill="#d84535" d="M84.411 128c.175.14.296.26.454.386.135.14.435.235.631.32.397.173.795.294 1.184.534.412.203.789.472 1.2.672.39.191.783.377 1.176.564.788.375 1.556.78 2.361 1.101.407.16.829.223 1.24.362.412.139.884.27 1.243.555.207.164.1.506-.158.506-.413 0-.85-.231-1.234-.401-.396-.178-.761-.44-1.16-.599-.813-.368-1.64-.66-2.45-1-.396-.19-.79-.372-1.183-.557-.396-.186-.803-.301-1.195-.5-.378-.193-.75-.406-1.113-.632a5.915 5.915 0 0 0-.658-.37c-.176-.092-.371-.105-.557-.197-.379-.19-.14-.917.22-.744"/></g><g><path fill="#82b341" d="M100.21 125.146s-1.329.854-1.21 1.919c.137 1.03 1.867 2.832 2.52 2.935.653.081 1.66-.405 2.33-.836.67-.43 3.273-2.078 4.71-2.961 1.44-.883 4.563-1.578 5.23-2.756.666-1.18-.457-2.447-.51-3.184-.052-.767-.81-1.263-.81-1.263l-9.767 6.153-2.493-.007"/></g><g><path fill="#95c53e" d="M112.706 123.365s-5.929 2.635-7.182 3.39c-1.254.755-1.978 1.186-2.707 1.538-.73.352-1.037.656-1.453.707-.415 0-.49-.262-.49-.262l-1.07-1.1s-1.006-.77-.804-1.473c.274-.701.434-1.165 1.3-1.577.866-.394 4.099-1.987 6.065-2.902 1.967-.916 3.579-1.686 4.391-2.06.813-.39 1.244-.894 1.46-.458.258.435.3.62.293 1.238-.008.594-.003.942.17 1.273.173.321.384 1.053.321 1.213l-.294.473"/></g><g><path fill="#82b341" d="M103.894 125.877c.828-.505 1.711-.877 2.573-1.287.863-.427 1.731-.834 2.604-1.238.487-.226.929-.48 1.423-.757.404-.242.778-.481 1.23-.595.276-.057.38.299.145.458-.374.254-.774.364-1.19.49-.504.154-1 .332-1.485.554-.926.421-1.85.88-2.743 1.377-.836.466-1.61 1.051-2.451 1.568-.394.273-.819.553-1.256.807-.409.241-.83.55-1.272.746-.472.144-.67-.45-.206-.673.454-.22.902-.327 1.341-.639.393-.264.854-.547 1.287-.811"/></g><g><path fill="#82b341" d="M110.29 121.804c.43-.247.871-.603 1.327-.804.383-.104.534.277.237.499-.378.284-.854.501-1.298.673-.453.234-.902.475-1.352.718-.92.497-1.854.975-2.755 1.51-.84.5-1.713.933-2.582 1.372-.867.451-1.8.94-2.742 1.228-.125 0-.125-.141-.067-.214.79-.589 1.712-1.027 2.581-1.487.882-.466 1.758-.944 2.659-1.364.898-.42 1.773-.935 2.648-1.382.45-.246.9-.493 1.345-.75"/></g><g><path fill="#82b341" d="M108.778 120.436c.966-.526 1.991-1.123 3.024-1.436.198-.052.269.233.105.352C111 120 110 120.45 109 120.946c-1 .516-2 1.054-3 1.598-1 .573-2 1.177-3 1.78-.422.283-.884.568-1.343.858-.251.157-.502.315-.752.476-.225.144-.399.29-.652.342-.253 0-.324-.211-.187-.399.164-.224.42-.34.652-.486.282-.115.502-.315.754-.472.462-.287.925-.57 1.39-.85.973-.586 1.962-1.142 2.95-1.696.988-.556 1.972-1.097 2.966-1.66"/></g><g><path fill="#6c4a8c" d="M61.454 124l-.198.638s-.256 2.287.002 2.648c.227.361.313.8.156.948-.156.148-.7.914-.222 1.373.478.459 3.352.504 4.961.198 1.61-.306 4.752-.42 5.49-.33.739.09 2.485.28 3.16-.003.677-.285 1.431-.586 1.557-.956.127-.37.483-1.465.483-1.465l.157-.548s-2.68-1.584-3.776-1.414c-1.097.172-11.77-1.089-11.77-1.089"/></g><g><path fill="#8b689f" d="M75 128.936c-1.268-.146-4.92-.388-6.568-.405-1.646-.015-4.533.469-5.13.469-.597 0-1.448 0-1.18-.555.266-.526.878-.209.45-1.288-.434-1.077-.572-.863-.515-1.532.04-.625.03-.95.07-1.18.039-.227-.63-.377.763-.445 1.393-.05 5.323-.273 6.11-.435.839-.164 6.682-.676 7.748-.565 1.066.154 1.387.373 1.252.693-.232.307-.365.473-.499.846s.405 1.588-.172 2.396c-.577.808-.384 1.21-1.165 1.556-.78.345-1.164.445-1.164.445"/></g><g><path fill="#6c4a8c" d="M72 128.156c.822.053 1.642.14 2.45.102.747-.035 1.55-.258 2.267-.127.283.057.428.567.03.678-.825.191-1.625.013-2.413-.109-.404-.062-.807-.123-1.212-.18-.405-.059-.742-.17-1.122-.284v-.08"/></g><g><path fill="#6c4a8c" d="M65.59 128.147c.594.023 1.195 0 1.791-.001.287 0 .566.013.841.074.345.076.61.084.972.07.605-.023 1.198.034 1.806.016v.022c-.578.037-1.157.148-1.733.168-.363.013-.671.022-1.028.124-.239.079-.55.115-.829.133-.574.035-1.146.03-1.719.062-.461.026-1.275.28-1.606-.08a.384.384 0 0 1 .04-.462c.377-.343 1.033-.141 1.465-.126"/></g><g><path fill="#6c4a8c" d="M63.12 126.586c2.208-.065 4.42-.155 6.63-.252 1.09-.05 2.183-.2 3.25-.267.57-.067 1.117-.067 1.661-.067.392 0 1.108-.097 1.339.327 0 .099 0 .187-.054.286-.274.387-.946.387-1.36.387H73c-1.133 0-2.204-.141-3.29-.146a442.209 442.209 0 0 0-6.612.009c-.098 0-.098-.273.022-.277"/></g><g><path fill="#6c4a8c" d="M64.852 125.311c.558.043 1.148.107 1.673.1a46.466 46.466 0 0 0 3.574-.19c1.142-.1 2.28-.142 3.418-.221h3.388c.148 0 .095.205-.02.233-2.233.472-4.615.627-6.885.593a111.105 111.105 0 0 0-3.351-.012c-.649.01-1.187.075-1.788.125-.543.061-1.164.124-1.66-.028-.285-.085-.27-.474.062-.562.524-.141 1.071-.076 1.59-.038"/></g><g><path fill="#506da7" d="M51 130.099l.281-2.099 30.52 4.815c.199.026.253.185.199.387-.391.593-1.329 1.798-3.228 1.798-2.54 0-4.772-1.692-5.107-1.742-.316-.05-1.838.03-2.763-.114C70 133 51 130.099 51 130.099"/></g><g><path fill="#5c81b4" d="M82 132.45s-1 1.422-2.896 1.55c-1.938.114-3.854-1.37-4.104-2.057-.196-.687 1-1.126 2.204-.869 1.207.26 4.74 1.032 4.796 1.094v.281"/></g><g><path fill="#38629f" d="M74.907 132.304s-.618.77-3.573.696C68.38 132.914 58 131.338 58 131.338l.206-1.338L75 132.146l-.093.158"/></g><g><path fill="#1b5494" d="M59 129.766L52 129v.235l7 .765v-.234"/></g><g><path fill="#1b5494" d="M58 129.765L51 129v.235l7 .765v-.235"/></g><g><path fill="#1b5494" d="M58 130.765L51 130v.235l7 .765v-.235"/></g><g><path fill="#1b5494" d="M58 130.765L51 130v.235l7 .765v-.235"/></g><g><path fill="#e3d2c6" d="M45.325 134L60 125.212 25.675 121 11 129.788 45.325 134"/></g><g><path fill="#c9bcb0" d="M45.643 133L59 125l-32.643-4L13 129l32.643 4"/></g><g><path fill="#eee4de" d="M17.534 129L31 121.065l-.534-.065L17 128.935l.534.065"/></g><g><path fill="#eee4de" d="M21.535 130L35 122.064l-.534-.064L21 129.936l.535.064"/></g><g><path fill="#eee4de" d="M26.535 131L40 123.065l-.534-.065L26 130.935l.535.065"/></g><g><path fill="#eee4de" d="M31.534 131L45 123.064l-.534-.064L31 130.935l.534.065"/></g><g><path fill="#eee4de" d="M35.534 132L49 124.065l-.535-.065L35 131.936l.534.064"/></g><g><path fill="#eee4de" d="M40.534 133L54 125.065l-.535-.065L40 132.935l.534.065"/></g><g><path fill="#debb2c" d="M16 128.876s.468-.041.591-.002c.123.04.723.126 1.033.126.31-.08 9.376-5.853 9.761-6.145.43-.293.794-.68.52-.667-.274.011-2.141-.241-2.468-.188-.326.073-2.056.48-2.056.48L16 128.876"/></g><g><path fill="#f7dd3b" d="M24.739 122h.764c.255 0 .815.104.974.158.158.053.235.108.345.162.11.054.29.304.085.348-.205.045-3.528 2.5-4.306 3.025-.778.526-4.601 3.157-4.998 3.234-.431.073-.483-.02-.706-.04-.222-.022-1.179.298-1.166-.051.014-.349.037-.49-.264-.598-.3-.108-.575-.042-.467-.315.193-.272-.18-.053.818-.635 1-.582 7.55-4.97 7.665-5.004a66.687 66.687 0 0 1 1.256-.284"/></g><g><path fill="#debb2c" d="M16.065 127.873c1.493-.997 2.992-1.992 4.418-3.015a79.76 79.76 0 0 1 2.156-1.508c.361-.23.703-.459 1.072-.675.207-.123.42-.241.629-.36.186-.107.371-.226.579-.315.081 0 .081 0 .081.062-.176.123-.386.23-.567.34-.208.129-.433.26-.603.392-.378.206-.757.497-1.13.747-.7.459-1.424.983-2.117 1.459-1.409 1-2.71 2.07-4.364 3-.163 0-.307 0-.154-.127"/></g><g><path fill="#debb2c" d="M16.09 128.801c.343-.246.755-.486 1.13-.722.384-.24.78-.474 1.17-.708.772-.459 1.5-.934 2.21-1.371.347-.283.655-.533.984-.774.344-.226.686-.504 1.036-.754.38-.25.71-.472 1.07-.745.31-.222.693-.494 1.079-.727.17 0 .292 0 .231.109-.257.239-.657.505-1 .73-.325.249-.683.499-1.05.742-.37.244-.75.484-1.13.724-.382.24-.82.47-1.156.695-.74.508-1.464 1-2.164 1.498-.671.502-1.39 1-2.167 1.436-.264.15-.453.066-.243-.133"/></g><g><path fill="#debb2c" d="M17.14 128.755c.171-.106.325-.178.505-.273.2-.106.414-.262.586-.38.346-.236.692-.475 1.05-.71.377-.247.782-.474 1.157-.72.357-.235.712-.47 1.067-.672.712-.507 1.436-1 2.12-1.45.375-.244.625-.498.955-.744.331-.247.692-.53 1.098-.745.235-.125.407-.061.322.093-.284.246-.688.509-1 .739-.376.239-.77.457-1.12.697-.71.487-1.385.984-2.096 1.469-.348.238-.7.475-1.055.71-.356.231-.667.482-1.032.718-.35.227-.697.45-1.08.668-.217.129-.426.262-.617.394-.184.107-.302.224-.473.335-.35.227-.742.116-.388-.13"/></g><g><path fill="#d84535" d="M26 129.876s.468-.042.59-.002c.123.04.724.126 1.034.126.31-.08 9.376-5.854 9.76-6.146.431-.292.795-.679.521-.666-.125.005-.581-.045-1.072-.094-.585-.094-1.218-.094-1.395-.094-.327.074-2.057.48-2.057.48L26 129.876"/></g><g><path fill="#e15f47" d="M34.74 123h.763c.255 0 .816.104.974.157.158.055.235.109.345.162.11.055.29.305.084.348-.205.045-3.527 2.5-4.305 3.026-.778.525-4.601 3.156-4.998 3.234-.431.073-.483-.02-.706-.04-.075-.008-.233.024-.41.056-.347.057-.764.124-.755-.107.012-.349.036-.49-.264-.598-.301-.108-.576-.042-.468-.315.193-.273-.181-.054.819-.635.998-.582 7.55-4.97 7.664-5.005.114-.034 1.257-.283 1.257-.283"/></g><g><path fill="#d84535" d="M26.065 128.873c1.493-.996 2.992-1.991 4.418-3.015a84.028 84.028 0 0 1 2.155-1.508c.362-.23.704-.458 1.073-.676.206-.122.42-.238.629-.36.186-.106.371-.225.578-.314.082 0 .082 0 .082.063-.176.122-.387.23-.567.34-.207.128-.433.26-.603.391-.378.206-.757.498-1.131.748-.699.458-1.423.982-2.117 1.458-1.408 1-2.71 2.07-4.363 3-.163 0-.307 0-.154-.127"/></g><g><path fill="#d84535" d="M26.09 128.8c.343-.246.755-.486 1.13-.72.384-.24.78-.476 1.17-.71.772-.458 1.499-.933 2.21-1.37.347-.283.654-.533.984-.774.344-.226.686-.505 1.037-.755.379-.25.71-.471 1.07-.743a16.6 16.6 0 0 1 1.078-.728c.17 0 .292 0 .231.11-.257.237-.657.504-1 .729-.325.249-.684.498-1.05.741-.37.245-.75.485-1.13.724-.382.241-.82.47-1.156.696-.74.508-1.464 1-2.165 1.498-.67.502-1.39 1-2.166 1.436-.264.15-.453.066-.243-.134"/></g><g><path fill="#d84535" d="M27.14 128.755c.171-.105.325-.179.505-.273.2-.106.414-.26.586-.38.346-.237.692-.476 1.05-.71.377-.247.782-.473 1.157-.72.357-.234.712-.47 1.067-.672.712-.506 1.436-1 2.12-1.451.375-.244.624-.496.955-.743.331-.247.69-.53 1.098-.745.235-.125.407-.061.322.093-.284.246-.688.51-1 .74-.377.237-.77.456-1.12.696-.71.488-1.385.984-2.096 1.47-.348.237-.7.474-1.055.71-.356.23-.667.481-1.031.717-.35.227-.698.45-1.08.668-.218.13-.427.262-.618.395-.184.105-.303.223-.473.334-.35.227-.742.116-.388-.13"/></g><g><path fill="#82b341" d="M31 130.875s.468-.04.591-.002c.123.04.723.127 1.033.127.31-.08 9.376-5.853 9.761-6.145.43-.292.794-.68.52-.667-.126.005-.582-.044-1.072-.094-.585-.094-1.218-.094-1.396-.094-.326.074-2.056.48-2.056.48L31 130.875"/></g><g><path fill="#95c53e" d="M39.739 124h.764c.255 0 .815.104.974.157.158.055.235.109.345.163.11.054.29.304.085.348-.205.044-3.528 2.498-4.306 3.025-.778.525-4.601 3.156-4.998 3.234-.431.073-.483-.02-.706-.04-.075-.008-.233.023-.41.055-.348.058-.765.125-.756-.105.014-.35.037-.492-.264-.6-.3-.107-.575-.041-.467-.314.193-.273-.18-.053.818-.635 1-.582 7.55-4.97 7.665-5.005.114-.034 1.256-.283 1.256-.283"/></g><g><path fill="#82b341" d="M30.066 129.873c1.492-.996 2.991-1.991 4.417-3.015a79.873 79.873 0 0 1 2.156-1.507c.361-.23.703-.46 1.072-.677.207-.121.42-.239.629-.36.186-.106.371-.225.579-.314.081 0 .081 0 .081.064-.176.121-.386.23-.567.34-.208.127-.433.26-.603.39-.378.206-.757.498-1.131.748-.699.458-1.423.982-2.116 1.458-1.409 1-2.71 2.07-4.364 3-.163 0-.308 0-.153-.127"/></g><g><path fill="#82b341" d="M31.09 129.801c.343-.247.755-.487 1.13-.722.384-.24.78-.475 1.17-.71.772-.457 1.5-.932 2.21-1.369.347-.283.655-.533.984-.774.344-.226.686-.504 1.036-.755.38-.25.71-.471 1.07-.743.31-.224.693-.495 1.079-.728.17 0 .292 0 .231.11-.257.237-.657.503-1 .728-.325.25-.683.5-1.05.742-.37.245-.75.485-1.13.724-.382.24-.82.47-1.156.696-.74.508-1.464 1-2.164 1.498-.671.502-1.39 1-2.167 1.436-.264.15-.453.066-.243-.133"/></g><g><path fill="#82b341" d="M32.14 129.755c.171-.105.325-.177.505-.273.2-.106.414-.26.586-.379.346-.238.692-.477 1.05-.71.377-.247.782-.474 1.157-.72.357-.235.712-.471 1.067-.673.712-.506 1.436-1 2.12-1.451.375-.244.625-.496.955-.742.331-.248.692-.531 1.098-.746.235-.125.407-.061.322.093-.284.247-.688.51-1 .74-.376.237-.77.457-1.12.696-.71.488-1.385.984-2.096 1.47-.348.237-.7.474-1.055.71-.356.23-.667.481-1.032.717-.35.227-.697.45-1.08.668-.217.13-.427.262-.617.395-.184.105-.302.223-.473.334-.35.227-.742.116-.388-.129"/></g><g><path fill="#1e9ca8" d="M35 130.825s.464-.029.576.017c.111.045.669.158.983.158.314-.067 10.243-5.766 10.72-6.055.476-.29.907-.68.638-.675-.125.001-.57-.067-1.046-.135a13.643 13.643 0 0 0-1.32-.135c-.331.062-2.095.428-2.095.428L35 130.825"/></g><g><path fill="#44bbca" d="M44.854 124h.761c.25.055.794.152.941.213.147.062.214.12.312.18.132.061.23.328.018.369-.213.038-3.992 2.487-4.886 3.01-.856.523-5.131 3.14-5.576 3.228-.424 0-.477-.06-.694-.09-.073-.01-.233.018-.411.09-.319 0-.794.062-.741-.181.08-.365.131-.511-.148-.634-.278-.123-.564-.063-.362-.344.202-.28-.212-.063.932-.636 1.068-.573 8.432-4.93 8.551-4.962.12-.033 1.303-.243 1.303-.243"/></g><g><path fill="#1e9ca8" d="M35.08 129.887c1.66-.83 3.327-1.657 4.92-2.513.798-.374 1.595-.846 2.417-1.258.382-.193.78-.382 1.185-.562.227-.1.46-.198.69-.296.203-.088.41-.188.628-.258.08 0 .08 0 .08.056-.205.102-.433.19-.631.282-.23.106-.447.217-.67.325-.42.207-.84.413-1.257.622a95.37 95.37 0 0 0-2.365 1.236c-1.58.844-3.077 1.717-4.86 2.479-.217 0-.308 0-.137-.113"/></g><g><path fill="#1e9ca8" d="M35.113 129.79c.385-.248.887-.486 1.253-.72.424-.238.856-.472 1.29-.704.849-.455 1.655-.929 2.45-1.366.387-.283.737-.534 1.108-.776.388-.224.786-.507 1.166-.758.391-.25.794-.466 1.197-.744.364-.223.778-.495 1.194-.722.229 0 .295 0 .229.117-.31.242-.757.509-1.112.734-.393.249-.794.5-1.203.742-.411.244-.83.483-1.251.721-.434.24-.865.467-1.278.686-.823.513-1.63 1-2.416 1.504a23.641 23.641 0 0 1-2.41 1.434c-.33.148-.453.003-.217-.148"/></g><g><path fill="#1e9ca8" d="M36.168 130.74c.19-.103.356-.175.552-.268.217-.104.458-.26.65-.378.388-.237.774-.477 1.171-.71.459-.246.864-.47 1.28-.716.398-.233.793-.469 1.179-.668.802-.509 1.605-1 2.372-1.45.386-.245.71-.55 1.084-.749.373-.247.782-.532 1.226-.744.255-.123.41-.057.258.107-.284.251-.732.513-1.11.743-.392.239-.83.454-1.213.694-.793.487-1.554.985-2.348 1.47-.39.238-.783.474-1.177.71-.396.219-.75.483-1.155.718-.389.226-.788.447-1.193.664-.24.127-.472.259-.744.392-.142.105-.282.224-.472.335-.389.227-.75.11-.36-.15"/></g><g><path fill="#1c76a0" d="M51.541 125s.229.115.459.11c.157-.007.942.007 1 .109.057.102-8.652 5.909-9.111 6.199-.46.289-1.218.634-1.385.582-.167-.066-2.186-.223-2.255-.328-.07-.105-.249-.672-.249-.672l11.541-6"/></g><g><path fill="#218bbf" d="M40.226 130.768s.302.115.533.15c.241.082.808.082 1.051.082.243 0 .43 0 .639-.052.209-.018.944-.163.907-.235-.037-.073 3.58-2.493 4.31-3.024.73-.531 4.447-3.17 4.334-3.31-.118-.14-.393-.079-.601-.107-.21-.028-.108-.445-.947-.19s-1.167.363-1.642.382a3.33 3.33 0 0 1-.307-.001c-.224-.01-.352-.019-.759.147-.557.227-.288-.005-.996.61-.748.614-6.748 5.06-6.748 5.107l.226.44"/></g><g><path fill="#1c76a0" d="M47.689 125.09c-1.145 1.002-2.283 2.005-3.532 3.012-.62.5-1.234.999-1.803 1.495-.265.231-.519.465-.738.692-.123.128-.233.253-.35.38-.105.113-.266.234-.266.331h.15c.165-.142.254-.26.37-.374.136-.131.29-.264.48-.397.24-.229.521-.502.81-.753.559-.476 1.19-.979 1.77-1.476 1.232-1 2.6-2 3.42-2.94.064-.06-.193-.06-.311.03"/></g><g><path fill="#1c76a0" d="M48.476 125.142c-.34.242-.615.494-.904.734-.296.246-.572.49-.847.733-.535.478-1.143.958-1.784 1.442-.312.235-.683.473-1.02.708-.352.241-.705.493-1.049.74-.342.246-.673.501-1 .738-.295.223-.677.487-.872.699-.062.064.15.064.317-.009.404-.213.75-.48 1.056-.703.34-.224.627-.494.99-.738.317-.246.637-.486.912-.736.298-.246.554-.488.87-.75.63-.477 1.272-1 1.96-1.46.658-.472 1.378-.983 1.895-1.445.129-.159-.315-.095-.524.047"/></g><g><path fill="#1c76a0" d="M50.35 125.18c-.124.107-.185.189-.282.292-.068.115-.32.267-.475.385-.313.237-.593.475-.925.712-.313.25-.558.491-.87.74-.299.237-.601.474-.903.691-.605.498-1.175 1-1.827 1.447-.329.241-.723.476-1.068.717-.343.24-.753.513-1 .746-.098.09.222.09.442-.011.41-.224.74-.49 1.04-.72.311-.238.518-.472.862-.71A60.355 60.355 0 0 0 47.309 128c.312-.228.617-.466.92-.703.306-.238.658-.474.953-.713.284-.23.552-.46.818-.688.136-.134.298-.27.463-.406.13-.108.322-.215.462-.327.286-.232-.318-.163-.575.016"/></g><g><path fill="#61498c" d="M43.38 133s-.199-.128-.38-.129c-.201 0-1-.043-1-.151s9.78-5.872 10.296-6.158c.514-.286 1.333-.62 1.483-.562.15.075 2.092.312 2.136.424.085.113.085.755.085.755L43.38 133"/></g><g><path fill="#6f5493" d="M55.868 126.304s-.273-.133-.493-.178c-.22-.045-.775-.126-1.016-.126h-.637c-.209 0-.96.165-.939.241.022.078-4.027 2.48-4.852 3.01-.825.53-5.015 3.156-4.931 3.308.086.152.368.098.567.135.2.038.015.472.89.236.878-.235 1.222-.335 1.692-.338.47-.002.482.106 1.076-.11.594-.217.283.015 1.103-.603.82-.617 7.672-5.054 7.672-5.103l-.132-.472"/></g><g><path fill="#61498c" d="M47.317 131.915c1.313-.998 2.62-1.998 4.035-2.998.701-.496 1.4-.992 2.053-1.486.304-.231.595-.431.854-.693.145-.128.276-.254.415-.382.125-.112.326-.235.326-.356h-.154c-.184.156-.294.276-.43.39-.157.132-.334.264-.505.397-.324.213-.647.5-.977.751-.64.462-1.326.974-2.014 1.462-1.397 1-2.92 2-3.92 2.935-.075.065.182.065.317-.02"/></g><g><path fill="#61498c" d="M46.533 131.868c.38-.242.698-.495 1.03-.736.337-.248.657-.492.973-.739.618-.48 1.308-.96 2.03-1.445.352-.234.762-.469 1.138-.704.393-.244.788-.49 1.173-.737.383-.245.755-.507 1.123-.736.334-.222.76-.486 1-.702.072-.069-.138-.069-.319-.002-.437.209-.827.476-1.172.697-.38.236-.759.493-1.115.738-.394.247-.697.498-1.037.738-.357.247-.638.491-.996.76-.714.47-1.439 1-2.21 1.451-.736.471-1.54.98-2.151 1.447-.145.16.3.102.533-.03"/></g><g><path fill="#61498c" d="M45.66 131.832c.143-.11.22-.193.34-.298.121-.115.36-.267.535-.385.354-.237.71-.474 1.047-.712.356-.25.643-.494.998-.743.34-.238.683-.475 1.025-.694.687-.497 1.337-1 2.07-1.445.325-.24.802-.472 1.186-.712.386-.239.84-.51 1.139-.746.112-.097-.207-.097-.445-.004-.445.219-.82.485-1.16.715-.395.192-.629.474-.985.713-.724.479-1.493.97-2.212 1.479-.353.214-.699.452-1.042.69-.346.239-.738.47-1.074.711-.324.232-.631.462-.923.692-.159.135-.359.271-.548.407-.149.109-.357.214-.516.326-.326.231.27.23.565.006"/></g><g><path fill="#da782d" d="M30 124.168s-.47.03-.584-.014a4.452 4.452 0 0 0-1-.154c-.318.07-10.226 5.777-10.701 6.068-.476.29-.902.678-.63.674.273-.005 2.072.258 2.406.258.333-.064 2.111-.435 2.111-.435L30 124.168"/></g><g><path fill="#ec932d" d="M20.185 131h-.77c-.254-.05-.805-.145-.956-.205-.15-.06-.219-.119-.32-.178-.139-.06-.24-.325-.027-.365.214-.04 3.97-2.49 4.888-3.013.823-.523 5.077-3.142 5.525-3.239.475 0 .475.064.703.092.221.028 1.238-.275 1.166.087-.071.362-.119.508.165.63.286.12.573.06.376.338-.197.28.215.063-.935.637-1.055.574-8.384 4.937-8.505 4.969-.12.032-1.31.247-1.31.247"/></g><g><path fill="#da782d" d="M29.921 125.112c-1.66.83-3.327 1.658-4.921 2.513-.794.375-1.59.846-2.411 1.258-.383.192-.78.382-1.187.562-.228.1-.46.198-.69.296-.204.089-.41.188-.63.259-.082 0-.082 0-.082-.055.203-.104.433-.191.63-.283.23-.105.449-.216.67-.326.42-.206.84-.413 1.257-.621a99.92 99.92 0 0 0 2.365-1.235c1.577-.844 3.078-1.716 4.858-2.48.22 0 .312 0 .141.112"/></g><g><path fill="#da782d" d="M29.889 125.209c-.384.247-.837.485-1.253.719-.424.239-.857.473-1.292.706-.849.454-1.657.928-2.45 1.366a26.48 26.48 0 0 1-1.107.777c-.387.223-.787.505-1.164.756-.391.25-.795.467-1.196.744-.364.223-.777.496-1.194.723-.233 0-.3 0-.233-.116.307-.242.753-.508 1.109-.734.391-.249.792-.5 1.201-.74.412-.246.83-.484 1.252-.724.438-.24.867-.466 1.279-.686.823-.513 1.629-1 2.415-1.503a24.001 24.001 0 0 1 2.41-1.435c.334-.147.458-.005.223.147"/></g><g><path fill="#da782d" d="M28.834 124.258c-.19.105-.357.175-.554.27-.217.102-.458.26-.65.377-.386.238-.773.476-1.17.71a32.9 32.9 0 0 0-1.28.717c-.399.233-.794.469-1.18.668-.802.507-1.604 1-2.37 1.451-.386.245-.71.549-1.082.747-.372.248-.78.533-1.225.745-.256.123-.415.057-.265-.106.282-.25.73-.512 1.108-.742.391-.238.834-.455 1.213-.694.793-.487 1.553-.985 2.346-1.47.389-.238.782-.474 1.176-.71.397-.221.75-.483 1.154-.718.389-.226.79-.448 1.195-.664.24-.129.471-.26.75-.393.137-.106.275-.225.465-.336.388-.227.76-.11.37.148"/></g><g><path fill="#b19e8f" d="M11 130v2.824L46 137v-3.26L11 130"/></g><g><path fill="#766a60" d="M60 125v3.148L45 137v-3.535L60 125"/></g><g><path fill="#efe9cf" d="M92.635 74.407C93.069 75 93.528 75.505 94 76l-6 3c-.384-.759-.7-1.51-1-2.242L92.305 74c.11.134.22.27.33.407"/></g><g><path fill="#efe9cf" d="M106 93.492c5.397-3.558 2.355-8.492 2.355-8.492 3.524 3.202 1.501 11.562-7.183 9.744a6.13 6.13 0 0 1-1.172-.376c1.813.51 3.934.506 6-.876"/></g><g><path fill="#efe9cf" d="M106.137 83.174c.07.106.863 1.275.863 2.509 0 1.317.648 4.652-3.879 6.014-4.527 1.361-8.89-2.304-8.89-2.304a26.3 26.3 0 0 1-.231-.297L105.71 83c.14 0 .29.108.427.174"/></g><g><path fill="#efe9cf" d="M97 80.072L90.873 84A86.504 86.504 0 0 1 90 81.7l5.425-3.7c.575.725 1.061 1.42 1.575 2.072"/></g><g><path fill="#efe9cf" d="M100 83.79L92.099 88A28.876 28.876 0 0 1 91 86l7.135-4A75.102 75.102 0 0 0 100 83.79"/></g><g><path fill="#efe9cf" d="M89.117 72c.614.54 1.25 1.145 1.883 1.819L86.79 76c-.288-.805-.552-1.57-.79-2.281L89.117 72"/></g><g><path fill="#efe9cf" d="M85 68s1.245.632 3 1.907L85.886 71c-.577-1.855-.886-3-.886-3"/></g><g><path fill="#73b3c9" d="M86 70.868L87.92 70c.634.403 1.34.888 2.08 1.455L86.789 73A99.284 99.284 0 0 1 86 70.868"/></g><g><path fill="#73b3c9" d="M92 75l-5.092 3c-.324-.893-.626-1.763-.908-2.594L90.372 73c.55.62 1.098 1.294 1.628 2"/></g><g><path fill="#73b3c9" d="M95 77.742L89 81a43.165 43.165 0 0 1-1-2.222L93.465 76c.535.594 1.017 1.178 1.535 1.742"/></g><g><path fill="#73b3c9" d="M99 81.754L92.072 86A61.71 61.71 0 0 1 91 83.693L97.412 80c.588.635 1.094 1.226 1.588 1.754"/></g><g><path fill="#73b3c9" d="M101.552 84.542s1.829-2.302 4.448-1.28L94.309 90A33.356 33.356 0 0 1 93 87.937l7.708-4.175c.527.498.844.78.844.78"/></g><g><path fill="#73b3c9" d="M103.333 91.82c4.752-1.41 4.032-4.886 4.032-6.224 0-1.277-.794-2.487-.867-2.596.502.232 1.033.57 1.58 1 0 0 3.272 5.12-2.51 8.78-2.245 1.42-4.568 1.425-6.476.9-1.817-.75-3.526-2.285-5.092-4.244v-.001s4.58 3.793 9.333 2.384"/></g><g><path fill="#edbb8b" d="M78 67s-3-.838-3.743-1.596c-.717-.757-5.083-.268-5.083-.268L62.861 63s-1.268 1.729-3.255 2c-1.988.267-3.606.136-3.606.136S59.466 72.34 68.897 72c9.43-.366 9.103-5 9.103-5"/></g><g><path fill="#f3f1ed" d="M78.1 126c-.05-.353-.1-.651-.1-.804.177-.36.311-.507.496-.815.185-.309-.138-.52-1.212-.648a4.697 4.697 0 0 0-.53-.02c-1.754 0-6.522.404-7.248.544-.82.157-4.778.372-6.181.429-.854.034-.939.102-.883.198l-.2.566s-.016.148-.035.37a298.58 298.58 0 0 1-2.046-.077v-.38l-34.1-4.248-.634.386c-5.344-1.446-8.427-3.148-8.427-4.97 0-2.649 6.51-5.043 17-6.766 3.516 2.71 10.412 4.874 17.383 6.491-1.166.452-1.302.935-1.302.935h.001c-2.19 1.949-1.876 4 1.791 5.359.59.218 1.187.397 1.787.546.65.162 1.34.287 1.952.37.697.087 1.388.13 2.066.13h.173c.74-.009 1.46-.07 2.149-.18v-.863.863c.798-.124 1.55-.316 2.25-.57.266-.095.527-.197.75-.31.517-.225 1-.445 1.421-.658.825-.4 1.579-.773 2.128-1.093 0-.01-.002-.019-.003-.028 0 .01.002.019.003.028.206-.114.395-.22.564-.32.57.299 1.007.455 1.088.471a.685.685 0 0 0 .087.004c.32 0 1.413-.068 2.502-.187l.004-.001c.31-.027.593-.064.846-.105.883-.124 1.613-.283 1.704-.465l.434-.182c10.146-1.374 31.634-4.864 34.936-11 13.552 1.736 22.286 4.463 22.286 7.53 0 2.69-6.717 5.12-17.51 6.847.433-1.124-.55-2.272-.6-3.001-.05-.772-.793-1.271-.798-1.274C112 119 112 119 111.922 119c-.248 0-.605.387-1.18.686-.742.413-2.357 1.208-4.27 2.174-1.913.967-5.057 2.649-5.9 3.065a.337.337 0 0 0-.016.008c-4.227.372-8.767.657-13.556.843-.334-.163-.594-.287-.727-.356-.49-.253-.643-.333-.731-.333-.088 0-.111.08-.343.146-.383.109-.373.295-.463.623-2.172.07-4.385.144-6.636.144"/></g><g><path fill="#e05f48" d="M85 126c.08-.427.07-.67.406-.811.203-.086.223-.189.3-.189.078 0 .212.103.642.433.116.09.345.25.652.463-.415.023-.83.046-1.25.104-.016 0-.032-.052-.048-.052-.019 0-.037.052-.053.052H85"/></g><g><path fill="#cd4a39" d="M85.42 125.51a.183.183 0 0 1 .16-.005 8.077 8.077 0 0 1-.16.005"/></g><g><path fill="#81aa40" d="M112.827 123c.082-.127.173-.302.255-.414.105-.192-.168-1.06-.392-1.457-.222-.397-.229-.788-.22-1.528.01-.741-.043-.965-.377-1.487-.03-.047-.093-.114-.093-.114s1 .571 1.06 1.449c.063.83 1.368 2.134.794 3.413-.339.046-.681.138-1.027.138"/></g><g><path fill="#90c33f" d="M101 124c.833-.431 3.884-2.14 5.74-3.12a451.545 451.545 0 0 0 4.142-2.208c.557-.304.904-.672 1.118-.672.088 0 .142 0 .192.078.023.027.046.06.068.102.244.466.283.666.276 1.328-.007.66-.002 1.01.16 1.364.164.355.364 1.128.304 1.301-.062.1-.144.257-.203.37-.587.095-1.186.187-1.797.277.337-.1.662-.206 1-.412.175-.139.11-.408-.108-.408h-.063c-.434.081-.829.308-1.18.538-.27.159-.541.31-.817.462-.832.1-1.62.21-2.457.313.625-.313 1.325-.706 1.986-1.06.434-.253.868-.462 1.306-.687.404-.208.888-.372 1.254-.643.246-.183.14-.478-.1-.478a.36.36 0 0 0-.13.026c-.44.167-.867.529-1.28.743-.411.246-.865.482-1.3.717-.845.455-1.69.92-2.558 1.322-.152.07-.303.142-.453.214-.81.096-1.635.187-2.476.275a98.096 98.096 0 0 1 2.242-1.248 97.842 97.842 0 0 1 2.862-1.437c.923-.445 1.926-.854 2.78-1.433.143-.097.106-.317-.049-.317a.195.195 0 0 0-.052.008c-.99.273-1.973.81-2.9 1.284-.953.487-1.896.993-2.844 1.493a107.253 107.253 0 0 0-3.27 1.775c-.46.046-.925.133-1.393.133"/></g><g><path fill="#81aa40" d="M109 124c.366-.14.727-.288 1.083-.444.515-.227.99-.45 1.566-.556h.083c.268 0 .376.291.102.428-.407.203-.834.307-1.284.406-.55.056-1.028.112-1.55.166"/></g><g><path fill="#81aa40" d="M105 124c.176-.072.353-.143.532-.213 1.02-.399 2.011-.86 3.004-1.312.464-.233 1.02-.475 1.525-.712.487-.234.939-.571 1.505-.763h.151c.283 0 .407.293.118.474-.429.27-.998.432-1.473.639-.514.223-1.023.451-1.533.682-.777.35-1.56.691-2.332 1.052-.497.052-.993.153-1.497.153"/></g><g><path fill="#81aa40" d="M102 125a101.813 101.813 0 0 1 3.197-1.947c.927-.548 1.803-1.053 2.803-1.637.885-.519 1.846-1.108 2.814-1.416h.05c.136 0 .188.24.049.347-.835.653-1.817 1.083-2.719 1.572a71.82 71.82 0 0 0-2.799 1.575c-.737.443-1.465.904-2.192 1.37-.398.046-.799.136-1.203.136"/></g><g><path fill="#6f4c8e" d="M61.676 126h-.422c.027-.246.05-.403.05-.403l.28-.597c.05.066.181.144.16.235-.043.175-.045.381-.068.765"/></g><g><path fill="#8d689f" d="M73.488 126c-3.142 0-6.222 0-9.225-.109.2-.01.398-.027.587-.04.585-.041 1.15-.094 1.74-.102.41-.005.752-.007 1.128-.007.723 0 1.447.007 2.167.017.191.002.384.004.577.004 2.005 0 4.108-.137 6.09-.49.125-.022.164-.152.02-.159-.47-.023-.94-.031-1.413-.031-.626 0-1.255.014-1.885.033a72.431 72.431 0 0 0-3.326.148 53.67 53.67 0 0 1-3.479.155h-.081c-.524 0-1.03-.048-1.546-.081-.27-.017-.55-.04-.842-.04-.228 0-.47.017-.706.07-.294.073-.294.39-.06.46.069.019.14.033.213.043l-1.368-.038c.016-.314.018-.483.048-.627.015-.074-.127-.139-.127-.206 0-.07 0-.128.89-.158 1.393-.05 5.323-.235 6.11-.37.748-.122 5.432-.472 7.222-.472h.526c1.066.129 1.387.311 1.252.578-.232.267-.365.422-.499.706-.056.132.008.39.057.716h-4.07"/></g><g><path fill="#6f4c8e" d="M64.258 126h-.838c-.075 0-.149-.055-.22-.077-.284-.087-.268-.48.063-.57.242-.066.49-.087.737-.087.288 0 .574.028.852.05.53.04 1.05.1 1.59.1h.083a45.924 45.924 0 0 0 3.574-.192c1.142-.102 2.28-.144 3.418-.224h3.388c.148 0 .095.208-.02.236-2.036.436-4.198.605-6.258.605-.198 0-.396-.002-.627-.005-.706-.011-1.449-.02-2.192-.02-.386 0-.808.002-1.16.008-.648.01-1.186.076-1.787.176h-.603"/></g><g><path fill="#d6c6bb" d="M59.412 125c-.35 0-.698 0-1.046-.051l.04-.027-9.027-1.212-.315-.042-4.251-.571-.229-.031-4.981-.669-.099-.013-4.252-.57-.039-.006-9.36-1.258-.118.078c-.25-.07-.494-.139-.735-.209l.64-.419L60 124.615l-.588.385"/></g><g><path fill="#c0b4a8" d="M38.276 123.271l.1-.063c.438-.284.81-.657.55-.657h-.034c-.155 0-.605-.046-1.087-.092-.48-.046-.994-.093-1.277-.093a.984.984 0 0 0-.167.01c-.238.044-1.192.255-1.738.376l-.026-.004 1.016-.6 4.295.52-1.132.668-.5-.065zm4.782.562c.266-.22.415-.42.225-.42h-.013l-.022.001c-.155 0-.605-.046-1.086-.093-.482-.046-.995-.093-1.277-.093a.999.999 0 0 0-.168.01c-.148.028-.573.12-1.005.215l-.407-.05 1.135-.67 4.29.522-1.083.64-.589-.062zm-2.618-1.1l-.44-.054.442.053zm4.29.522l.007-.004.263.037zm4.393.745h-.008c-.115 0-.586-.116-1.115-.182-.435-.066-.945-.132-1.199-.132a.63.63 0 0 0-.107.006c-.236.038-1.186.224-1.694.308h-.805l1.075-.685 4.294.52-.39.23c.05-.065.041-.065-.05-.065zm-15.034-1.331c-1.402-.222-2.732-.456-3.99-.669l.687-.435-.534-.065-.635.374a78.725 78.725 0 0 1-3.617-.803l.119-.071 9.455 1.144-.494-.06-.991.585M59 125c-1.567-.07-3.072-.15-4.545-.238l.472-.278-.534-.065-.521.308-.492-.031c.234-.163.365-.261.358-.273-.052-.088-.67-.11-.963-.11-.043 0-.08 0-.106.002h-.015c-.196 0-.42-.108-.42-.108l-.018.01a.473.473 0 0 0-.216-.056c-.16 0-.314.021-.522.077-.478.117-.744.2-1.003.257-.411-.03-.82-.062-1.226-.094l.85-.5-.217-.027L59 125"/></g><g><path fill="#e0d5cc" d="M30.413 121.829c-.138-.044-.277-.088-.413-.133l.543-.525.457.091-.587.567"/></g><g><path fill="#e0d5cc" d="M33.666 123c-.223-.072-.445-.109-.666-.146l1.3-.854.649.118.051.007-1.334.875"/></g><g><path fill="#e0d5cc" d="M38.636 124c-.214 0-.424-.06-.636-.091l1.36-.909h.12l.52.088-1.364.912"/></g><g><path fill="#e0d5cc" d="M43.676 124c-.225 0-.452-.063-.676-.088l1.343-.912.373.062.284.039-1.324.899"/></g><g><path fill="#e0d5cc" d="M48.326 124.896l-.326-.045c.125-.161.225-.315.267-.426l.31-.321.251.053.172.038-.674.701"/></g><g><path fill="#e0d5cc" d="M53.552 124.74c-.185-.016-.368-.032-.552-.05l.494-.43.506.09-.448.39"/></g><g><path fill="#cd4a39" d="M38.161 124c-.161 0-.373 0-.556-.071.01-.005.02-.007.025-.009.244-.045.031-.304-.1-.36-.13-.056-.223-.112-.41-.169-.189-.055-.856-.132-1.12-.154a7.7 7.7 0 0 0-.375-.008c-.28 0-.573.012-.573.012L34 123.43v-.003c.622-.134 1.71-.367 2-.427h.17c.322 0 .907.051 1.455.103.55.05 1.062.102 1.238.102h.04c.295 0-.129.412-.628.725-.02.013-.06.07-.114.07"/></g><g><path fill="#e05f48" d="M36.89 123.944a98.435 98.435 0 0 1-.683-.142.13.13 0 0 0-.08-.024l-.026.002-.725-.156c.022-.059-.009-.097-.068-.097a.279.279 0 0 0-.143.05c-.165-.03-.27-.06-.403-.09.026-.034.02-.064-.014-.064a.118.118 0 0 0-.048.013l-.05.025a54.61 54.61 0 0 1-.65-.15c.356-.105.83-.24.83-.24s.236-.015.462-.015c.1 0 .196.003.271.011.245.027.783.125.935.195.151.072.226.143.331.213.106.072.278.401.081.458-.005.002-.012.005-.02.011"/></g><g><path fill="#cd4a39" d="M34.573 123.532a8.33 8.33 0 0 1-.17-.026l.076-.025a.25.25 0 0 1 .072-.013c.05 0 .06.03.022.064"/></g><g><path fill="#cd4a39" d="M35.653 123.549c-.107-.017-.21-.031-.316-.047a.57.57 0 0 1 .214-.05c.089 0 .135.037.102.097"/></g><g><path fill="#cd4a39" d="M36.58 123.512a8.94 8.94 0 0 1-.16-.022l.04-.002c.05 0 .09.009.12.024"/></g><g><path fill="#81aa40" d="M42.661 123.924l-1.098-.151c-.113-.067-.2-.133-.369-.2-.194-.07-.82-.169-1.113-.195a3.717 3.717 0 0 0-.322-.011c-.27 0-.551.014-.551.014l-.106.025c-.035-.005-.102-.01-.102-.016.473-.133.938-.262 1.1-.3a.857.857 0 0 1 .184-.014c.308 0 .869.065 1.396.13.527.065 1.019.13 1.188.13h.038c.208 0 .094.28-.245.587"/></g><g><path fill="#90c33f" d="M42 123.703c-.679-.118-1.345-.24-2-.366l.086-.025s.229-.015.448-.015c.096 0 .19.003.261.011.205.027.758.125.905.195.137.067.208.133.3.2"/></g><g><path fill="#24959f" d="M47.655 125c-.276-.055-.55-.089-.824-.123a.264.264 0 0 0-.056-.072c-.094-.078-.157-.154-.297-.234-.14-.08-.658-.206-.896-.246a4.475 4.475 0 0 0-.582-.031l-.143.001-.857.205v-.004c.521-.152 1.415-.412 1.637-.496h.101c.262 0 .72.114 1.173.207.453.092.879.185 1.005.185h.008c.076 0 .076.063.076.161-.078.11-.196.264-.345.447"/></g><g><path fill="#3bb8c3" d="M48 124.791c-1-.12-2-.244-3-.377.388-.091.89-.205.89-.205H46c.201 0 .493.004.665.03.254.04.807.167.958.246.15.08.217.156.317.234.06.015.06.04.06.072"/></g><g><path fill="#1e7499" d="M52.53 124.843c-.174-.012-.343-.025-.53-.036.148-.117.215-.195.195-.218-.195-.183-.547-.104-.838-.14-.155-.02-.188-.18-.357-.279v-.013s.318.151.575.151h.021l.14-.001c.383 0 1.196.03 1.264.152 0 .017-.162.155-.47.384"/></g><g><path fill="#2388b5" d="M51.842 124.857c-.959-.077-1.906-.159-2.842-.245.293-.08.64-.197 1.134-.361.236-.078.41-.108.54-.108.137 0 .228.033.326.078.114.099.143.259.276.278.25.037.581-.043.724.141 0 .023 0 .1-.158.217"/></g><g><path fill="#766a60" d="M59.91 125.763l-.82-.034.82-.492v.526"/></g><g><path fill="#9fb33b" d="M51.345 93s7.6 7.635 19.91 6.926c12.31-.709 15.414-5.456 15.414-5.456L88 98.23S71.44 111.099 71 111c-.386-.1-24-15.61-24-15.61L51.345 93"/></g><g><path fill="#da3435" d="M60.932 116.643c-.414-1.434-1.133-2.485-1.932-3.256.785-.154 1.5-.284 2.088-.387l.291.342s2.125 1.782 2.486 5.43c.135.886.135 1.65.135 2.303-.449.203-.926.413-1.429.628-.254.108-.571.205-.795.297-.028-1.366-.222-3.203-.844-5.357"/></g><g><path fill="#da3435" d="M56.579 117.21A7.207 7.207 0 0 0 55 114.48c.738-.171 1.49-.332 2.226-.48.524.464 2.28 2.232 2.62 5.359C60 120.837 60 122 60 122.827c-.81.107-1.633.173-2.476.173.001-1.41-.187-3.41-.945-5.79"/></g><g><path fill="#da3435" d="M52.747 119.67c-.344-1.615-1.064-2.908-1.747-3.841.61-.29 1.344-.568 2.144-.829.637.876 1.505 2.457 1.721 4.766C55 121.103 55 122.174 55 123a19.487 19.487 0 0 1-2-.363c.076-.726 0-1.697-.253-2.967"/></g><g><path fill="#da3435" d="M65 115c1.505 1.821 3 3.644 3 3.779 0 .144-.71.597-1.935 1.221-.14-1.301-.41-2.81-.896-4.475A9.776 9.776 0 0 0 65 115"/></g><g><path fill="#f5c330" d="M49.857 115.64c.285-.219.652-.433 1.078-.64.688 1 1.414 2.29 1.76 3.95.305 1.305.305 2.304.305 3.05a16.401 16.401 0 0 1-1.811-.552c-3.943-1.448-4.04-3.726-1.332-5.808"/></g><g><path fill="#f5c330" d="M55.683 119.901c-.211-2.127-1.06-3.583-1.683-4.39.584-.18 1.204-.35 1.835-.511a6.937 6.937 0 0 1 1.354 2.563c.65 2.235.811 4.112.811 5.437-.718 0-1.452 0-2.191-.119.02-.76-.003-1.747-.126-2.98"/></g><g><path fill="#f5c330" d="M60.464 119.625c-.32-3.044-1.971-4.764-2.464-5.216.723-.15 1.43-.287 2.091-.409a7.03 7.03 0 0 1 2.025 3.2c.651 2.117.884 3.922.884 5.265-.75.238-1.558.418-2.409.535.039-.821.025-1.937-.127-3.375"/></g><g><path fill="#f5c330" d="M63.728 118.792c-.355-3.499-2.442-5.207-2.442-5.207l-.286-.328c1-.166 1.593-.257 1.593-.257s1.282 1.502 2.544 3c.05.143.095.282.137.426.394 1.33.613 2.574.726 3.574-.584.292-1.31.633-2.14 1-.009-.626-.047-1.36-.132-2.208"/></g><g><path fill="#e5712f" d="M62 112.638s18.515-15.28 29.547-18.847c11.032-3.568 19.656 5.606 16.953 14.083C105.797 116.348 67.405 120 67.405 120s-4.16.167-5.405-7.362"/></g><g><path fill="#c35e2e" d="M108.738 106.809s-5.648 4.496-16.601 8.1C81.184 118.514 66.15 120 66.15 120L65 119.195s18.63-2.008 29.45-6.358C104.064 109 109 105 109 105l-.262 1.809"/></g><g><path fill="#afb097" d="M68.184 120.673c-.088-.022-.564-.239-1.184-.673l1.184.673m.094.005a.576.576 0 0 1-.094-.005s.968-.048 2.816-.254c-1.184.165-2.373.259-2.722.259"/></g><g><path fill="#a62a2a" d="M66.484 119.51l-.002-.001.037-.019-.035.02"/></g><g><path fill="#afb097" d="M72 119.822c1.335-.256 2-.644 2-.644-.106.252-1 .472-2 .644"/></g><g><path fill="#a62a2a" d="M63.525 122s-.828-.615-2.062-1.363A24.685 24.685 0 0 0 61 118c1 .158 1.878.304 2.753.438.041.254.076.562.102.79.093.972.145 1.772.145 2.534l-.475.238"/></g><g><path fill="#a62a2a" d="M66.157 120c-.03-.338-.066-.645-.106-1 .313.236.617.407.899.553l-.792.447"/></g><g><path fill="#a62a2a" d="M60 119a20.093 20.093 0 0 0-2.713-1c-.073-.252-.155-.553-.287-.861V117c.909.163 1.804.317 2.677.463.14.467.252.979.323 1.537"/></g><g><path fill="#a62a2a" d="M55 118a43.814 43.814 0 0 1-3-.435A11.502 11.502 0 0 0 51 116c1.164.24 2.329.467 3.483.684.189.394.366.832.517 1.316"/></g><g><path fill="#afb097" d="M50 117s.1-.516 1-1a5.193 5.193 0 0 0-1 1"/></g><g><path fill="#b49335" d="M52 118c-1.817-.4-3-.8-3-.807.173-.193.361-.335.56-.5a6.802 6.802 0 0 1 1.042-.693c.125 0 .25.062.398.093.328.55.682 1.187 1 1.907"/></g><g><path fill="#b49335" d="M57 118a7.767 7.767 0 0 0-1.352-.266 30.564 30.564 0 0 1-1.136-.132A12.904 12.904 0 0 0 54 116c.9.208 1.796.407 2.678.597l.047.186c.102.415.193.82.275 1.217"/></g><g><path fill="#b49335" d="M62 120c-.763-.428-1.67-.9-2.638-1.323-.08-.61-.206-1.168-.362-1.677.856.139 1.692.27 2.507.395.233.938.391 1.81.493 2.605"/></g><g><path fill="#b49335" d="M63.288 121c-.013-.65-.061-1.41-.169-2.288-.03-.246-.119-.483-.119-.712.326 0 .646.077 1 .114.55.489 1.247.886 1.903 1.197.037.217.097.429.097.634L63.288 121"/></g><g><path fill="#afb097" d="M73.564 119.288c.029-.072-.008-.137-.098-.202.175-.028.352-.086.534-.086l-.436.288M71 120c.29 0 .58-.084.853-.132-.254.052-.537.132-.853.132"/></g><g><path fill="#ac592e" d="M75.188 118c.908-1 1.812-2.794 2.288-5.618 0 0-1.766-1.55-4.527-3.802 2.12-.086 3.88-.357 5.353-.764.056.184.118.398.187.6.963 2.801 7.564 4.926 12.378 6.126C85.79 116.09 80 117.25 75.188 118M71 107h.374H71m2.172 13c-.172-.073-.348-.149-.638-.246.302-.06.708-.186 1.16-.44 5.357-.793 12.955-2.16 19.219-4.22.087-.013.087-.027.087-.041 1.807.39 3 .596 3 .596L90.84 117l-17.132 2.93c-.182.07-.36.07-.536.07"/></g><g><path fill="#904829" d="M73 120c.483-.275 1-.694 1.544-1.331 4.926-.833 10.961-2.047 16.208-3.669.809.204 1.57.383 2.248.535 0 .015-.088.03-.132.044-6.476 2.158-14.331 3.59-19.868 4.421"/></g><g><path fill="#828667" d="M68.199 120L67 119.47l.24-.14c.658.257 1.146.273 1.258.273h.025s2.082-.196 5.356-.603c.121.058.121.114.121.177 0 0-.649.306-1.93.508-.307.042-.631.08-.956.115-1.913.2-2.915.2-2.915.2"/></g><g><path fill="#782121" d="M66.74 119.949c-.218-.146-.455-.317-.74-.512v-.386c.357.323.697.547 1 .702l-.231.177-.03.019"/></g><g><path fill="#856f30" d="M66 119c-.675-.258-1.393-.591-2-1 .227 0 .453 0 .674.063.429.302.86.535 1.275.714.051.075.051.15.051.223"/></g><g><path fill="#7e4325" d="M67.703 120c-.09 0-.48 0-1.005-.303a3.86 3.86 0 0 1-.826-.614A5.899 5.899 0 0 1 65 118c.64.132 1.24.253 1.796.362-.88.147-1.38.22-1.38.22l1.026.961s1.399-.185 3.622-.543c.563.057.872.105.872.105l.064.001s.205-.008.43-.106c.26.153.46.243.57.33-2.615.452-4.277.67-4.277.67h-.02"/></g><g><path fill="#663721" d="M66.324 120L65 119.186s.646-.062 1.782-.186c1.834.235 3.292.404 4.218.507-2.87.336-4.676.493-4.676.493"/></g><g><path fill="#da3435" d="M79.064 116.65c.428-1.429 1.144-2.47 1.936-3.228-.761-.168-1.454-.31-2-.422l-.315.338s-2.099 1.75-2.513 5.397c-.1.885-.172 1.65-.172 2.265a17 17 0 0 0 1.38.689c.246.113.505.215.769.311.05-1.367.272-3.203.915-5.35"/></g><g><path fill="#da3435" d="M83.416 117.22A7.284 7.284 0 0 1 85 114.512a72.84 72.84 0 0 0-2.15-.512c-.518.456-2.255 2.2-2.647 5.324C80 120.8 80 121.946 80 122.792c.772.117 1.569.208 2.387.208.026-1.41.247-3.409 1.029-5.78"/></g><g><path fill="#da3435" d="M87.239 119.696A10.278 10.278 0 0 1 89 115.869a17.446 17.446 0 0 0-2.07-.869c-.633.87-1.503 2.442-1.752 4.756C85 121.096 85 122.17 85 123a16.37 16.37 0 0 0 1.905-.33c-.024-.731.095-1.67.334-2.974"/></g><g><path fill="#da3435" d="M75 115c-1.504 1.803-3 3.609-3 3.745 0 .144.684.61 1.87 1.255.13-1.304.451-2.812.956-4.476.054-.18.113-.354.174-.524"/></g><g><path fill="#f5c330" d="M89.209 115.661a6.342 6.342 0 0 0-1.056-.661c-.697 1-1.436 2.276-1.807 3.939A13.763 13.763 0 0 0 86 122c.604-.14 1.204-.313 1.796-.524 3.924-1.404 4.057-3.674 1.413-5.815"/></g><g><path fill="#f5c330" d="M84.868 118.922a7.899 7.899 0 0 1 2.132-4.38c-.703-.19-1.449-.37-2.207-.542a6.739 6.739 0 0 0-1.694 2.55C82.264 118.785 82 120.667 82 122c.867 0 1.755 0 2.652-.089-.009-.764.04-1.754.216-2.989"/></g><g><path fill="#f5c330" d="M80.512 118.624c.368-3.042 2.002-4.739 2.488-5.183-.7-.162-1.382-.309-2-.441a6.551 6.551 0 0 0-2 3.172c-.716 2.11-.947 3.913-1 5.256.723.25 1.504.442 2.326.572-.021-.824.012-1.94.186-3.376"/></g><g><path fill="#f5c330" d="M75.239 118.789c.408-3.502 2.475-5.182 2.475-5.182l.286-.324c-.947-.181-1.55-.283-1.55-.283s-1.277 1.486-2.537 3c-.05.11-.096.25-.14.393A20.584 20.584 0 0 0 73 120c.565.266 1.267.62 2.07 1 .02-.626.07-1.362.169-2.211"/></g><g><path fill="#e5712f" d="M77 111.857S58.695 96.546 47.692 92.86C36.69 89.172 27.882 98 30.448 106.41 33 114.78 71.452 119 71.452 119s4.17.233 5.548-7.143"/></g><g><path fill="#c35e2e" d="M31.233 105.727s5.603 4.38 16.555 7.995C58.74 117.336 73.83 119 73.83 119l1.17-.748S56.302 116 45.498 111.709C35.895 107.867 31 104 31 104l.233 1.727"/></g><g><path fill="#c35e2e" d="M77 111.515s-.223 2.43-1.171 4.485c-.95 2-3.71 3-3.922 3-.212 0-4.678-.338-4.907-.793-.212-.455 3.872-.44 5.368-3.97 1.495-3.532.359-5.657 1.531-5.167 1.172.488 3.032 2.156 3.101 2.445"/></g><g><path fill="#b7e0eb" d="M72 101.871c6.64-.237 11.474-.975 15-1.871-.61 1.45-1.243 3-2.252 4.473-3.106.68-7.52 1.265-13.748 1.527-2.437 0-4.62 0-6.605-.095-1.269-1.313-2.395-2.832-3.395-4.314 3.137.303 6.795.409 11 .28"/></g><g><path fill="#b7e0eb" d="M50 70.917c.322-1.201.642-2.189.926-2.811 3.537 1.39 9.403 2.76 18.463 2.395 7.084-.286 11.725-1.347 14.737-2.501l.121.12c.467.487 1.073 1.6 1.753 3.107-2.376 1.079-7.178 2.391-16.7 2.773-10.389.32-16.3-1.574-19.3-3.083"/></g><g><path fill="#b7e0eb" d="M49 75.163c.207-1.083.439-2.163.678-3.163 3.8 1.424 10.457 2.94 21.133 2.567C79.05 74.28 84.295 73.17 87.597 72 88 73 88.52 74.17 89 75.37c-2.674 1.027-8 2.268-18.65 2.63C59 78.297 52.436 76.584 49 75.163"/></g><g><path fill="#b7e0eb" d="M73.252 96.25C82.075 96 88 95 92 94c-1.578.715-3.506 1.902-4.749 3.75-2.986.939-8.251 1.924-17.427 2.25-4.643.098-8.486-.11-11.643-.505-.714-.854-1.446-1.641-2.242-2.294-1.234-1.012-2.602-1.838-3.939-2.506 4.752 1.033 11.638 1.841 21.252 1.554"/></g><g><path fill="#b7e0eb" d="M71.381 107c4.202-.122 7.702-.5 10.619-1-2 1.625-4.904 2.79-9.375 3-2.715.107-4.85-.655-6.625-1.907 1.683.036 3.473.023 5.381-.093"/></g><g><path fill="#b7e0eb" d="M70.786 86.21c10.539-.343 16.649-1.817 20.128-3.21A345.67 345.67 0 0 1 92 86.109C90.851 87 86.305 89.48 70.464 90 57 90.36 50 88 47 86.438c.208-.97.344-1.912.344-2.726v-.157C51.54 85 58.92 86.595 70.787 86.21"/></g><g><path fill="#b7e0eb" d="M48 81.41c.09-1.034.223-2.154.383-3.302 4.204 1.549 11.341 3.13 22.541 2.723C79.718 80.511 85.378 79.296 89 78c.325 1 .665 2 1 3.081-1.661 1.176-6.561 3.401-20.146 3.919-12.103.367-18.707-1.927-21.854-3.59"/></g><g><path fill="#b7e0eb" d="M56 64s3.834 3.188 8 5c-5.67-.208-9.515-1.317-12-2.439C53.657 64.908 56 64 56 64"/></g><g><path fill="#b7e0eb" d="M78.5 66.277s2.172-.735 4.5.19C81.369 67 79.111 67.581 76 68c1.595-.876 2.5-1.723 2.5-1.723"/></g><g><path fill="#b7e0eb" d="M71.759 90.309C83 90 89.306 88.408 92.769 87A395.73 395.73 0 0 1 94 90.621c-2 1.06-7.433 2.932-21.868 3.379-17.535.445-24.516-3.28-26.132-4.337.25-.663.525-1.471.78-2.31 4.047 1.51 11.804 3.364 24.979 2.956"/></g><g><path fill="#73b3c9" d="M51 68.64c.06-.125.12-.235.178-.327.296-.482.691-.92 1.13-1.313 2.548 1 6.49 2 12.306 2.24 1.695.661 3.44 1.123 5.006 1.123 2.853 0 5.201-.869 6.807-1.708 2.919-.375 5.036-.87 6.573-1.369a6.158 6.158 0 0 1 2 1.253c-3.085 1.109-7.837 2.128-15.091 2.403C60.629 71.294 54.622 70 51 68.64"/></g><g><path fill="#73b3c9" d="M50 73.194c.17-.78.346-1.52.52-2.194 2.98 1.546 8.838 3.487 19.14 3.111 9.444-.343 14.206-1.688 16.563-2.794.25.571.51 1.197.777 1.865-3.222 1.256-8.338 2.447-16.38 2.757-10.417.4-16.913-1.228-20.62-2.745"/></g><g><path fill="#73b3c9" d="M48 78.299c.11-.76.234-1.532.368-2.299 3.43 1.56 9.987 3.442 21.314 3.068 10.583-.35 15.947-1.713 18.617-2.841.233.642.467 1.3.701 1.967-3.64 1.256-9.356 2.433-18.236 2.743C59.454 81.331 52.245 79.8 48 78.3"/></g><g><path fill="#73b3c9" d="M70.061 84c13.629-.52 18.545-2.797 20.21-4 .248.777.49 1.553.729 2.32-3.434 1.569-9.464 3.228-19.865 3.613-11.712.435-18.996-1.342-23.135-2.987 0-.768.056-1.652.138-2.61C51.296 82 57.92 84.386 70.061 84"/></g><g><path fill="#73b3c9" d="M70.874 90.078C86.6 89.575 91.114 87 92.254 86c.262.813.513 1.597.746 2.335-3.463 1.533-9.77 3.222-21 3.603-13.193.444-21-1.575-25-3.218.217-.774.419-1.58.579-2.37 2.978 1.65 9.883 4.158 23.295 3.728"/></g><g><path fill="#73b3c9" d="M72.704 94.252C87 93.852 92.424 92 94.371 90.949c.397 1.184.629 1.896.629 1.896s-1.159.25-2.624.906c-3.928 1.023-9.8 1.936-18.512 2.192-9.492.28-16.292-.508-20.983-1.515C49.333 92.68 46 92.05 46 92.05s.362-.831.811-2.05c1.601 1 8.519 4.736 25.893 4.252"/></g><g><path fill="#73b3c9" d="M70.615 100.206C79.77 99.925 85 98.939 88 98c-.06.09-.122.182-.18.276-.366.6-.686 1.266-1.012 1.965-3.561.814-8.444 1.485-15.112 1.7-4.282.14-7.976.059-11.145-.254C60 101 59.521 100.366 59 99.745c3.15.395 7 .603 11.615.46"/></g><g><path fill="#73b3c9" d="M69.78 105.285c6.46-.186 11.015-.693 14.22-1.285a10.134 10.134 0 0 1-2.416 2.127c-2.94.392-6.467.689-10.7.817C69 107 67.157 107 65.462 107A14.94 14.94 0 0 1 63 105.244c2 .091 4.3.111 6.78.041"/></g><g><path fill="#87aeb9" d="M60.902 70.604S60.537 70.381 60 70c.106 0 .214 0 .322.055.337.327.58.549.58.549M68.27 71c-.791 0-2.131-.077-3.54-.471.779.04 1.588.062 2.429.062h.006l.27-.001C68.372 70.871 69 71 69 71h-.73"/></g><g><path fill="#bcc0bf" d="M54.124 64.927C54 64.557 54 64.34 54 64.34l1-.268c-.264.232-.565.518-.876.854"/></g><g><path fill="#87aeb9" d="M61 69a34.584 34.584 0 0 1-2.584-.349c-1.416-.948-2.552-1.82-2.552-1.82s.487.78 1.019 1.511c-.507-.116-.985-.241-1.436-.342-.829-1-1.251-1.837-1.447-2.332.364-.246.716-.457 1-.668h.27s3.26 2.48 5.73 4"/></g><g><path fill="#58889c" d="M60 70.603a7.09 7.09 0 0 1-.368-.04c-.974-.563-2.52-1.419-3.485-2.409-.05-.052-.147-.103-.147-.154.481.132 1 .258 1.533.375.293.38.599.746.853.984A13.22 13.22 0 0 0 60 70.603m6.731.397H64.32c-.716-.196-1.45-.409-2.139-.709-1.037-.453-2.093-1.043-3.011-1.605.83.14 1.772.26 2.758.314.651.415 1.25.733 1.733.941 1.21.52 2.424.855 3.339 1.059h-.267-.002"/></g><g><path fill="#87aeb9" d="M73.414 71.292c-.868 0-1.414-.137-1.414-.137s1.536-.325 3.156-.948a54.113 54.113 0 0 0 3.34-.456c-.496.3-1.12.598-1.743.86a8.583 8.583 0 0 1-3.339.68M76 72s2.188-1.07 3.327-2c.219-.144.426-.33.619-.52.737-.15 1.42-.312 2.054-.48-.212.308-.5.62-.89.917C79.326 71.267 76 72 76 72"/></g><g><path fill="#87aeb9" d="M79 68c1.22-.553 2.08-1 2.08-1l1.92.254v.095A50.535 50.535 0 0 1 79 68"/></g><g><path fill="#58889c" d="M76 70c.58-.22 1.171-.48 1.7-.778a26.466 26.466 0 0 0 2.24-1.444A26.725 26.725 0 0 0 83 67c0 .284 0 1.062-.542 1.876-.598.124-1.243.307-1.938.448a10.51 10.51 0 0 0 1.285-1.519s-1.075.896-2.653 1.77c-.964.162-2.012.306-3.152.425"/></g><g><path fill="#87aeb9" d="M77 106a11.715 11.715 0 0 0 2.124-1c1.387-.904 2.417-2.221 3.25-3.689A48.858 48.858 0 0 0 84 101c-.805 1.833-1.645 3.408-3.123 4.537A65.005 65.005 0 0 1 77 106"/></g><g><path fill="#87aeb9" d="M83 99c.645-1.267 1.195-2.54 1.754-3.663A75.493 75.493 0 0 0 87 95a8.76 8.76 0 0 0-1.106 1.467 33.538 33.538 0 0 0-1.19 2.192A47.12 47.12 0 0 1 83 99"/></g><g><path fill="#87aeb9" d="M86 93c2.322-2.318 7.767-3 7.8-3 .01 0 .021.072.032.107l.168.541c-1.12.653-3.424 1.6-8 2.352"/></g><g><path fill="#58889c" d="M85 95c.245-.43.492-.832.75-1.197a3.7 3.7 0 0 1 .62-.669c4.803-.682 7.221-1.542 8.397-2.134l.233.597v.05c0 .001-4.774.247-7.783 3.064-.703.101-1.44.198-2.217.289"/></g><g><path fill="#58889c" d="M82 101a17.63 17.63 0 0 0 1.266-1.728c.62-.089 1.197-.18 1.734-.272-.392.61-.75 1.198-1.113 1.756-.6.085-1.23.166-1.887.244"/></g><g><path fill="#58889c" d="M72.133 106c-2.653 0-4.133-.648-4.133-.648s.5.042 1.309.042c1.482 0 4.004-.139 6.404-.923A77.893 77.893 0 0 0 80 104c-.813.572-1.802 1-3 1.352-1.922.486-3.541.648-4.867.648"/></g><g><path fill="#bcc0bf" d="M46 91l1-2c-.235.51-.473 1-.695 1.421-.106.205-.208.398-.305.579"/></g><g><path fill="#87aeb9" d="M70.235 105c-1.118 0-3.235-.195-4.812-1.51A13.426 13.426 0 0 1 64 102c.513 0 1 .053 1.578.07C68.13 104.534 71 105 71 105h-.765"/></g><g><path fill="#87aeb9" d="M63 100c-.635 0-1.251-.058-1.85-.096C59.784 98.636 58.36 97.217 57 96c.769.082 1.569.158 2.402.227a57.433 57.433 0 0 1 3.328 3.48c.089.1.178.198.27.293"/></g><g><path fill="#87aeb9" d="M59 94c-1-.14-2-.296-2.824-.461-2.176-1.264-5.597-1.968-7.654-2.3a18.253 18.253 0 0 1-1.522-.8v-.011-.008c.163-.42.336-.911.508-1.42.023 0 2.989.595 6.44 1.75 1.685.564 3.389 1.738 5.052 3.25"/></g><g><path fill="#58889c" d="M47.718 90.885c-1.02-.18-1.718-.259-1.718-.26.07-.196.142-.404.219-.625h.028c.303.23.753.533 1.471.885M60 96a72.77 72.77 0 0 1-2.183-.255 27.963 27.963 0 0 0-1.6-1.648 6.5 6.5 0 0 0-.96-.73c.858.179 1.743.347 2.743.498.7.659 1.356 1.377 2 2.135"/></g><g><path fill="#58889c" d="M65 102c-.678 0-1.34 0-2-.064A48.372 48.372 0 0 1 61 100c.61 0 1.24.077 1.886.107.65.743 1.372 1.369 2.114 1.893"/></g><g><path fill="#edbb8b" d="M62.461 63.85s.702-1.29.937-2.958C63.633 59.225 63.25 57 63.25 57l10.063 1.828s.117 4.488.492 5.329C74.18 65 75 65.502 75 65.502s-2.265 2.08-2.907 2.422c-.644.344-7.416-.58-7.825-.844C63.858 66.816 62 64.94 62 64.94l.461-1.09"/></g><g><path fill="#e4aa81" d="M63 60v-1 1m10 2a44.844 44.844 0 0 1-.118-1.722h.007L73 62"/></g><g><path fill="#df915c" d="M69.219 64c-.4 0-.833 0-1.3-.1C64.486 63.384 63 60.297 63 60.242V59c1.73.689 3.692 1.204 5.918 1.443C70 60.555 71 60.61 72 60.61c.266 0 .575-.005.881-.016.028.664.066 1.407.119 2.152C73 62.76 71.775 64 69.219 64"/></g><g><path fill="#edbb8b" d="M91 36.598s-.15 2.682.285 4.493c.435 1.811 3.012 5.672-.285 10.796-3.293 5.113-11.173 8.9-21.167 7.973-9.994-.926-14.63-6.667-16.425-9.204-1.794-2.538-2.536-4.076-2.536-4.076s-1.396 1.857-3.331 1.485c-1.935-.372-5.541-2.334-6.399-7.01-.827-4.677 2.185-5.226 3.097-5.65.912-.405 1.512-.306 1.512-.306s-8.184-10.188-2.244-22.33C49.45.624 68.188-2.768 81.515 5.642 94.84 14.05 93.282 25 92.512 28c-.772 3.08-1.567 6.897-1.512 8.598"/></g><g><path fill="#df915c" d="M74.698 42c-.1 0-.245-.057-.446-.247-.498-.47-.354-1.5 1.316-2.317.602-.296 1.38-.436 2.15-.436 1.365 0 2.703.437 2.992 1.219.452 1.222.29 1.191.07 1.404a.149.149 0 0 1-.101.032c-.18 0-.483-.186-.467-.594.015-.419-.388-.878-2.03-.878-.353 0-.764.021-1.24.07-2.821.28-2.046 1.624-2.046 1.624s-.052.123-.198.123"/></g><g><path fill="#df915c" d="M58.068 33c-.179 0-.068-2.506.932-3.907C60 27.718 62.251 27 63.207 27h.336c.61.295.51 1.207.271 1.374-.238.168-1.882.007-3.28.626-1.396.685-2.385 3.874-2.385 3.874-.03.126-.058.126-.08.126"/></g><g><path fill="#df915c" d="M89.853 31c-.016 0-.03 0-.038-.063 0 0-.27-2.277-2.092-3.123-.723-.334-1.295-.428-1.723-.428-.333 0-.584.039-.798.077-.202.039-.392.077-.543.077a.614.614 0 0 1-.163-.02c-.496-.143-.657-1.226-.296-1.414.106-.054.432-.106.879-.106 1.08 0 2.863.302 3.921 1.59 1.337 1.642 1 3.41.853 3.41"/></g><g><path fill="#e99a77" d="M64.616 45c-1.835 0-4.118-.448-3.518-1.72.568-1.203 3.761-1.28 4.575-1.28H66c.943 0 3.182.113 3 1.336-.217 1.3-2 1.573-3.921 1.664h-.463"/></g><g><path fill="#e99a77" d="M86.807 44c-1.534 0-3.238-.402-2.708-1.59.614-1.41 4.2-1.41 4.2-1.41h.43c.904 0 2.442.15 2.271 1.228-.238 1.284-1.838 1.606-3.482 1.772h-.71"/></g><g><path fill="#352b26" d="M69 38.29s-2.36-1.207-4.288-.669c-1.93.537-4.575 2.379-4.575 2.379l1.172-1.127L60 39.1l1.64-.595-.64-.114 1-.267s1.224-1.583 3.63-2.066C68 35.574 69 38.29 69 38.29"/></g><g><path fill="#352b26" d="M82 38.086s2-1.726 3.453-1.332c1.46.394 3.34 2.246 3.34 2.246L88 37.811l1 .104-1.226-.499.543-.22-.78-.196s-.793-1.713-2.635-2C83.059 34.746 82 38.086 82 38.086"/></g><g><path fill="#a53a3c" d="M82.41 47.644c.538-.38.945-.837 1.217-1.37.373-.728.373-1.43.373-1.89a.4.4 0 0 0-.5-.384.515.515 0 0 0-.235.483c.028.315.01.82-.265 1.352-.41.786-1.49 1.802-4.308 2.165-4.636.64-6.511-1.567-7.039-2.391-.107-.169-.299-.218-.454-.12h-.003c-.196.124-.259.434-.123.647.641 1.012 2.719 3.417 7.7 2.748 1.55-.208 2.766-.623 3.637-1.24"/></g><g><path fill="#df915c" d="M47.675 46c-.43 0-.93-.277-1.452-1-1.608-2-1.486-3.102-1.223-3.883.205-.781.44-.968.44-.968S45.212 40 44.892 40c-.298 0-.676.132-1.017.58-.704.927-.619 1.921-.619 1.921s-.937-1.814.745-3.197c.294-.21.584-.304.887-.304 1.696 0 3.851 2.902 4.113 4.516C49.149 44.8 48.568 46 47.675 46"/></g><g><path fill="#e9d064" d="M64 13s-9 6.87-10.575 13.632c-1.573 6.76-.192 6.68-.494 10.827-.302 4.146-.672 4.541-.672 4.541s.184-6-.333-8.495c-.52-2.505.074-7.763 1.702-11.198 1.666-3.434 5.372-6.12 5.372-6.12S55.294 18 53.073 21.187C50.853 24.398 50 28.317 50 28.317s-.221-5.935 5.59-10.862C61.4 12.528 64 13 64 13"/></g><g><path fill="#e9d064" d="M74 15s-5.23 4.944-8.282 7.177C62.665 24.411 60 26.23 58 28c-1.947 1.766-2.886 4-2.886 4s-.94-2.85 2.582-8.782c3.522-5.933 8.1-7.396 8.1-7.396s-4.07 2.619-6.379 6.086C57.11 25.374 56.522 28 56.522 28s3.052-3.32 4.852-5.438c1.8-2.118 3.835-3.042 3.835-3.042S61.649 23 60.904 24c-.743 1-1.07 1.451-1.07 1.451S71 15.95 74 15"/></g><g><path fill="#e9d064" d="M84 12s-3.447 6.262-8 9c-4.57 2.836-12 4-12 4s6-1.26 10.85-4.204C79.747 17.85 84 12 84 12"/></g><g><path fill="#e9d064" d="M88 10s2.39 2.661-.243 6.821C85.124 21 82 22.858 77.45 24 72.86 25.217 70 25 70 25s5.53-.159 10.27-3.794C85 17.571 86 15.172 86 15.172s-.53 2.661-3.826 5.322c-3.295 2.661-4.688 3.148-4.688 3.148s4.93-1.461 8.514-5.471C89.563 14.16 88 10 88 10"/></g><g><path fill="#e9d064" d="M89 13s3.162 6 3.292 8.586c.13 2.63-.474 7.414-.474 7.414s2.606-4.195 2.122-8.313-2.067-6.157-2.067-6.157 1.45 3.334 1.627 6c.176 2.667-.703 4.589-.703 4.589s.835-2.432-.351-6C91.258 15.548 89 13 89 13"/></g><g><path fill="#e9d064" d="M46.165 12s-4.599 3.525-2.71 13.118C45.343 34.713 50 39 50 39s-1.784-3.444-2.696-8.573c-.911-5.13.76-9.96.76-9.96S46 23.753 46.14 27.587c.102 3.835.912 5.628.912 5.628s-2.684-4.731-2.786-10.907c-.101-6.175 1.9-10.309 1.9-10.309"/></g><g><path fill="#e9d064" d="M50.278 3.897S52.2 1.513 54.591.757C57 0 58 0 58 0s-2.836.605-4.592 1.789C51.653 3 51 3.897 51 3.897s1.53-.777 2.676-1.036c1.144-.259 1.72-.259 1.72-.259s-3.82 1.332-4.2 1.59l-.383.26S49.058 5.081 47.417 6c-1.64 1-3.09 4-3.09 4s-.038-1.924 1.527-3.217C47.417 5.488 48.41 5 48.41 5s-1.106-.4-3.167 1C43.183 7.337 42 9 42 9s1.068-2.33 3.128-3.512c2.06-1.184 4.274-1.369 4.274-1.369s-.114-.444-.077-1.369c.04-.924.675-2.368.675-2.368s-.371 2.405.278 3.515"/></g><g><path fill="#fff7ce" d="M61.454 19.786c-.047 0 .327-.86.75-1.786 1.796-1.761 3.465-2.879 3.465-2.879s-1.25.415-2.936 1.695c.267-.691.565-1.23.565-1.23L59 19.057l1.61-2.745-1.102.592C60.798 15.524 62 14.373 63 13.57c.49.015 1 .022 1.526.022 11.636 0 21.077-3.712 21.077-3.712l2.043-.402.354 2.833s-.81-.814-1.103-.995a.074.074 0 0 0-.041-.012c-.277 0-.541 1.696-.783 2.368-.073.14-.073.199-.155.199-.218 0-.427-1.01-.315-1.371.01-.032.009-.046 0-.046-.123 0-1.816 2.546-2.522 3.546-.081.17-.217.243-.28.243-.328 0 .025-1.872.025-2.243 0-.06-.01-.08-.028-.08-.184 0-1.207 1.93-1.391 1.977a.055.055 0 0 1-.01.002c-.06 0-.12-.138-.178-.338C82.941 13.316 84 11.316 84 11.316s-1.143 1.634-2.924 3.61c-.076-.37-.134-.738-.177-.926h-.039c-.231 0-1.258 2-1.627 2.842-.06.059-.12.158-.18.158-.053-.279.169-1.533.293-2 .013 0 .001-.052-.033-.052-.409 0-3.95 3.187-4.045 3.33l-.003.005c-.03 0 1.526-3.472 1.526-3.472l-6.189 3.984s.398-1.214.665-2.23a173.03 173.03 0 0 0 2.379-2.272c-.492.162-1.212.57-2.068 1.138.024-.104.038-.176.038-.207 0-.018-.01-.027-.03-.027-.26 0-2.14 1.492-3.317 2.373-1.172.878-1.868 1.18-2.133 1.18a.25.25 0 0 1-.056-.006c-.211-.051.667-1.863.515-2.122-.006-.01-.02-.015-.04-.015-.483 0-4.84 2.874-5.084 3.164-.008.01-.014.015-.017.015m-5.564-.905c-.02 0 .032-.454.11-1.023 1.747-1.453 3.354-2.232 3.354-2.232s-1.785 1.298-3.464 3.255M44.74 20c-.066 0-.104-.07-.11-.229-.04-1.286.694-4.99.993-6.44.377-1.049.606-1.627.606-1.627s-.8.637-1.597 2.102c-.565.507-1.186 1.005-1.447 1.005-.08 0-.126-.047-.126-.156 0-.828 1.267-2.95 1.267-2.95s-2.493 1.923-3.083 2.454c.336-.58 1.054-2.843 1.054-2.843L39 18.434s.457-5.59 2.486-9.137c.18-.297.366-.61.514-.882-.11.28-.184.455-.184.455S43 7.085 45 5.65c.452-.282.818-.492 1.146-.649h.003s-.431.609-.498 1.509c-1.553 1.358-1.515 3.37-1.515 3.37s.64-1.39 1.55-2.62C46 9.121 48.18 11.667 56.92 13c1.282.223 2.557.365 3.816.457-1.211.644-2.737 1.646-4.581 3.2.077-.567.141-1.019.141-1.019s-4.834 3.887-5.016 3.887c-.004 0-.006-.001-.006-.004 0-.156 2.725-3.573 2.79-3.986.026-.207-.354-.26-.76-.26s-.837.053-.913.053c-.153 0-1.573 1.346-1.826 1.864-.022.043-.042.064-.06.064-.194 0-.194-2.343-.194-2.343s-1.776 1.761-2.486 3.417c-.105.245-.174.351-.216.351-.241 0 .39-3.504.521-4.078.004-.028.001-.042-.007-.042-.124 0-.79 1.36-1.542 2.719C45.829 18.64 45 20 44.74 20"/></g><g><path fill="#f6ea9a" d="M56 20c1.66-2.165 3.426-3.6 3.426-3.6s-1.59.86-3.323 2.468c.05-.424.108-.868.16-1.329 1.829-1.718 3.333-2.826 4.532-3.539.74.06 1.477.101 2.205.125a48.404 48.404 0 0 0-3.421 3.687C58.214 18.632 56 19.942 56 20"/></g><g><path fill="#f6ea9a" d="M70.713 17.463c.13-.463.287-.963.287-1.23.836-.614 1.527-1.057 2-1.233 0 0-1 1.065-2.287 2.463M62 19c.17-.427.348-.87.509-1.266 1.62-1.387 2.823-1.836 2.823-1.836S63.72 17.109 62 19"/></g><g><path fill="#f6ea9a" d="M81.187 16.42c-.05-.186-.1-.42-.187-.66C82.84 13.7 84 12 84 12s-1.075 2.083-2.813 4.42M79 18v-.066l.182-.18c-.071.173-.118.246-.182.246"/></g><g><path fill="#f6ea9a" d="M45 14c1-1.394 2-2 2-2s-.338.55-.76 1.548c.095-.35.156-.548.156-.548s-.66.498-1.396 1"/></g><g><path fill="#fff7ce" d="M41 15.135s0-.05.133-.135c-.049.078-.133.127-.133.135"/></g><g><path fill="#f6ea9a" d="M42 9s.086-.214.258-.501C44.43 5.699 46.892 5 47 5c-.379.16-.801.375-1.266.664C43.361 7.136 42 9 42 9m2.68 1s-.044-2.063 1.749-3.454a2.93 2.93 0 0 0 .04.769C45.419 8.574 44.679 10 44.679 10"/></g><g><path fill="#80c9c4" d="M89.756 76.495l-.512-.006c.216.034.392.024.512.006"/></g><g><path fill="#c79751" d="M88.104 73.24c1.753 2.637 5.321 3.685 5.321 3.685l-3.853-.15c-.407.1-1.72.495-3.215 1.693C86 77.862 84.9 76.454 83.49 76c-.552-.226-1.13-.14-1.606.119-.432.385-.884 1.017-.3 1.823.922 1.379 3.505 2.426 3.505 2.426s-2.029 2.246-1.476 5.271C84.167 88.663 87 90.88 87 90.88l-3-.4c-1.707.36-5 1.192-5 2.376v.031c0 .18.243 1.113 3.63.957 3.752-.15 6.643-1.676 6.643-1.676s.727.179 2.276.448c1.568.27 5.229.06 5.229.06s2.553 1.408 4.705 2.007c2.154.6 5.12.165 5.12.165.205-.223.319-.498.33-.848.067-.949-2.072-1.83-3.774-2.384-2.938-.342-6.159.162-6.159.162s5.283-.958 6.329-3.653c1.046-2.695.213-6.619.213-6.619s.679.21 2.094.06c1.364-.146 2.89-1.116 2.953-1.157.355-1.101-.423-2.326-2.215-2.409-1.585 0-2.913.93-3.484 1.408 0 0-.643-.739-2.144-1.316-1.502-.576-4.399-1.017-4.399-1.017s4.798-.075 6.336-2.936c1.538-2.874.861-6.318.861-6.318s1.108-.599 3.138-2.157c2.03-1.556 5.167-6.827 1.907-8.145-3.26-1.318-8.243 7.367-8.243 7.367s-1.538-1.317-4.346-.958c-2.852.36-4.636 1.497-4.636 1.497s-.364-2.276-1.292-4.85c-.922-2.575-3.321-5.092-5.843-2.456-2.523 2.634 4.03 9.462 4.03 9.462s-1.908 3.025-.155 5.66"/></g><g><path fill="#9a7344" d="M102.649 73.544C101.278 76.52 97 76.584 97 76.584s2.583.416 3.922 1.054c1.338.597 1.912 1.362 1.912 1.362-.834-1.24-1.611-1.827-1.611-1.827s2.139-.869 2.633-4.094c.494-3.226-.439-6.079-.439-6.079s.583 3.567-.768 6.544"/></g><g><path fill="#9a7344" d="M87.349 74.173c.847 2.109 1.826 2.595 2.404 2.678l.371.004L94 77s-3.59-1-5.352-3.548c-1.764-2.539.155-5.452.155-5.452S86 70.942 87.349 74.173"/></g><g><path fill="#9a7344" d="M104.199 82.061s.801 3.797-.199 6.404C103 91.073 98 92 98 92s3-.487 5.835-.157c2.165-1.637 2.417-4.131 1.947-6.843a9.798 9.798 0 0 0-.782-2.462c1 .002 3.052-.105 3.707-.969.137-.18.23-.373.293-.569-.06 0-1.492 1-2.809 1.12-1.346.144-1.992-.059-1.992-.059"/></g><g><path fill="#9a7344" d="M84.15 85.674c-.63-3.073 1.68-5.356 1.68-5.356s-2.94-1.064-3.99-2.465c-.614-.853-.149-1.462.343-1.853-1.183.597-1.849 2.108-.097 3.284 1.234.828 2.19 1.158 2.914 1.262-.546.594-1 1.273-1.48 2.055-1.607 2.796-1.337 5.8 1.1 7.993L88 91s-3.22-2.253-3.85-5.325"/></g><g><path fill="#9a7344" d="M102 95c-2.113-.73-4.61-2.398-4.61-2.398s-3.58.249-5.115-.071C90.741 92.21 90 92 90 92s-2.78 1.808-6.45 2c-3.312.146-3.55-.936-3.55-1.148 0 1.885 2.312 2.441 6.258 1.737 2.63-.47 3.742-.94 4.154-1.348 1.284.32 2.745.496 4.39.496.73 0 1.415-.026 2.057-.075.353.453 1.393 1.037 4.141 1.764 3.087.832 5.225.77 6-.252 0 0-2.901.515-5-.174"/></g><g><path fill="#f2ebc9" d="M99 74.257c-.115 1.651-1.768 2.874-3.698 2.743-1.93-.154-3.406-1.608-3.302-3.258.114-1.651 1.767-2.873 3.697-2.742 1.93.153 3.406 1.606 3.303 3.257"/></g><g><path fill="#e3b0ab" d="M102.053 65.177s2.947-4.53 4.519-5.65c1.558-1.118 3.334-.447 1.9 1.903-1.472 2.348-4.3 4.445-5.329 4.57-1.028.1-1.266-.56-1.09-.823"/></g><g><path fill="#e3b0ab" d="M91 66.347s-1.857-5.06-3.2-6.489c-1.344-1.428-3.451-1.157-2.606 1.444.806 2.603 3.306 5.269 4.378 5.6 1.072.332 1.522-.26 1.428-.555"/></g><g><path fill="#352e2c" d="M101 71.5a.5.5 0 1 1 1 0 .5.5 0 0 1-1 0"/></g><g><path fill="#352e2c" d="M90 70.5a.5.5 0 1 1 1 0 .5.5 0 0 1-1 0"/></g><g><path fill="#352e2c" d="M94.179 72h1.486c1.028.107 1.393.24 1.335.405-.072.165-1.57.595-1.57.595s-2.033-.67-1.25-1"/></g><g><path fill="#352e2c" d="M94.252 74.365s.562.374.646.359c.102-.014.632-.444.632-.444L95.6 72h.324l-.149 2.294.613.43.407-.23s.205.043.205.144c-.064.1-.514.362-.654.362s-.72-.404-.72-.404-.573.404-.812.404c-.24 0-.73-.362-.814-.506-.057-.143.167-.184.252-.129"/></g><g><path fill="#eab064" d="M100 85a6 6 0 1 1-12 0 6 6 0 0 1 12 0"/></g><g><path fill="#edbb8b" d="M107.18 89.717s.902-1.177.82-3.55c-.094-2.374-1.238-3.813-2.167-4.028-.927-.216-4.628-.342-5.514.861-.885 1.281.351 1.527.351 1.527s-.55.682-.452 1.376c.099.695.922 1.042.922 1.042s-1.14.756-.8 1.323c.336.569 1.326.91 1.326.91s-.578.55-.106 1.12c.44.57 3.177 1.485 5.62-.58"/></g><g><path fill="#edbb8b" d="M55.802 70s5.936 14.575 12.795 14.095c6.858-.48 11.68-5.314 11.68-5.314s.825-3.945 3.331-5.084c2.507-1.14 3.67 0 3.67 0s1.855.915 2.066 1.374c.211.46.182.929.182.929s1.718.923 1.998 1.537c.278.613.415 1.463.415 1.463s.57 2.36-1.78 3.655c-2.35 1.345-5.579 2.222-5.83 2.647-.25.424-7.966 11.18-23.148 8.166C46 90.453 46 75.948 46 75.948L55.802 70"/></g><g><path fill="#b7e0eb" d="M61 77.845S58 67.61 53.448 65.48c-4.523-2.13-10.393 3.103-9.32 10.62C45.204 83.617 47.194 86 47.194 86s4.678.105 10.178-2.667c5.5-2.77 4.57-4.48 4.57-4.48L61 77.844"/></g><g><path fill="#73b3c9" d="M61 78.431s-.246 2.23-6.06 4.569c-5.816 2.427-8.355 2-8.355 2L46 83.51s3.401.014 8.108-2.06C58.816 79.374 60.35 77 60.35 77L61 78.431"/></g><g><path fill="#73b3c9" d="M61 75.677s-2.131 1.873-6.756 3.528C49.62 80.86 46.364 81 46.364 81L46 79.453s3.943-.625 8.244-2.251c4.3-1.626 6.094-3.202 6.094-3.202L61 75.677"/></g><g><path fill="#73b3c9" d="M59 71.663s-1.344 2.082-6.4 3.57C47.544 76.722 45.22 77 45.22 77L45 74.885s3.108-.257 7.6-1.766C57.092 71.609 58.226 70 58.226 70L59 71.663"/></g><g><path fill="#73b3c9" d="M58 68.85s-2 1.605-7 2.95c-5 1.346-6 1.2-6 1.2l.553-2.366s1.84.09 5.947-1.148S56.803 67 56.803 67L58 68.85"/></g><g><g><path fill="#73b3c9" d="M54.77 65.94s-1.034.805-4.298 1.609c-3.264.803-4.472.524-4.472.524l1.364-1.525s1.813-.495 3.02-.608c1.208-.114 2.518-.94 2.518-.94s1.263.43 1.867.94"/></g><g><path fill="#e28e32" d="M47 133.779s1.523 1.717 1.68 1.908c.155.192 1.902 1.231 3.72 1.124 1.82-.106 5.424.78 7.6 1.087 2.13.309 3.557-.197 4.09-.201.534-.005.91-.697.757-1.336-.118-.643-.378-.868-.207-1.287.171-.418.465-1.008.36-1.495-.198-.487-3.317-.714-3.47-.662-.154.083-14.53.862-14.53.862"/></g></g><g><path fill="#f1aa48" d="M62.072 131.86c-.308-.061-4.504-1.247-5.418-1.35-.914-.104-1.911.202-3.987.026-2.075-.177-3.548-.817-4.088-.394-.579.424-.579.658-.67 1.194-.108.537-1.143 1.95-.909 2.273.331.322 1.48 1.243 2 1.453.517.21-.413.582 2.161.54 2.574-.043 4.839.721 6.384 1.065 1.587.333 1.864.427 3.509.224 1.644-.202 2.146.35 2.255-.319.109-.669-.013-1.125.039-1.51.05-.385.822-.63.652-1.467-.238-.838-.397-1.109-.89-1.314-.493-.205-1.038-.42-1.038-.42"/></g><g><path fill="#e28e32" d="M48.214 133c.313.116.589.302.924.333.286.025.53.06.862.133a9.325 9.325 0 0 0 1.776.31c1.16.088 2.353-.054 3.502.156 1.244.227 2.383.822 3.613 1.068.643.192 1.295.277 1.95.337.644.058 1.309-.092 1.94.039.374.078.219.624-.104.624-.329 0-.677-.067-.95-.139-.351-.08-.727-.112-1.062-.158a15.863 15.863 0 0 1-1.872-.334c-1.28-.31-2.511-.835-3.793-.965-1.264-.12-2.472.209-3.702.085-.57-.057-1.165-.16-1.708-.345-.26-.088-.436-.206-.65-.367-.263-.199-.594-.272-.864-.456-.157-.105-.076-.375.138-.321"/></g><g><path fill="#e28e32" d="M49.056 133.142c.27-.033.514.043.786.06.314.022.58-.027.883-.089.565-.113 1.089-.113 1.665-.113.61.075 1.094.227 1.61.328.649.106 1.257.18 1.858.283 1.142.2 2.31.389 3.46.648.596.114 1.18.273 1.792.305.56.03 1.14.02 1.699.007.191-.006.26.318.036.362-1.07.214-2.146-.134-3.186-.356-1.21-.259-2.393-.493-3.659-.642a40.127 40.127 0 0 0-1.722-.183c-.617-.052-1.225.017-1.842-.028a7.532 7.532 0 0 1-1.723-.31c-.276-.085-.5-.156-.796-.161-.296-.005-.576.063-.866.015-.051-.01-.051-.118.005-.126"/></g><g><path fill="#e28e32" d="M49.199 130c.606 0 1.212.166 1.801.278.63.117 1.253.245 1.88.357 1.266.227 2.541.365 3.82.519 1.247.128 2.485.287 3.728.439.572.072 1.162.082 1.746.22.568.136 1.277.257 1.728.64.236.2.004.547-.248.547-.292 0-.554-.103-.83-.185-.316-.094-.636-.179-.955-.265-.585-.157-1.152-.403-1.748-.55a60.222 60.222 0 0 0-3.819-.489c-1.223-.122-2.45-.181-3.674-.307a15.788 15.788 0 0 1-1.751-.254c-.608-.125-1.255-.261-1.787-.593-.169-.106-.09-.357.109-.357"/></g></g></svg>