<svg xmlns="http://www.w3.org/2000/svg" width="127" height="154" viewBox="0 0 127 154"><g><g transform="rotate(94 70 131.5)"><path fill="#f5d1c3" d="M83.467 96.913c-1.02 6.882-3.003 13.584-4.143 20.446-1.14 6.863-1.4 14.08.958 20.641 1.718 4.768 4.718 8.94 7.254 13.376C90.669 157 93 163.187 93 169.609c0 6.391-2.539 13.055-7.63 16.896-5.055 3.815-12.094 4.413-18.03 2.252-5.935-2.161-10.782-6.825-13.981-12.323-3.2-5.497-4.857-11.793-5.686-18.116-1.584-12.074-.25-24.41 2.718-36.214C53.358 110.299 57.93 99 62.882 87.867c2.212-4.961 7.118-13.15 13.766-10.268 7.208 3.122 7.8 12.697 6.819 19.314"/></g><g><g><path fill="#dea173" d="M48.804 83.29S46 87.111 47.42 91.103c1.466 3.994 7.026 5.675 9.937 1.353C60.267 88.133 64 78.135 64 78.135L53.165 75l-4.36 8.29"/></g><g><path fill="#f3f1ed" d="M69 131c-30.376 0-55-3.91-55-8.733 0-2.459 6.4-4.68 16.697-6.267.354 1.482.784 2.463 1.303 2.488.065.004.17.006.29.006.898 0 2.71-.105 3.656-.163.294.287.542.48.7.526.59.143 32.947.639 33.303.644 1.423.499 2.904.882 4.411 1.155 1.133.234 2.357.435 3.515.52.691.051 1.372.072 2.02.072 2.725 0 4.888-.363 4.939-.372.011.01 5.587 4.706 6.57 5.302 1.596 1.03 4.712 2.476 5.198 2.476a.118.118 0 0 0 .038-.005.99.99 0 0 1 .272-.045c.088 0 .088.015.155.03l.032.02s-.01-.01-.032-.02c-.067-.021-.067-.057-.148-.107.217.041.44.133.678.224l.148.055c.9.517 2.034.583 2.62.583.1 0 .184-.002.249-.004l.127-.004h.024c1.31 0 5.676-2.135 8.15-5.72.085-.102.136-.204.198-.306.123-.194.224-.355.283-.528l-.002.002a5.509 5.509 0 0 0 .484-1.671l.046-.306-.017.021a6.498 6.498 0 0 0-.038-1.316c.034.033.055.07.055.07l-.17-.734c-.215-.991-.608-1.893-1.007-2.663 9.45 1.57 15.253 3.695 15.253 6.037C124 127.09 99.376 131 69 131"/></g><g><path fill="#edbb8b" d="M57.837 109.23c.594 4.162-2.462 6.512-10.632 7.452-8.205.94-12.82 1.477-13.817 1.318-.997-.243-1.462-.848-1.595-2-.133-1.063.532-1.702 0-2.709-.532-1.006-1.262-1.476-1.295-2.82-.033-1.342.005-4.123-.498-4.14.1-.044.216-.018.339.045.532.27 2.097 3.972 2.295 3.77.2-.2 9.987-7.146 11.78-7.429 1.795-.268 3.012-.806 3.012-.806s12.963-7.273 15.411-4.117c.382.49.774 1.354 1.163 2.46-3.248.147-6.163.315-6.163.315s-.592 4.499 0 8.66"/></g><g><path fill="#edbb8b" d="M36.701 118.417s-3.552.249-4.473.2c-.92-.047-1.6-3.54-1.994-7.415-.302-2.968-.322-5.01 0-5.202.498.064.46 2.831.493 4.167.033 1.336.756 1.833 1.273 2.833.535 1-.123 1.61 0 2.711.14 1.103.6 1.705 1.587 1.905.987.2 5.588-.334 13.675-1.27 8.086-.935 11.11-3.273 10.523-7.415-.586-4.14 0-8.617 0-8.617s2.885-.167 6.1-.314C66 106 68 119 68 119l-31.299-.583"/></g><g><path fill="#e4a06c" d="M32.476 119h-.296c-.9-.056-1.565-3.666-1.95-7.671-.15-1.558-.23-2.87-.23-3.803 0-.904.074-1.453.23-1.526.486 0 .45 2.877.481 4.258.032 1.382.74 1.865 1.289 2.9.116.304.168.575.168.842.002.538-.22 1-.22 1.681 0 .099.052.202.052.319.094 1.13.544 1.751 1.51 2h1.775c.25.288.496.587.715.826-.9.061-2.659.174-3.524.174"/></g><g><path fill="#edbb8b" d="M106 114c0 1.718-.084 3.611-.415 5.665-.986 6.118-4.01 8.434-6.585 9.335l6-10s.778-2.743 1-5"/></g><g><path fill="#edbb8b" d="M99.907 115.58c-1.907 2.81-2.231 4.082-4.123 5.817-1.892 1.734-2.973 2.368-3.379 2.603-.405.204-4.279-1.905-6.892-6.294-2.055-3.453-1.513-5.577-1.207-6.325.753-1.52 1.808-3.649 3.694-5.236 8.633-7.145 13.365-2.926 13.365-2.926 2.132.901 4.025 3.846 4.635 8.4-.867-1.619-4.225 1.154-6.093 3.962"/></g><g><path fill="#edbb8b" d="M84.58 120.756s-3.162-4.308-.58-9.514c-.28.758-.81 2.834 1.251 6.241 2.622 4.33 6.509 6.411 6.915 6.195.407-.217 1.491-.842 3.39-2.553 1.897-1.712 2.261-2.968 4.136-5.739 1.873-2.77 5.243-5.517 6.113-3.909.104.778.195 1.603.195 2.523-.216 2.196-1 4.937-1 4.937l-6.08 9.935c-.762.262-1.344.07-1.849-.12-.349-.132-.662-.264-.973-.247-2.305.13-11.517-7.749-11.517-7.749"/></g><g><path fill="#e4a06c" d="M97.634 129c-.05 0-.098 0-.146-.056a5.335 5.335 0 0 0-.672-.231c-.872-.713-4.414-4.027 1.677-9.31C99.807 118.264 101 117.497 102 117c-.726 1.128-1.266 2.23-1.392 2.794-.17.769-2.55 2.866-3.677 4.995a2.956 2.956 0 0 0-.581 1.882c-.006.17.004.329.033.503.058.335.163.624.304.826.064.167.137.274.216.371.208.26.458.467.731.629"/></g><g><path fill="#db5d6b" d="M49.368 100S32.073 108.17 32 108.364c-.058.195.335 4.908 1.122 6.636.788 1.63 2.625 3.86 3.216 4 .591.213 33.263.691 33.263.691l14.493 1.091s5.17 4.307 6.484 5.372c1.312 1.066 5.319 2.949 5.676 2.846.357-.111.459 0 .459 0s-5.403-3.438 1.51-9.304C105.135 113.832 108 118 108 118s-.719-5.374-2.459-9.765c-1.74-4.391-2.749-5.036-2.749-5.036L49.368 100"/></g><g><path fill="#af7047" d="M58.94 34.844s-3.4 5.504-2.888 13.544c.511 8.04 4.282 10.824 4.282 10.824s-2.073-2.899-2.73-6.707c-.659-3.808.175-6.837.175-6.837s-1.092 5.699 1.447 10.515c2.539 4.817 7.103 9.159 12.895 9.303C77.913 65.63 89.928 67 89.928 67s6.753-3 9.254-7.457c2.5-4.464 3.388-6.865 3.388-6.865s-.843 3.445-2.238 6.322c-1.393 3-3.124 5.102-3.124 5.102s5.46-1.818 8.882-6.362c3.42-4.543 4.144-10.378 4.144-10.378s-1.448 6.744-2.234 8.886c-.792 2.142-1.384 3.339-1.384 3.339s4.737-.288 5.328-10.349c.593-10.06-3.75-18.238-3.75-18.238L58.94 34.844"/></g><g><path fill="#975833" d="M106.748 35.248s2.454 3.806 3.111 8.752c.658 4.896-1.201 10-1.201 10s.873-6.286.342-9c-.521-2.647-2.252-4.397-2.252-4.397s.647 6.544-1.506 12.308C103.089 58.677 98.159 63 98.159 63s3.6-6.854 3.747-10.866l.146-4.011S99 56.604 94.478 61.269C89.942 65.933 87.688 67 87.688 67s4.095-3.334 5.475-5.601c1.38-2.269 2.091-6.196 2.091-6.196s-2.907 6.237-5.97 8.527C86.224 66 84 66.71 84 66.71s3-2.137 4-4.146c1.088-2.008 1.57-3.937 1.57-3.937s-3.436 5.557-5.279 6.528c-1.842.973-11.11 1.232-11.11 1.232s-1.24.613-3.678-2.333c-2.436-2.98-2.984-6.154-2.984-6.154s-1.208 1.036 0 3.693c1.206 2.655 2.237 3.827 2.237 3.827s-2.926-1.625-5.003-5.835c-2.076-4.211-2.405-6.025-2.405-6.025L59 45.689s-1.128 2.927-.576 6.996c.576 4.07 1.988 6.385 1.988 6.385s-5.177-5.867-2.777-14.839C60 35.259 61 35 61 35l45.748.248"/></g><g><path fill="#edbb8b" d="M84.052 58s-.29 5.3 1.426 6.505c1.718 1.207 8.122 5.026 10.961 11.056 2.839 6.031 3.39 15.88 3.39 20.526 0 4.645 2.068 12.685-8.166 17.688-10.234 5.004-24.583.983-29.513-6.253-4.93-7.236.088-18.136.616-20.458.529-2.323-.264-7.148.969-11.793C65 70.625 71 65.89 72 63.835c1-2.054 1.418-5.181 1.418-5.181L84.052 58"/></g><g><path fill="#be6d3d" d="M72 63l.42-1.855.03.007c-.122.569-.272 1.19-.45 1.848m12 0a15.01 15.01 0 0 1-.276-2h.106l.17 2"/></g><g><path fill="#df915c" d="M78.281 66H78c-4.55-.082-6-2.404-6-2.453.177-.49.326-.989.448-1.446 1.7.284 3.552.437 5.42.437.486 0 .979-.01 1.478-.03A28.128 28.128 0 0 0 83.694 62c.053.525.139 1.075.306 1.585v.284S82.72 66 78.281 66"/></g><g><path fill="#db5d6b" d="M99.193 93.127c.479-.313 1.115-.017 1.202.558.52 3.436 1.553 12.856-1.395 19.574-3.695 8.357-21.32 11.863-32.63 5.392-11.311-6.47-8.045-19.651-7.573-22.376.145-.836.291-1.528.424-2.087a.783.783 0 0 1 1.351-.355c1.515 1.678 5.76 4.167 17.582 3.79 13.205-.403 18.967-3.137 21.039-4.496"/></g><g><path fill="#ca485c" d="M37 119.372l33.16.628s4.275 1.51 7.84 1.787c3.662.277 7-.312 7-.312s5.553 4.91 6.521 5.525c.97.608 3.643 2 3.643 2s-7.221-6.822-8.094-11c-.871-4.133 5.93-10.744 9.47-12.56 3.565-1.815 5.46-1.44 5.46-1.44l-8-2-10.11 9-33.407-6.906s.126 4.044 2.306 6.335C55 112.721 55 115.72 49.345 117 43.717 118.186 37 119.372 37 119.372"/></g><g><path fill="#edbb8b" d="M60.123 38.42s-.023 2.58-.53 4.346c-.505 1.738-3.184 5.37-.218 10.494S69.821 62.41 79.571 62c9.75-.477 14.516-5.84 16.375-8.22 1.858-2.381 2.65-3.84 2.65-3.84s1.27 1.866 3.167 1.593c1.897-.274 5.517-2.012 6.536-6.533 1.018-4.483-1.883-5.155-2.75-5.606-.865-.452-1.454-.394-1.454-.394s8.415-9.49 3.201-21.55C102.081 5.39 84 1.24 70.706 8.798 57.38 16.353 58.392 27.054 59 30c.61 3 1.208 6.768 1.123 8.42"/></g><g><path fill="#df915c" d="M102.202 48c-.917 0-1.415-1.165-1.115-2.337.352-1.373 2.541-3.663 4.153-3.663.349 0 .67.107.94.355 1.519 1.388.462 2.92.462 2.92s.17-.878-.422-1.767c-.326-.508-.736-.6-1.038-.6-.247 0-.422.092-.422.092s.24.17.363.886c.155.718.178 1.67-1.546 3.388-.516.513-.984.726-1.375.726"/></g><g><path fill="#df915c" d="M75.379 44c-.135 0-.176-.126-.176-.126s.718-1.245-1.687-1.64a8.232 8.232 0 0 0-1.367-.13c-1.149 0-1.461.386-1.465.754-.003.38-.258.546-.413.546-.042 0-.077-.012-.097-.036-.174-.213-.32-.19.117-1.368.258-.644 1.276-1 2.353-1 .742 0 1.513.169 2.082.518 1.397.855 1.48 1.842 1.034 2.267-.174.165-.296.215-.381.215"/></g><g><path fill="#a53a3c" d="M73.112 49.934c2.092-.282 3.305-1.392 3.8-1.934a.386.386 0 0 0-.102-.57l-.007-.004a.41.41 0 0 0-.509.082c-.526.604-2.1 2.027-5.043 1.7-2.868-.316-3.379-2.134-3.467-2.88a.377.377 0 0 0-.377-.328.403.403 0 0 0-.407.416c.136.946.804 3.16 4.157 3.531.722.053 1.373.053 1.955-.013"/></g><g><path fill="#352b26" d="M65.06 34s1.38 0 1.71 2.066c.328 2.048.49 4.374-.825 4.845-1.315.47-2.571-.996-2.813-2.717-.242-1.722-.215-3.442.632-3.864.848-.422 1.295-.33 1.295-.33"/></g><g><path fill="#df915c" d="M91.908 36c-.023 0-.05 0-.079-.125 0 0-.829-3.106-2.292-3.797-1.418-.691-3.13-.614-3.369-.786-.24-.172-.3-1.051.344-1.292h.265c.941 0 3.299.798 4.306 2.205.996 1.391 1.01 3.795.825 3.795"/></g><g><path fill="#df915c" d="M62.096 32c-.096 0-.33-1.5.82-2.823C63.736 28.232 65 28 65.902 28c.486 0 .852.07.953.131.286.173.145 1.074-.29 1.173a.438.438 0 0 1-.103.01c-.133 0-.294-.046-.462-.093a3.629 3.629 0 0 0-.758-.093c-.352 0-.78.068-1.305.29-1.506.634-1.81 2.53-1.81 2.53-.007.052-.018.052-.031.052"/></g><g><path fill="#e99a77" d="M86.846 48h-.999C84 47.793 82.15 47.446 82 46.174 81.891 45.16 83.49 45 84.543 45h.661s4.128.108 4.716 1.478C90.41 47.621 88.564 48 86.846 48"/></g><g><path fill="#e99a77" d="M63.852 45c-.32 0-.641 0-.934-.066-1.41-.202-2.776-.581-2.918-1.833-.094-.933.94-1.101 1.718-1.101h.656s3.088.21 3.558 1.569c.372 1.077-.854 1.431-2.08 1.431"/></g><g><path fill="#756c65" d="M64.183 36c-.57 0-1.04-.228-1.183-.608-.128-.508.405-1.095 1.218-1.311.205-.081.408-.081.6-.081.569 0 1.039.228 1.182.609.129.507-.404 1.094-1.218 1.311-.205.08-.407.08-.6.08"/></g><g><path fill="#fffffe" d="M65 35.857A1.031 1.031 0 0 0 63.856 35 1.03 1.03 0 0 0 63 36.142a1.03 1.03 0 0 0 1.143.858c.546-.09.926-.596.857-1.143"/></g><g><path fill="#fffffe" d="M64.819 37.453a.32.32 0 0 0-.365-.272.322.322 0 1 0 .365.272"/></g><g><path fill="#352b26" d="M88.584 40.921s.884-1.921.075-3.768c-.811-1.82-3.776-1.699-4.442 1.92-.666 3.619.308 4.752 1.471 4.927 1.163.152 2.49-1.322 2.896-3.079"/></g><g><path fill="#756c65" d="M87.859 38c-.219 0-.453 0-.687-.106-.808-.247-1.316-.894-1.172-1.34.166-.352.607-.554 1.141-.554.219 0 .453 0 .687.106.808.246 1.317.894 1.172 1.34-.166.35-.607.554-1.141.554"/></g><g><path fill="#fffffe" d="M87 38.167A1.043 1.043 0 0 0 86.167 37a1.043 1.043 0 0 0-1.167.833c-.078.544.29 1.06.833 1.167A1.043 1.043 0 0 0 87 38.167"/></g><g><path fill="#fffffe" d="M85.818 39.554a.323.323 0 1 0-.638-.107.323.323 0 0 0 .638.107"/></g><g><path fill="#af7047" d="M59.69 21.264s-4.238-.147-3.63 7.427c.606 7.574 4.173 7.678 4.173 7.678s-2.99-7.952 6.998-12.703c9.99-4.75 17.038-3.363 17.038-3.363s-7.457-.736-13.033 2.126c-5.575 2.863-7.29 5.096-7.29 5.096s1.184.369 5.69-.152c4.506-.52 8.018-1.99 8.018-1.99s-2.732 1.514-6.201 2.077C68 28 67.23 28 67.23 28s6.26 3.082 13.09 1.781c6.83-1.302 11.444-4.398 11.444-4.398s-3.034 2.25-7.293 3.508c-4.26 1.259-5.258 1.267-5.258 1.267s6.73 1.596 12.19 1.206C96.864 31 98.706 31 98.706 31s-2.97 2.808-3.924 6.14c-.954 3.333-.347 8.363-.347 8.363S95.693 42 96.43 39.28c.737-2.674 2.276-4.186 2.276-4.186s-2.211 2.26-3.383 9.209C94.153 51.25 96.14 56 96.14 56s.094-3.579.68-6.506c.585-2.928 1.626-4.725 1.626-4.725S97.113 48.925 96.885 51c-.228 2.056-.163 4.284-.163 4.284s5.627-6.191 6.83-12.008C104.755 37.458 104.74 36 104.74 36S108.434 19.611 88 15.295C67.55 11 60.68 18.836 60.68 18.836l-.99 2.428"/></g><g><path fill="#975833" d="M63 17.865s4.623-1.672 11-1.933c6.346-.262 11.63 1.526 11.63 1.526s-4.231-.574-8.443-.265C73 17.503 68.457 19 68.457 19s6.36-1.436 12.543-1.268c6.277.168 10.64 2.864 10.64 2.864s-5.17-1.466-10.857-.866c-5.687.6-8.846 1.736-8.846 1.736s9.812-2.02 15.063-.781c5.19 1.237 6.15 1.988 6.15 1.988s-2.781 2.74-8.89 4.685c-6.107 1.945-10.105 2.298-10.105 2.298s4.38.822 9.914-1.048c5.534-1.868 9.438-4.387 9.438-4.387s.562.707-1.123 2.387c-1.685 1.678-4.487 2.209-4.487 2.209s2.354 0 4.103-.663c1.682-.663 2.604-1.154 3-.752.306.355 1.066 2.44 1.066 2.44s-3.744.831-6.244.831c-2.5 0-7.067-.11-7.067-.11s5.525.709 11.363.321c5.882-.388 5.882-.653 5.882-.653l-8-12.5L81.881 14h-13.38C68.348 14 63 17.865 63 17.865"/></g><g><path fill="#975833" d="M98.487 32s-1.96 2.334-3.093 6.467C94.262 42.6 94 46.6 94 46.6s1-5.6 2.243-8.136c1.197-2.546 4.9-5.994 4.9-5.994S98 38 97.397 39.934c-.566 1.91-.696 2.793-.696 2.793s1.22-3.727 2.395-5.904c1.176-2.134 2.308-3.413 2.788-3.111.479.288.87 2.71 0 4.088-.884 1.378-3.222 3.484-4.307 8.624-1.085 5.14-.92 6.576-.92 6.576s.413-4.445 2.798-9c2.385-4.51 3.545-5.194 3.545-5.194s-.463 2.905-1.378 5.306c-.915 2.4-1.916 4.088-1.916 4.088s3.527-4.61 4.181-9.427C104.54 34 102.145 31 102.145 31l-3.658 1"/></g><g><path fill="#af7047" d="M101.874 8.944s.362-3.63-2.247-5.314C97 1.944 95.571 2.203 95.571 2.203s2.24.797 2.834 1.2C99 3.823 99 4.528 99 4.528s-.483-1.384-3.429-2c-2.946-.616-5.291-2.902-14.893-.339-9.6 2.564-11.01 4.896-12.86 5.2C66 7.69 65 5.617 65 5.617s0 1.944 1.57 2.722c1.6.778 2.614.864 2.614.864s16.405 1.102 24.2 5.38c7.796 4.278 14.927 17.948 14.927 17.948s-.163 1.073.78 1.901c.909.829 1.734.504 1.734.504s-1.752-.793-1.734-2.405c.016-1.613 4.047-2.456 2.593-12.244-1.453-9.787-9.81-11.344-9.81-11.344"/></g><g><path fill="#975833" d="M107 13s3.147 2.553 3.893 8.37c.744 5.817-2.626 9.63-2.626 9.63l-1.042-1.293s.613-6.528 0-8.111C106.612 20 106 19.204 106 19.204s2.518 3.296 2.5 4.137c-.019.84-.141 3.78-.172 4.04-.03.258 1.225-3.381.766-6.173C108.634 18.461 107 16 107 16s2.401 2 2.922 6c.52 4-1.422 7.19-1.422 7.19s2.572-3.815 2.034-7.659C110 17.687 107 13 107 13"/></g><g><path fill="#e9a0a3" d="M104.772 39s-1.848-11.257-13.576-19.745c-11.728-8.487-29.044-1.48-30.618 1.067-1.578 2.547-2.123-1.72-.941-2.504L60.818 17s-.196-.836.526-1.902c.723-1.098 1.87-1.653 2.018-1.719.149-.065 1.79-1.567 2.841-2.655C67.255 9.635 68.7 9.635 68.7 9.635s-.346-1.01 1.84-1.331c2.188-.304 18.059-2.25 29.867 9.922s8.087 16.09 7.868 16.307c-.219.217-.57.348-.57.348s.176.783-.306 1.502c-.481.718-.766.74-.766.74s.153.391 0 .5c-.153.11-.525.153-.525.218s.021 1.383-1.335 1.159"/></g><g><path fill="#d67983" d="M73.745 8s.255.577 0 .89C73.5 9.2 69.11 10 69.11 10h3.945l-1.285 1s1.15.463 1.052.817C72.726 12.171 68 13.48 68 13.48s4.086-.296 4.347 0c.261.296-1.596.222-4.121.802C65.698 14.862 61 17 61 17s4.322-1.649 7.27-2.317c2.947-.683 3.73-.556 4.077-.145.333.462-.97 1.396-.97 1.396l2.055-.33L75 8h-1.255"/></g><g><path fill="#d67983" d="M87.136 17.306c-.053-.023-1.214-.657-1.382-.81-.165-.153 1.334-.198 2.083 0 .75.199 2.914 1.435 3.53 2.26.633.823.243.775-.5.458-.74-.318-1.747-.916-1.747-.916L93 21l-1-3.359L87.681 15 84 16.215l3.136 1.091"/></g><g><path fill="#d67983" d="M103.325 36.165s-1.61-4.032-1.976-4.605C101 31 101 30.246 101 30.246L105.734 27l1.541 1 .725 1.848s-.518-.647-.765-.93c-.235-.284-.627-.088-.56.082.067.266.784 3.207.784 3.207s-.829-2.592-1.008-2.767c-.18-.174-.65.175-.583.348.068.212.296.83.296.83s-.274-.618-.565-.618c-.291 0-.918.05-.694.638.224.589 1.03 2.571 1.095 2.877.16.304.361.936.361.936s-.784-1.96-1.21-2.451c-.426-.468-.874-1.296-.919-.752-.044.545.493 2.31.768 3.029.308.723.51 1.612.51 1.612s-.628-1.677-.852-2.005c-.224-.326-1.344-1.633-.74-.413.606 1.22 1.166 3.529 1.166 3.529s-1.636-4.654-2.196-5.148c-.56-.494-.785.029-.404.878.382.85.84 3.435.84 3.435"/></g><g><path fill="#975833" d="M102 8.372s.064-1.617-.528-2.663c-.592-1.046-.953-1.268-.953-1.268s.659 1.559.74 2.124c.082.539 0 1.68 0 1.68s-.05-2.363-2.581-4.13C96.147 2.35 91.808 2 91.808 2s5.49.793 6.87 2.632c1.38 1.838.493 4.976.493 4.976s.164-.697-.723-1.608c-.888-.928-1.677-1.087-1.677-1.087s1.414.888 1.545 1.522c.132.634.066 1.713.066 1.713S97 7.8 94.7 6.913C92.4 6 90.46 5.93 90.46 5.93s3.386 1.426 4.405 2.377c1.018.95 1.365 2.608 1.365 2.608s-1.23-.77-2.697-1.276C92.07 9.133 91.446 9 91.446 9s1.94 1.052 2.432 1.496c.494.443.92 1.299.92 1.299L90.23 9 90 10.496 95.226 13 102 8.689v-.317"/></g><g><path fill="#e9a0a3" d="M95.784 14.36s.486-.697 0-1.22c-.485-.524-4.013-3.49-4.724-3.14-.712.418-3.463 3.348-3.01 4.36.453 1.012 3.592 3.838 4.693 3.64 1.1-.22 3.041-3.64 3.041-3.64"/></g><g><path fill="#e9a0a3" d="M91 11.242s-.848-4.085-4.375-7.475C83.098.377 80.73-.883 78.767.638c-1.964 1.521-2.5 2.216-2.367 3.043.135.825.14.825-.018 1.319-.16.55-2.75 3.463-3.821 5.657-1.072 2.193-.491 4.193.76 4.801 1.25.609 8.884.696 12.366.305 3.482-.391 4.777-1.695 4.777-1.695L91 11.242"/></g><g><path fill="#e9a0a3" d="M95.588 14s5.264.612 9.601 2.933c4.337 2.32 6.26 6.829 5.723 8.449-.536 1.618-2.325 1.4-2.682 1.75-.358.35-.046 1.489-1.163 1.97-1.118.481-2.067.569-2.28.898-.179.371-1.787.94-1.787 1.073-.136.13-1.611 1.838-3.131 1.927-1.52.085-3.13-2.41-4.65-6C93.699 23.5 92 17.896 92 17.896L95.588 14"/></g><g><path fill="#d67983" d="M91 10.374s-1.267.626-2.185 1.949c-.92 1.287-.345 2.332-.345 2.332L87.157 15s-.062-.776 0-1.136c.061-.359-4.706-.939-6.062-1.176-1.355-.24 5.776.047 6.648 0 .872-.049-3.743-.957-4.417-1.38-.656-.422 4.114.618 4.942.634.828.058-7.085-4.054-8.178-4.856C79 6.282 88.268 11.41 89 11c.667-.325-2-1.465-3.094-2.901-1.137-1.436 1.312-.043 2.8 1.098 1.486 1.14 2.492 2.027 1.662.676-.831-1.352.632.5.632.5"/></g><g><path fill="#d67983" d="M95.378 13s.704.31-.67 2.301C93.332 17.294 92 17.786 92 17.786l.697 2.267s-.102-1.282.1-1.488c.203-.206 2.57 3.69 3.375 4.375.828.686-2.28-4.717-2.37-4.94-.09-.283 1.34.908 2.504 1.458 1.163.542-1.699-1.74-1.967-2.107-.269-.351 6.796 4.26 7.6 4.649.804.435-6.662-5.29-6.939-5.611-.259-.32 1.351.138 2.781.275 1.431.138-.402-.92-1.296-1.124-.894-.204-1.654-1.304.312-.891 1.968.412 6.081 1.6 4.874.891-1.207-.709-4.38-1.304-4.962-1.486-.582-.184-.512-.928-.512-.928L95.378 13"/></g><g><path fill="#b74f5f" d="M88 15.167S84.521 16 81.29 16c-3.23 0-7.34-.135-7.896-.638-.555-.503-.933-1.218 1.822-1.362 2.784-.12 12.71.834 12.71.834l.074.333"/></g><g><path fill="#b74f5f" d="M93 18.128s2 6.389 3.16 8.936c1.198 2.548 2.491 4.53 3.367 4.878.875.348.473-.85-.887-4.094C97.243 24.604 93.221 18 93.221 18l-.221.128"/></g><g><path fill="#975833" d="M62 23s-3.944 2.28-4.885 6c-.94 3.71 1.613 7 1.613 7S50.788 30.21 62 23"/></g><g><path fill="#f9e9e8" d="M105.253 102.37c-1.158-.559-2.16-1.723-2.16-1.723s1.458-.815.709-2.133c-.75-1.32-1.954-2.514-1.954-2.514l-2.239-13.88a20.19 20.19 0 0 1-.435-1.672c-.018-.088-.038-.173-.057-.26a14.72 14.72 0 0 1-.634-1.608c-.148-.447-.27-.9-.39-1.355-.393-.757-.806-1.504-1.18-2.225a56.924 56.924 0 0 1-.997-2.312c-1.37-1.964-2.306-4.18-3.328-6.348-.523-.738-.458-.49-.86-1.34-2.067.795-4.633.28-6.191.192 0 0 .976 5.405-7.015 5.757-7.993.352-7.223-5.363-7.223-5.363L68.717 64c-.33.592-.717 1.182-1.02 1.771-.977 1.641-1.959 3.288-2.753 5.028-.662 1.764-1.118 3.61-1.753 5.383-.261.726-.538 1.468-.852 2.197l.06.044S59.788 92.543 59 93.286c-.818.714-1.642-.18-2.208 1.14-.567 1.318 0 2.373 0 2.373s-.697-.527-1.61 0c-.913.527-4.826 2.11-5.087 2.814-.26.703-1.043 14.148 14.905 15.097 15.878.948 21.096-.395 24.356-4.537 3.261-4.173 7.506-7.356 12.492-5.815 4.986 1.54 4.563-1.429 3.405-1.988"/></g><g><path fill="#fffbfb" d="M98.52 80s.55 5.902-5.022 6.56c-5.572.658-6.803-4.409-6.803-4.409S86 87.838 78.4 87.857c-7.645.019-6.803-6.232-6.803-6.232S71 85.573 66.219 86c-4.794.363-4.829-4.58-4.829-4.58L61 83.409s-.158 3.678 4.442 4.007c4.558.33 5.832-3.092 5.832-3.092s-.369 4.869 8.012 4.677c8.38-.203 7.908-4.5 7.908-4.5s1.639 3.93 6.499 3.357C98.552 87.283 99 83 99 83l-.48-3"/></g><g><path fill="#fffbfb" d="M86.413 65.385s1.504 7.46-8.763 7.097C67.382 72.118 70.095 65 70.095 65l-1.499-1s-4.047 9.48 8.947 10c12.995.48 10.205-8.806 10.205-8.806l-1.335.191"/></g><g><path fill="#fffbfb" d="M95 82a1 1 0 1 0-2 0 1 1 0 0 0 2 0"/></g><g><path fill="#fffbfb" d="M80 84a1 1 0 1 0-2 0 1 1 0 0 0 2 0"/></g><g><path fill="#fffbfb" d="M66 83a1 1 0 1 0-2 0 1 1 0 0 0 2 0"/></g><g><path fill="#efd6d5" d="M77.183 103c-1.75 0-2.183-.191-2.183-.191s.148.005.417.005c1.348 0 5.731-.12 9.714-1.554 4.778-1.72 7.565-4.56 11.06-5.507 2.408-.652 4.169-.753 5.032-.753h.596l.181 1.098h-.103c-.738 0-5.264.072-7.697 1.806-2.654 1.893-8.361 4.475-13.294 4.905-1.644.191-2.848.191-3.723.191"/></g><g><path fill="#f2dfdd" d="M56 96.576a1.042 1.042 0 0 0-.498-.131c-.152 0-.32.035-.502.128 0-.021.208-.149.48-.149.15 0 .325.038.52.152"/></g><g><path fill="#efd6d5" d="M73.732 109c-1.936 0-4.2-.391-6.732-1.455-9.85-4.037-12-11.45-12-11.45v-.002c.188-.093.36-.093.513-.093.202 0 .375 0 .487.095.106.036.197.084.291.145 0 0 2.954 6.76 10.935 10.22A17.06 17.06 0 0 0 74 107.853c4.692 0 8-1.922 8-1.922S79.153 109 73.732 109"/></g><g><path fill="#f2dfdd" d="M58 93l1-1c-.2.425-.376.707-.51.79-.163.102-.327.21-.49.21"/></g><g><path fill="#efd6d5" d="M74 106s-3.554 0-7.174-2.484C63.208 101 58 93.134 58 93.126c.126-.049.253-.126.379-.237.103-.093.238-.41.394-.889 0 0 2.042 4.23 5.994 8.64C68.717 105 74 106 74 106"/></g><g><path fill="#efd6d5" d="M73.368 113c-4.146 0-10.286-.44-15.054-2.646-7.939-3.674-6.139-12.893-6.139-12.893l.942-.461s-.558 8.495 5.154 11.822C64 112.149 78 112.805 78 112.805s-1.874.195-4.632.195"/></g><g><path fill="#f2dfdd" d="M104 101c-.58-.469-1-1-1-1l1 1"/></g><g><path fill="#efd6d5" d="M78.093 111H78c.168 0 2 0 4.744-1.44 2.91-1.475 4.729-4.312 9.672-7.56 2.515-1.599 5.14-2 7.112-2 1.903 0 3.2.375 3.2.375s.534.625 1.272 1.144c-.062-.008-1.537-.209-3.469-.209-1.69 0-3.732.154-5.478.69-3.783 1.274-5.911 4.329-9.25 6.72-3.054 2.188-7.052 2.28-7.71 2.28"/></g><g><path fill="#edbb8b" d="M100.145 130H100c-.642 0-3.551 0-4-2.375-.423-2.625 3.917-6.177 4.145-7.217.229-1.039 1.855-3.926 3.485-5.408 1.598-1.403 2.37-1.288 3.255 0 .856 1.368 3.54 5.582 1.115 9.22-2.372 3.636-6.614 5.78-7.855 5.78"/></g><g><path fill="#ecbb90" d="M96 127.102c0-.928.381-1.625.831-2.102-.48.71-.831 1.424-.831 2.102m.791 1.898"/></g><g><path fill="#f2c8a1" d="M98.749 129c-.749 0-1.628-.186-2.162-.75-.083-.091-.16-.19-.23-.25-.094-.2-.172-.37-.229-.563-.128-.27-.128-.523-.128-.757 0-.561.26-1.152.617-1.74.383-.443.786-.658.786-.658S98.097 124 99 124c.677 0 1.475.161 2.18.727 1.638 1.273.455 3.427-.385 3.866-.369.192-1.188.407-2.046.407"/></g><g><path fill="#f2c8a1" d="M105.747 125h-.125c-.822-.12.378-1.3-.622-3.206-1.083-1.903-2.21-2.42-2.85-3.151-.64-.73.978-2.22.978-2.22.238-.293.514-.423.815-.423 1.479 0 3.508 3.15 3.963 5.372.523 2.545-1.276 3.628-2.16 3.628"/></g><g><path fill="#e4a06c" d="M106.887 118c-.135 0-.461-.372-.774-.727-.113-.184-.113-.273-.042-.273.08 0 .203.084.234.109.014.01.071.02.158.02.305 0 .968-.129 1.34-.78.48-.841.255-1.349.255-1.349l.942 1.649c-.051-.064-.172-.243-.342-.243a.269.269 0 0 0-.137.04c-.28.162-.78.554-1.17.91-.351.313-.351.644-.456.644h-.008"/></g><g><path fill="#e4a06c" d="M107.234 119c-.132 0-.16-.264-.234-.384-.053-.143.126-.157.126-.157s.874-.299 1.17-.655c.341-.356.278-.804.278-.804l.426 1.135c0-.032-.075-.135-.255-.26a.073.073 0 0 0-.037-.008c-.27 0-1.198.983-1.392 1.133h-.082"/></g><g><path fill="#e4bd9f" d="M109.62 120s-.03-.05-.078-.096a9.957 9.957 0 0 0-.162-.904l.24 1"/></g><g><path fill="#e4a06c" d="M108.18 121c-.087 0-.07-.305-.18-.506v-.14c.075 0 .112.01.15.02.037.01.077.02.11.02a.128.128 0 0 0 .031-.004c.11-.035.579-.243.984-.59s.553-.8.553-.8l.051.257c.05.264.121.533.121.805 0-.062-.053-.062-.084-.062h-.088c-.149 0-.432 0-.678.199-.312.208-.64.434-.859.711-.05.09-.084.09-.11.09"/></g><g><path fill="#e4bd9f" d="M109.468 121.724c.016-.14.03-.278.04-.417l.024-.03-.064.447"/></g><g><path fill="#e4a06c" d="M108.13 122c-.199 0-.13-.378-.13-.489 0-.026.065-.034.105-.034.046 0 .116.011.202.023.086.012.19.024.309.024.146 0 .315-.018.497-.079.504-.167.805-.382.887-.445v.247l-.093.244s-1.45.426-1.72.509h-.058"/></g><g><path fill="#e4bd9f" d="M109.3 123.885c.149-.255.281-.51.398-.768l.002-.002a4.792 4.792 0 0 1-.4.77"/></g><g><path fill="#e4a06c" d="M108 125s.125-.88.166-1.133c.04-.253.25-.115.43-.239.174-.117.404-.628.404-.628-.056.168-.12.335-.19.501-.306.68-.81 1.499-.81 1.499"/></g><g><path fill="#edbb8b" d="M109.658 88.5c-.969-5.86-3.473-11.5-3.473-11.5l-11.047 1.732S99 87.224 98.111 89c-.932 1.766-10.943-1.718-10.943-1.718l-.001-.022h-.1v5.279H83c.3.189.56.338.744.406.651.24 7.144 7.385 16.752 7.055 9.607-.353 10.13-5.64 9.162-11.5"/></g><g><path fill="#f9e9e8" d="M91.598 64.657s5.162-1.91 8.784.784C104 68.134 108 77.629 108 77.629s-1.484 2.23-7.532 2.8C94.42 81 93.321 81 93.321 81s-3.742-13-1.723-16.343"/></g><g><path fill="#f9e9e8" d="M68 63.474s-4.15-2.334-8.296-1.128C55.558 63.55 51 74.609 51 74.609s1.56 2.029 8.5 3.193c6.94 1.198 5.399-3.193 5.399-3.193L68 63.474"/></g><g><path fill="#e6caca" d="M96.665 81.276h-2.01S93.562 77.561 93 75.254c-.543-2.308-.774-5.254-.774-5.254s.016 3.791 0 5.254a13.093 13.093 0 0 0 .323 2.851L91 76.42l1.825 2.749 1.007 4.548 2.833.083L99 88s-.936-3.8-2.335-6.724"/></g><g><path fill="#e6caca" d="M62.264 78.776h1.111L65.698 70l-1.004 5 1.753-1.272-1.753 2.65-.488 3.349L73 81l-11-.802.264-1.422"/></g><g><path fill="#b4b4b0" d="M79.393 83.164L76.843 83l.534 2.472-1.1.528-.627-2.886-.65-.969L76 81l.855.667 3.145.02-.607 1.478"/></g><g><path fill="#69a4cd" d="M81.908 87.106c-1.722-1.29-2.403-3.502-1.524-4.942.88-1.44 2.988-1.56 4.709-.27 1.72 1.29 2.402 3.502 1.523 4.942-.88 1.44-2.988 1.56-4.708.27zM85.515 86c.568-.92.127-2.35-.986-3.185-1.112-.815-2.475-.756-3.043.185-.57.92-.128 2.35.984 3.185 1.112.815 2.475.756 3.045-.185z"/></g><g><path fill="#69a4cd" d="M76 91.162c-1.371-1.701-1.31-3.824.095-4.741 1.404-.918 3.62-.283 4.905 1.417 1.37 1.7 1.31 3.824-.095 4.742-1.403.917-3.62.283-4.905-1.418zm4.055.33c.945-.594.945-1.967.088-3.066-.857-1.1-2.29-1.51-3.198-.917-.945.593-.945 1.965-.089 3.065.859 1.1 2.291 1.51 3.199.917z"/></g><g><path fill="#4f5353" d="M74.93 82L63 79.465V79l13 1.909L74.93 82"/></g><g><path fill="#4f5353" d="M76 81.726L71.52 70H71l3.943 13L76 81.726"/></g><g><path fill="#7d807e" d="M76.828 82.122c-.209-.18-.525-.122-.706.051-.18.209-.122.525.05.705.21.18.525.122.706-.05.18-.209.122-.525-.05-.706"/></g><g><path fill="#edbb8b" d="M89 88.183s-1.192-1.346-2.417-2.569c-1.226-1.222-2.768-1.74-3.836-1.614-1.067.178-1.402.442-1.273.718.129.282 1.725 1.761 1.36 2.17-.363.408-3.714-.157-5.193.728-1.478.885.063 2.294.063 2.294s-.28.438-.163 1.323c.118.886 1.99.953 1.99.953s-.249.196.469.891c.625.696 2.075.128 2.075.128l6.757.795.168-5.817"/></g><g><path fill="#f5c330" d="M35 140.45L26.646 150 2 144.388 13.68 136 35 140.45"/></g><g><path fill="#b5d047" d="M57 130.222L63.818 148 93 146.28 80.191 130 57 130.222"/></g><g><path fill="#f5c330" d="M53 139.39L39 150l2.399-16L53 139.39"/></g><g><path fill="#da3435" d="M31 133.425l-6.575-.188 1.437-4.185-7.076.71.118-4.108-6.965-.2L14 123l-14 5.31 5.672 1.076-.557 4.095 6.587.19-.278 4.104 7.145-.51s-.86 5.735-.166 5.735c.695 0 12.597-9.575 12.597-9.575"/></g><g><path fill="#f5c330" d="M98.477 132L77 133.658 87.154 144 110 141.649 98.477 132"/></g><g><path fill="#b5d047" d="M38 68.598L42.667 81l3.112-.359 1.135-3.119 3.71 2.331 1.768-2.33L56.703 81l2.18-4.263 3.894 2.499 1.89-3.137 4.333 2.7L65.126 65 38 68.598"/></g><g><path fill="#b5d047" d="M43.13 76L43 80.638s2.197 4.098 2.327 8.362c.13 4.295-2.327 13.155-2.327 13.155L67.674 107s1.807-5.121 2.201-10.252c.396-5.13-.277-14.861-.277-14.861l-3.506-3.263L63 81.316l-3.456-2.562L57 81.507l-4-2.577-1.944 1.708-3.403-1.884-2.326.774L43.13 76"/></g><g><path fill="#edbb8b" d="M43.339 83.208s-1.145.997-1.279 3.721c-.133 2.726-.255 7.41 2.093 7.98 2.349.57 4.258-1.535 3.77-6.059-.488-4.522-.863-6.537-4.584-5.642"/></g></g></g></svg>