<svg xmlns="http://www.w3.org/2000/svg" width="123" height="155" viewBox="0 0 123 155"><defs><clipPath id="jnpka"><path d="M68.882 62.805a14.252 14.252 0 0 0-.047-.805h-.015zm10.256 1.609L78.853 62c.065.638.147 1.568.285 2.414z"/></clipPath></defs><g><g transform="rotate(-78 67 129)"><path fill="#f5d1c3" d="M87 124.4c-2.547-3.6-5.53-6.7-8.488-9.939-4.46-4.882-5.894-9.876-5.77-16.461.166-8.82.887-19.657-7.742-25-8.48-5.294-17 1-23.107 6.881-.62.602-.893 1.276-.955 1.942a4.408 4.408 0 0 0-.449.798c-1.201 2.906 1.132 6.79 1.69 9.62 1.114 5.655 1.196 11.457 1.088 17.202-.207 10.972-.945 21.9.18 32.852C45 157.545 50 181.864 69.647 181c15.414-.717 26.147-16.137 26.199-30.703.033-9.297-3.57-18.37-8.846-25.897"/></g><g><path fill="#b3292b" d="M5.354 101.824H30.86a.595.595 0 0 0 .595-.595v-.294a.595.595 0 0 0-.595-.595H5.354a.579.579 0 0 0-.594.595v.294c0 .328.24.595.594.595"/></g><g><path fill="#b3292b" d="M5.41 93.089h25.515c.326 0 .59-.263.59-.59v-.29a.589.589 0 0 0-.59-.589H5.409a.589.589 0 0 0-.589.589v.29c0 .327.264.59.59.59"/></g><g><path fill="#db3739" d="M45.8 91.6H31.423c-.316 0-.573.322-.573.72v.762l14.883 3.628-14.883 3.627v.764c0 .398.257.72.573.72H45.8c1.05 0 1.901-1.07 1.901-2.39V94c0-1.331-.85-2.4-1.9-2.4"/></g><g><path fill="#dfdccd" d="M6 93.08s1.445 1.793 1.244 4.098C7 99.483 6 100.335 6 100.335h26.856c.776 0 1.404-.668 1.404-1.492v-4.268c0-.826-.628-1.495-1.404-1.495H6"/></g><g><path fill="#f7f4ec" d="M30.85 93.08s1.485 1.793 1.284 4.098c-.2 2.305-1.284 3.157-1.284 3.157H46c.752 0 1.38-.668 1.38-1.492v-4.268c0-.826-.628-1.495-1.38-1.495H30.85"/></g><g><path fill="#dfdccd" d="M31.79 96.545l8.587.17H31.59l.2-.17"/></g><g><path fill="#dfdccd" d="M31 94.531c.09 0 8.275.15 8.275.15L31 94.807v-.277"/></g><g><path fill="#dfdccd" d="M31.591 97h11.073l-11.334.135.261-.135"/></g><g><path fill="#dfdccd" d="M30.611 99.678H43l-12.49-.277.101.277"/></g><g><path fill="#c3bfb0" d="M31.689 94.531l-12.109.277h12.218l-.11-.277"/></g><g><path fill="#c3bfb0" d="M32.148 96.545l-7.498.085 7.502.085-.004-.17"/></g><g><path fill="#c3bfb0" d="M32.155 97L17 97.056l15.141.073.014-.129"/></g><g><path fill="#c3bfb0" d="M31.337 99.678H22.08l9.465-.277-.208.277"/></g><g><path fill="#c3bfb0" d="M7.09 95.396h16.281l-16.236.187-.045-.187"/></g><g><path fill="#c3bfb0" d="M7.225 97.337H25l-17.8.205.025-.205"/></g><g><path fill="#c3bfb0" d="M6.78 99.132h14.163L6.832 99l-.052.132"/></g><g><path fill="#dfdccd" d="M37.51 95.7h8.726v-.32l-8.726.32"/></g><g><path fill="#dfdccd" d="M33.45 99.256h12.788v-.192l-12.788.192"/></g><g><path fill="#dfdccd" d="M46.306 93.34s-.194.089-.426.348c.181.312.353.719.353 1.502v3.713s-.056.387-.292.696c.177.317.312.484.312.484l.374-.312c.373-.314.455-.868.455-.868V95.19c0-1.665-.776-1.85-.776-1.85"/></g><g><path fill="#b0ac9f" d="M46.24 95.192c0-.783-.172-1.192-.353-1.502-.35.389-.785 1.162-.777 2.597.01 1.566.5 2.713.838 3.314.236-.31.292-.696.292-.696v-3.713"/></g><g><path fill="#869c3d" d="M56.485 116.31H20.667a.536.536 0 0 1-.537-.537v-.265c0-.297.24-.508.537-.508h35.818c.297 0 .515.211.515.508v.265c0 .297-.218.537-.515.537"/></g><g><path fill="#869c3d" d="M56.41 108.419H20.582c-.294 0-.582-.24-.582-.534v-.262c0-.294.288-.533.582-.533H56.41c.294 0 .533.239.533.533v.262c0 .295-.24.534-.533.534"/></g><g><path fill="#b5d047" d="M2.726 107.07h17.44c.385 0 .696.291.696.65v.69l-18.056 3.279L20.862 115v.655c0 .345-.311.651-.695.651H2.727c-1.275 0-2.307-.967-2.307-2.159v-4.918c0-1.229 1.032-2.159 2.306-2.159"/></g><g><path fill="#f7f4ec" d="M55.56 108.41S53.759 110 54 112.112c.246 2.084 1.56 2.888 1.56 2.888H18.423c-.94 0-1.703-.637-1.703-1.382v-3.858c0-.76.763-1.35 1.703-1.35H55.56"/></g><g><path fill="#f7f4ec" d="M20.853 108.41s-1.802 1.59-1.559 3.702c.244 2.084 1.559 2.888 1.559 2.888H2.504c-.94 0-1.704-.637-1.704-1.382v-3.858c0-.76.763-1.35 1.704-1.35h18.349"/></g><g><path fill="#dfdccd" d="M19.716 111.543l-10.416.154H20l-.284-.154"/></g><g><path fill="#dfdccd" d="M20.74 109.724c-.17 0-10.1.135-10.1.135l10.1.141v-.276"/></g><g><path fill="#dfdccd" d="M20 111.922H6.52l13.75.155-.27-.155"/></g><g><path fill="#dfdccd" d="M21.148 114.375H6.06l15.21-.25-.122.25"/></g><g><path fill="#c3bfb0" d="M19.842 109.724L34.53 110H19.71l.132-.276"/></g><g><path fill="#c3bfb0" d="M19.285 111.543l9.095.077-9.1.077.005-.154"/></g><g><path fill="#c3bfb0" d="M19.28 111.928l18.443.072-18.426.071-.017-.143"/></g><g><path fill="#c3bfb0" d="M20.273 114.375h11.229L20 114.125l.273.25"/></g><g><path fill="#c3bfb0" d="M54.189 110.505H29.93l24.205.17.054-.17"/></g><g><path fill="#c3bfb0" d="M54 112.257H28l26.054.186-.054-.186"/></g><g><path fill="#c3bfb0" d="M54.57 113.876H32.88l21.628-.113.063.113"/></g><g><path fill="#dfdccd" d="M12.776 110.774H2.19v-.289l10.586.29"/></g><g><path fill="#dfdccd" d="M17.703 114H2.19v-.187l15.513.187"/></g><g><path fill="#dfdccd" d="M2.101 108.65s.236.08.518.35c-.22.203-.429.614-.429 1.322v3.355s.068.323.355.63a3.7 3.7 0 0 1-.379.438l-.454-.283c-.455-.283-.552-.785-.552-.785v-3.355c0-1.505.941-1.672.941-1.672"/></g><g><path fill="#b0ac9f" d="M2.19 110.318c0-.708.208-1.119.429-1.318.381.312.951 1 .942 2.308-.01 1.415-.561 2.45-1.016 2.995-.287-.303-.355-.63-.355-.63v-3.355"/></g><g><path fill="#37b29a" d="M47.242 107.08H27.884c-.146 0-.264-.08-.264-.265v-.13c0-.147.118-.265.264-.265h19.358c.146 0 .264.118.264.264v.131c0 .185-.118.264-.264.264"/></g><g><path fill="#37b29a" d="M47.175 102.476H27.81a.26.26 0 0 1-.261-.262v-.129a.26.26 0 0 1 .261-.261h19.364c.143 0 .26.117.26.261v.129a.261.261 0 0 1-.26.262"/></g><g><path fill="#62bdaf" d="M2.09 101.82h25.562c.348 0 .63.18.63.37l-.13.288-25.99 1.969 26.004 1.968.115.289c0 .203-.281.37-.629.37H2.09c-1.155 0-2.09-.55-2.09-1.23V103c0-.63.935-1.18 2.09-1.18"/></g><g><path fill="#f7f4ec" d="M46.182 102.48s-.97.972-.749 2.224c.22 1.296.75 1.713.75 1.713H26.075c-.853 0-11.306-.363-11.306-.81v-2.317c0-.448 10.453-.81 11.306-.81h20.106"/></g><g><path fill="#62bdaf" d="M28.278 102.25s-.749 1.145-.529 2.545c.251 1.399.53 1.862.53 1.862H1.892c-.893 0-1.543-.406-1.543-.908v-2.591c0-.501.65-.908 1.543-.908h26.385"/></g><g><path fill="#dfdccd" d="M28.213 103.265l12.607.15H28.1l.113-.15"/></g><g><path fill="#dfdccd" d="M27.734 104.353l7.806.046-7.81.047.004-.093"/></g><g><path fill="#dfdccd" d="M27.73 104.587l15.831.047-15.817.039-.014-.086"/></g><g><path fill="#dfdccd" d="M28.586 106.055h9.639l-9.855-.15.216.15"/></g><g><path fill="#dfdccd" d="M45.484 103.74H36.51l8.952.1.022-.1"/></g><g><path fill="#dfdccd" d="M45.449 104.784H34.74l10.737.111-.028-.11"/></g><g><path fill="#dfdccd" d="M45.76 105.785l-6.59-.024 6.55-.066.04.09"/></g><g><path fill="#b0ac9f" d="M28.72 102.62s.145.049.28.189c-.097.191-.225.391-.225.816v2.015s.042.209.225.36c-.139.19-.24.28-.24.28l-.279-.17c-.279-.17-.339-.47-.339-.47v-2.015c0-.904.578-1.005.578-1.005"/></g><g><path fill="#8d8a7e" d="M28.779 103.626c0-.425.128-.626.221-.816.303.19.627.631.621 1.41A2.907 2.907 0 0 1 29 106a.698.698 0 0 1-.221-.36v-2.014"/></g><g><path fill="#f0eb74" d="M27.126 102.1s-.701.717-.781 2.256c-.081 1.539.715 2.44.715 2.44H26s-.708-1.097-.668-2.385c.04-1.287.755-2.311.755-2.311h1.039"/></g><g><path fill="#f0eb74" d="M25.515 102.1s-.701.717-.781 2.256c-.08 1.539.714 2.44.714 2.44h-1.042s-.724-1.097-.684-2.385c.04-1.287.754-2.311.754-2.311h1.039"/></g><g><path fill="#f0eb74" d="M4.555 102.1s-.701.717-.781 2.256c-.08 1.539.715 2.44.715 2.44H3.446s-.724-1.097-.684-2.385c.04-1.287.755-2.311.755-2.311h1.038"/></g><g><path fill="#f0eb74" d="M2.945 102.1s-.702.717-.781 2.256c-.08 1.539.714 2.44.714 2.44H1.835s-.723-1.097-.683-2.385c.039-1.287.754-2.311.754-2.311h1.039"/></g><g><path fill="#f0eb74" d="M9.328 104.274l.128.016.158.005a.862.862 0 0 0 .333-.048l.171-.146.06-.215c0-.12-.05-.223-.178-.307-.068-.085-.21-.128-.399-.128a1 1 0 0 0-.273.034v.789m.794.082c.143.03.25.079.32.145a.455.455 0 0 1 .147.342c0 .102-.032.157-.097.293a.55.55 0 0 1-.266.204c-.112.043-.284.065-.516.065h-.97v-.056h.077l.183-.082V103.713v-.241l-.183-.066H8.74v-.056h.888c.166 0 .3.012.372.036.178.036.294.101.374.194a.469.469 0 0 1 .026.595.555.555 0 0 1-.278.18m-.794.9c.117.029.233.042.347.042.183 0 .325-.041.418-.123a.37.37 0 0 0 .144-.305l-.065-.231a.624.624 0 0 0-.172-.175 1.316 1.316 0 0 0-.404-.063l-.16.003-.108.01v.843"/></g><g><path fill="#f0eb74" d="M11.896 103.3c.267 0 .498.102.694.305.195.202.293.455.293.759 0 .31-.098.57-.295.777a.957.957 0 0 1-.716.31.948.948 0 0 1-.713-.302 1.252 1.252 0 0 1-.289-.782c0-.367.13-.592.333-.798a.988.988 0 0 1 .693-.269m-.029.112a.545.545 0 0 0-.442.203c-.139.171-.208.385-.208.747 0 .336.072.638.215.774a.532.532 0 0 0 .437.206.597.597 0 0 0 .478-.225c.126-.117.19-.388.19-.713 0-.352-.07-.614-.209-.787a.56.56 0 0 0-.46-.205"/></g><g><path fill="#f0eb74" d="M14.136 103.3c.267 0 .498.102.694.305.17.202.293.455.293.759 0 .31-.123.57-.295.777a.957.957 0 0 1-.716.31.949.949 0 0 1-.713-.302c-.193-.202-.289-.462-.289-.782 0-.367.111-.592.333-.798a.986.986 0 0 1 .693-.269m-.028.112a.546.546 0 0 0-.443.203c-.138.171-.208.385-.208.747 0 .336.072.638.215.774a.532.532 0 0 0 .437.206.596.596 0 0 0 .478-.225c.126-.117.19-.388.19-.713 0-.352-.07-.614-.208-.787a.562.562 0 0 0-.46-.205"/></g><g><path fill="#f0eb74" d="M16.176 104.265l.758.735c.124.143.23.228.318.273l.264.076v.056h-.978v-.056l.127-.03.038-.066-.014-.065-.095-.108-.709-.701V105c0 .145.006.214.02.247l.095.066.106.036h.07v.056H15.3v-.056h.072l.185-.074c.024-.032.036-.11.036-.275v-1.287a.72.72 0 0 0-.019-.208l-.062-.063-.14-.036H15.3v-.056h.876v.056h-.07l-.106.035-.097.072a.7.7 0 0 0-.018.2v.629c.02-.018.115-.083.208-.192.3-.275.481-.458.544-.55l.041-.106-.032-.062-.108-.026h-.047v-.056h.755v.056l-.12.018-.126.065-.203.153c-.022.02-.124.124-.307.358l-.314.265"/></g><g><path fill="#f0eb74" d="M4.77 105.946h18.328v-.293H4.77z"/></g><g><path fill="#f0eb74" d="M4.77 103.096h18.328v-.293H4.77z"/></g><g><path fill="#3c6fa4" d="M2.563 91.61h19.052l.103-.104v-.772l-.103-.104H2.563c-.217 0-.393.177-.393.37v.216c0 .217.176.393.393.393"/></g><g><path fill="#3c6fa4" d="M2.629 84.774h19.06l.1-.1v-.768l-.1-.1H2.628a.403.403 0 0 0-.389.388v.191c0 .215.174.39.389.39"/></g><g><path fill="#78a1c9" d="M46.816 83.8H21.688c-.341 0-.618.2-.618.55l.128.429 25.546 2.926-25.561 2.925-.113.43c0 .303.277.55.618.55h25.128c1.184 0 2.054-.818 2.054-1.825v-4.16c0-1.007-.87-1.825-2.054-1.825"/></g><g><path fill="#f7f4ec" d="M3.47 84.78s.954 1.446.737 3.304c-.207 1.86-.737 2.548-.737 2.548h19.765c.839 0 11.113-.54 11.113-1.205V86c0-.681-10.274-1.22-11.113-1.22H3.47"/></g><g><path fill="#78a1c9" d="M21.07 84.43s.737 1.7.52 3.78c-.217 2.08-.52 2.79-.52 2.79H47c.844 0 1.523-.625 1.523-1.37v-3.852c0-.778-.679-1.348-1.523-1.348H21.07"/></g><g><path fill="#dfdccd" d="M21.133 85.948l-12.393.223h12.505l-.112-.223"/></g><g><path fill="#dfdccd" d="M21.604 87.561l-7.674.068 7.678.07-.004-.138"/></g><g><path fill="#dfdccd" d="M21.612 87.906L6 88h15.598l.014-.094"/></g><g><path fill="#dfdccd" d="M20.775 90.092H11.3l9.7-.224-.225.224"/></g><g><path fill="#dfdccd" d="M4.16 86.645H13l-8.819.15-.021-.15"/></g><g><path fill="#dfdccd" d="M4.187 88.207h10.528l-10.555.166.027-.166"/></g><g><path fill="#dfdccd" d="M3.88 89.687l6.479-.035-6.439-.099-.04.134"/></g><g><path fill="#b0ac9f" d="M20.632 85s-.142.052-.312.261c.133.212.258.579.258 1.21v2.996s-.04.313-.213.533c.129.286.229.42.229.42l.274-.253c.274-.252.333-.7.333-.7v-2.995c0-1.343-.57-1.472-.57-1.472"/></g><g><path fill="#8d8a7e" d="M20.584 86.47c0-.631-.126-.998-.259-1.21-.256.314-.575.938-.569 2.095.007 1.264.366 2.187.614 2.645.173-.221.214-.534.214-.534V86.47"/></g><g><path fill="#f0eb74" d="M22.21 84.21s.69 1.065.79 3.353c.057 2.287-.724 3.627-.724 3.627h1.026S24 89.558 24 87.645a9.88 9.88 0 0 0-.768-3.435H22.21"/></g><g><path fill="#f0eb74" d="M23.79 84.21s.69 1.065.768 3.353c.078 2.287-.703 3.627-.703 3.627h1.026s.711-1.632.672-3.545a9.537 9.537 0 0 0-.742-3.435H23.79"/></g><g><path fill="#f0eb74" d="M44.39 84.21s.689 1.065.768 3.353c.08 2.287-.703 3.627-.703 3.627h1.026s.711-1.632.672-3.545c-.039-1.913-.742-3.435-.742-3.435H44.39"/></g><g><path fill="#f0eb74" d="M46 84.21s.66 1.065.738 3.353C46.818 89.85 46 91.19 46 91.19h1.061s.712-1.632.672-3.545A9.645 9.645 0 0 0 47 84.21h-1"/></g><g><path fill="#f0eb74" d="M26.16 89.927h18.017v-.435H26.16z"/></g><g><path fill="#f0eb74" d="M26.16 85.698h18.017v-.436H26.16z"/></g><g><path fill="#ccdcd3" d="M4.822 92.795v-.297c0 .326.264.589.589.589h-.213s-.015.002-.04.002c-.096 0-.336-.027-.336-.294zm.589.292zm1.652 2.224l.024.092.044.182c.109.489.163 1.029.113 1.6l-.006.064c0-.755-.057-1.388-.175-1.938zm-.838 4.754l-.225.277s.07-.094.225-.277zm-1.468.51s.045-.149.158-.199c.085-.03.275-.036.427-.036.1 0 .178.002.178.002h-.17a.58.58 0 0 0-.593.595v-.363zm.243 1.25l-.178-.11c-.05-.088-.065-.084-.065-.324v-.16c0 .317.243.576.56.594zm22.7.001h3.157a.51.51 0 0 0 .3-.082.48.48 0 0 0 .266.082h.012l.017.005h-3.647l-.024.001a1.097 1.097 0 0 0-.081-.006zM1.115 102c-.23 0-.435.133-.604.248.174-.124.382-.248.604-.248zm-.94.56zM0 105.903v-.053c0 .15.056.324.157.469C0 106.177 0 106 0 105.903zm.804.916c.125.057.261.106.408.181-.15-.072-.291-.12-.407-.181zm19.409.26h.115a.816.816 0 0 1 .097.032l-.02.007a.701.701 0 0 0-.192-.04zm-17.704 0a7.099 7.099 0 0 1-.398-.001h.517c-.295.011-.558.074-.826.18.25-.1.443-.15.707-.178zm-.707.178zm-.802.584c-.38.376-.585.863-.585 1.395 0 0-.04-.846.585-1.395zm.209 7.943c.267.216.588.378.942.462-.337-.067-.712-.246-.942-.462zm3.613-23.577v-.296s-.017-.122.089-.211c.089-.09.194-.09.194-.09h-2.45 28.677s-.026.006-.065.022a.471.471 0 0 0-.088.042.653.653 0 0 0-.252-.056H5.41a.589.589 0 0 0-.59.589m-1.988 24.106H2.78h17.381a.723.723 0 0 0 .272-.052c.011.006.022.01.034.015a.513.513 0 0 1-.195.037H2.877h-.044"/></g><g><path fill="#8d2526" d="M30.86 101.824h-3.157l-.047-.001H5.32a.59.59 0 0 1-.56-.594v-.294c0-.328.24-.595.594-.595h25.499v.794c0 .017 0 .332.147.478.062.052.109.096.161.13a.516.516 0 0 1-.301.082"/></g><g><path fill="#8d2526" d="M30.848 93.089H5.409a.589.589 0 0 1-.589-.59v-.29c0-.326.264-.589.59-.589h25.515c.075 0 .175.02.252.056a.247.247 0 0 0-.027.017c-.15.082-.288.237-.294.514a.942.942 0 0 0-.008.12v.762"/></g><g><path fill="#b72e2f" d="M30.85 92.323a.94.94 0 0 1 .008-.12v.002c-.008.483-.008.88-.008.88zm0 8.781v-.764l.001.793v.001l-.001-.03zm.302-9.415a.473.473 0 0 1 0 0m.283 10.135h-.012a.48.48 0 0 1-.265-.082c-.052-.034-.099-.078-.158-.13v.002c.167.126.374.192.435.21"/></g><g><path fill="#b0bcae" d="M30.85 100.335H6l.225-.277a4.28 4.28 0 0 0 .595-.93h14.12L6.876 99c.175-.4.316-.89.353-1.462L25 97.333H7.237l.001-.091.006-.064a5.24 5.24 0 0 0-.113-1.6l.001.005 16.236-.187H7.088l-.025-.092A5.142 5.142 0 0 0 6 93.08h24.85s.443.575.813 1.452l-.282.007-.381-.007v.016l-11.423.26h12.196c.227.51.342 1.102.374 1.73l-.224.003-.13-.003-.005.004-7.137.08 6.949.08-.007.006h.559l.001.067v.02l-.005.205H16.948l14.407.12-.023.015.783-.012h.024l-.005.055-.019.196a6.3 6.3 0 0 1-.662 2.026l-.356.01-.588-.012.01.03-8.444.246H31.3c-.246.418-.45.661-.45.661"/></g><g><path fill="#c2cfc4" d="M32.15 97h-.002l.005-.204c0 .057-.002.113-.004.204m-.034.374l.02-.196.004-.055h.001a6.545 6.545 0 0 1-.025.25"/></g><g><path fill="#b0bcae" d="M31.785 96.544l.005-.004.13.003-.135.001m.364.166h-.559l.007-.006.552.006"/></g><g><path fill="#b0bcae" d="M31 94.548v-.016l.385.007-.385.009"/></g><g><path fill="#b0bcae" d="M31.586 97h.561-.561m-.256.14l.023-.015.76.003-.783.012"/></g><g><path fill="#b0bcae" d="M30.517 99.435l-.011-.03.588.013-.577.017"/></g><g><path fill="#9aa595" d="M31.776 94.808H19.58l11.42-.26.384-.01.282-.007c.037.09.074.182.11.277"/></g><g><path fill="#9aa595" d="M32.15 96.715l-.551-.006-6.949-.08 7.137-.08.135-.001.224-.003.005.17"/></g><g><path fill="#9aa595" d="M32.141 97.129h-.024l-.76-.003L17 97.056 31.59 97h.561c-.002 0-.004 0-.007.089l-.003.04"/></g><g><path fill="#9aa595" d="M31.305 99.677H22.08l8.445-.247.577-.017.356-.01a5.944 5.944 0 0 1-.153.274"/></g><g><path fill="#9aa595" d="M7.135 95.583l-.001-.005-.044-.182h16.281l-16.236.187"/></g><g><path fill="#9aa595" d="M7.23 97.542c.004-.067.007-.135.008-.205H25l-17.77.205"/></g><g><path fill="#9aa595" d="M20.94 99.132H6.82c.019-.04.038-.132.056-.132l14.064.132"/></g><g><path fill="#6d883b" d="M20.468 116.277l-.034-.015a.538.538 0 0 0 .292-.262.473.473 0 0 1-.258.277"/></g><g><path fill="#6d883b" d="M20.842 107.618a.661.661 0 0 0-.442-.501l.02-.007c.151.062.388.206.422.508m.01.798v-.69-.011c.034.4 0 .7 0 .7"/></g><g><path fill="#8fb53e" d="M20.166 116.314H2.787a3.582 3.582 0 0 1-.63-.067 2.375 2.375 0 0 1-.943-.463C.718 115.22.42 114.886.42 114v-4.763c0-.532.205-1.02.58-1.395v-.002c.238-.253.47-.423.7-.537.3-.132.598-.211.932-.223h17.585a.704.704 0 0 1 .192.039c.23.08.402.269.443.5a1.7 1.7 0 0 1 .01.109v.69H2.513c-.94 0-1.704.582-1.704 1.35v3.857c0 .745.763 1.375 1.704 1.375h18.349v.663s-.023.201-.131.337a.537.537 0 0 1-.292.262.724.724 0 0 1-.272.052"/></g><g><path fill="#c2cfc4" d="M19.278 111.54h.001v-.005h.003c.039-.535.22-1.106.447-1.535h-.015a3.92 3.92 0 0 0-.436 1.54zm-.004.26v-.04l.001-.071c-.002.037 0 .074 0 .11zm.726 2.339v-.02h.106c-.302-.421-.61-.982-.753-1.634.138.722.406 1.264.647 1.654zm-.166-4.407c.454-.814 1.02-1.322 1.02-1.322H18.42h2.434s-.543.512-.993 1.31h-.02l-.007.012m1.02 5.268s-.305-.212-.649-.631h.09c.304.38.56.631.56.631"/></g><g><path fill="#c2cfc4" d="M2.098 108.641s-.941.167-.941 1.672v3.355s.097.502.552.785l.454.283s.163-.152.38-.438l.216-.298H17.7l-14.839-.182c.344-.588.69-1.442.697-2.515a4.397 4.397 0 0 0-.028-.53h9.243l-9.282-.253c-.154-.81-.546-1.292-.875-1.52-.22.194-.429.605-.429 1.313v0c0-.708.208-1.119.43-1.313-.283-.279-.519-.359-.519-.359M20.853 115H2.504c-.94 0-1.704-.637-1.704-1.382v-3.858c0-.76.763-1.35 1.704-1.35h18.349s-.567.508-1.02 1.322l-9.202.124 9.081.144a3.92 3.92 0 0 0-.436 1.54l-9.983.149h9.98c-.002.037 0 .074 0 .11l.003.12H6.518l12.768.145c.013.144.036.284.065.42.138.723.406 1.265.649 1.655l-13.944.23h14.147c.345.419.65.631.65.631"/></g><g><path fill="#b0bcae" d="M19.28 111.688H9.3l9.984-.148-.004.148"/></g><g><path fill="#b0bcae" d="M19.722 110l-9.082-.14 9.202-.124-.12.264"/></g><g><path fill="#b0bcae" d="M19.288 112.072l-12.768-.144h12.758-.004l.008.072c.002 0 .004 0 .006.072"/></g><g><path fill="#b0bcae" d="M20.272 114.375H6.06l13.94-.23.272.23"/></g><g><path fill="#9aa595" d="M19.735 110h-.022.007l.12-.265.006-.01h.02a2.129 2.129 0 0 0-.131.275"/></g><g><path fill="#9aa595" d="M19.276 111.697l.005-.148v-.006h.003a2.56 2.56 0 0 0-.007.154h-.001"/></g><g><path fill="#9aa595" d="M19.284 112l-.008-.075h.004l.004.075"/></g><g><path fill="#9aa595" d="M20.299 114.375h-.024l-.275-.23v-.02l.11.001c.065.09.128.173.189.249"/></g><g><path fill="#b0bcae" d="M12.782 110.777H3.539a4.37 4.37 0 0 0-.039-.254l9.282.254"/></g><g><path fill="#b0bcae" d="M17.701 114H2.76c.034-.06.068-.115.102-.174l14.84.174"/></g><g><path fill="#b0bcae" d="M2.166 114.745l-.454-.283c-.455-.283-.552-.785-.552-.785v-3.355c0-1.505.941-1.672.941-1.672s.236.08.518.35c-.22.203-.429.614-.429 1.322v3.355s.068.323.355.63a3.7 3.7 0 0 1-.379.438"/></g><g><path fill="#8c9588" d="M2.545 114.303c-.287-.303-.355-.63-.355-.63v-3.183-.172c0-.708.208-1.119.429-1.318.33.233.721.716.875 1.525.015.08.028.166.04.254.018.164.028.34.027.529a5.036 5.036 0 0 1-.697 2.515c-.034.059-.068.114-.102.177-.075.108-.149.212-.217.303"/></g><g><path fill="#249d86" d="M28.256 106.606a2.197 2.197 0 0 1-.087-.186h.001l.007.02s.055.07.079.166m-.398.471a.256.256 0 0 1-.048-.01c.19-.067.288-.067.373-.157l-.002.002c-.124.088-.247.162-.323.165"/></g><g><path fill="#249d86" d="M28.278 102.247h-.021l.024-.053a.352.352 0 0 0-.074-.194c.072.093.093.166.071.247m3.173-.417H27.81h3.641m-3.273.599c.048-.093.085-.152.098-.173a.574.574 0 0 1-.097.171l-.001.002"/></g><g><path fill="#41b59f" d="M20.328 107.074H2.11c-.26-.011-.599-.074-.899-.074-.146-.08-.282-.13-.407-.186-.31-.165-.519-.334-.647-.5a.841.841 0 0 1-.157-.47v-2.776c0-.068 0-.225.093-.384a.988.988 0 0 1 .081-.13 1.754 1.754 0 0 1 .337-.312c.17-.114.374-.242.604-.242.395-.133.588-.179 1.257-.179H5v-.001h22.652l.047.001a1.097 1.097 0 0 1 .162.02.706.706 0 0 1 .344.159h.002a.33.33 0 0 1 .074.19l-.024.053H27c.076-.097.123-.145.123-.145h-1.039s-.084.051-.084.145h-.606c.07-.097.117-.145.117-.145h-1.04s-.034.051-.091.145H4.437c.071-.097.117-.145.117-.145H3.516s-.036.051-.092.145h-.599c.071-.097.118-.145.118-.145H1.904s-.036.052-.093.147c-.811.026-1.458.42-1.458.906v2.59c0 .473.647.86 1.392.904.054.096.088.149.088.149h1.043s-.043-.05-.109-.144h.591c.053.093.087.144.087.144h1.043s-.043-.05-.109-.144h19.936c.053.093.087.144.087.144h1.042s-.043-.05-.108-.144h.59c.074.093.074.144.074.144h1.057s-.057-.05-.11-.144h1.313l.004.009a.31.31 0 0 1-.084.246c-.085.095-.18.095-.373.157a.23.23 0 0 1-.028.004h-7.481l.03.008"/></g><g><path fill="#c2cfc4" d="M27.71 104.326a4.452 4.452 0 0 1 .203-1.326c-.108.402-.202.858-.202 1.32v.006m.455 2.088h-.001c-.078-.185-.165-.493-.29-.961.125.474.258.87.29.96"/></g><g><path fill="#41b59f" d="M9.455 104.296l-.128-.016v-.79a1 1 0 0 1 .273-.033c.188 0 .33.043.4.128.127.084.176.187.176.307l-.06.215-.17.146a.862.862 0 0 1-.333.048zm-.128.966v-.842l.108-.011.16-.003c.145 0 .266.02.405.063a.639.639 0 0 1 .17.175l.066.23a.379.379 0 0 1-.144.306c-.092.082-.235.123-.418.123-.114 0-.23-.013-.347-.041zm2.102-.118c-.143-.144-.215-.438-.215-.774 0-.37.069-.576.208-.747a.545.545 0 0 1 .442-.203.56.56 0 0 1 .46.205c.14.173.209.435.209.787 0 .325-.063.588-.19.713a.597.597 0 0 1-.477.225.532.532 0 0 1-.437-.206zm2.242 0c-.143-.144-.215-.438-.215-.774 0-.37.07-.576.208-.747a.546.546 0 0 1 .443-.203c.196 0 .349.068.461.205.138.173.207.435.207.787 0 .325-.063.588-.189.713a.596.596 0 0 1-.478.225.532.532 0 0 1-.437-.206zm-13.321.605v-2.591c0-.485.65-.88 1.458-.906-.194.327-.63 1.167-.661 2.164-.032 1.005.403 1.895.595 2.236C1 106.608.35 106.22.35 105.749zm2.414.908c-.215-.312-.667-1.117-.605-2.296.06-1.141.46-1.83.663-2.111h.6c-.195.327-.633 1.168-.664 2.166-.03 1.01.407 1.902.597 2.24zm2.005-3.552h18.329v-.293H4.769zm3.97 2.306h.97c.232 0 .404-.022.516-.065a.55.55 0 0 0 .266-.204c.065-.142.097-.142.097-.293a.455.455 0 0 0-.147-.342.663.663 0 0 0-.32-.145.555.555 0 0 0 .278-.181.468.468 0 0 0-.026-.595c-.08-.093-.196-.158-.373-.194a1.395 1.395 0 0 0-.373-.036h-.888v.056h.077l.184.066v1.795l-.184.082h-.077zm7.85-.325l.094.108.014.065-.038.067-.127.029v.056h.978v-.056l-.264-.076a1.078 1.078 0 0 1-.318-.279l-.758-.73.314-.27c.183-.228.285-.332.307-.352l.209-.153.12-.065.12-.018v-.056h-.755v.056h.047l.108.026.032.062-.04.106c-.064.092-.245.275-.545.55-.087.109-.188.174-.208.192v-.63a.7.7 0 0 1 .018-.2l.103-.071.1-.035h.07v-.056h-.876v.056h.072l.14.036.062.063a.72.72 0 0 1 .02.208V105c0 .17-.013.249-.037.28l-.185.075h-.072v.056h.876v-.056h-.07l-.1-.036-.1-.066c-.015-.033-.02-.102-.02-.253v-.615zm-5.39-1.51c-.199.207-.332.424-.332.799 0 .32.133.625.289.782.192.2.43.302.713.302.28 0 .518-.104.716-.31a1.08 1.08 0 0 0 .295-.777 1.05 1.05 0 0 0-.293-.76.933.933 0 0 0-.694-.304.988.988 0 0 0-.693.269zm2.243 0c-.222.207-.333.424-.333.799 0 .32.096.625.289.782.193.2.43.302.713.302.28 0 .518-.104.716-.31.173-.206.295-.466.295-.777a1.16 1.16 0 0 0-.293-.76.934.934 0 0 0-.694-.304.986.986 0 0 0-.693.269zM4.769 106h18.329v-.34H4.769zm-.393.657c-.215-.312-.667-1.117-.606-2.296.06-1.141.46-1.83.664-2.111h19.943c-.194.327-.631 1.168-.662 2.166-.031 1.01.407 1.902.597 2.24zm20.957 0c-.215-.312-.667-1.117-.606-2.296.059-1.141.46-1.83.664-2.111H26c-.205.327-.643 1.168-.674 2.166-.031 1.01.407 1.902.598 2.24zm1.611 0c-.214-.312-.667-1.117-.605-2.296.059-1.141.46-1.83.661-2.111h1.275a.028.028 0 0 1-.002.009c-.013.021-.05.08-.098.173-.06.079-.175.311-.264.626-.115.348-.21.788-.202 1.276.001.352.076.762.165 1.127.126.468.211.776.29.96.036.089.066.15.086.187a.714.714 0 0 1 .01.049z"/></g><g><path fill="#bec962" d="M27.06 106.796H26s0-.051-.07-.144c-.191-.34-.63-1.231-.598-2.241.03-.998.469-1.839.668-2.166.052-.094.087-.145.087-.145h1.039s-.047.048-.126.145c-.195.28-.596.97-.655 2.11-.062 1.18.39 1.985.605 2.297.05.095.11.144.11.144"/></g><g><path fill="#bec962" d="M25.448 106.796h-1.042s-.034-.051-.087-.144c-.19-.34-.628-1.231-.597-2.241.03-.998.468-1.839.662-2.166.057-.094.092-.145.092-.145h1.039s-.046.048-.117.145c-.204.28-.605.97-.664 2.11-.061 1.18.39 1.985.606 2.297.065.095.108.144.108.144"/></g><g><path fill="#bec962" d="M4.489 106.796H3.446s-.034-.051-.087-.144c-.19-.34-.628-1.231-.597-2.241.03-.998.469-1.839.663-2.166.056-.094.092-.145.092-.145h1.038s-.046.048-.117.145c-.204.28-.604.97-.664 2.11-.061 1.18.39 1.985.606 2.297.066.095.109.144.109.144"/></g><g><path fill="#bec962" d="M2.878 106.796H1.835s-.034-.053-.088-.15c-.192-.34-.627-1.23-.595-2.235.03-.997.467-1.837.66-2.164.058-.095.094-.147.094-.147h1.039s-.047.048-.118.145c-.203.28-.604.97-.663 2.11-.062 1.18.39 1.985.605 2.297.066.095.109.144.109.144"/></g><g><path fill="#bec962" d="M9.596 104.4l-.16.003-.108.01v.843c.117.028.233.04.347.04.183 0 .325-.04.418-.122a.37.37 0 0 0 .144-.305l-.065-.231a.624.624 0 0 0-.172-.175 1.316 1.316 0 0 0-.404-.063m.005-.949a1 1 0 0 0-.273.034v.789l.128.016.158.005a.862.862 0 0 0 .333-.048l.171-.146.06-.215c0-.12-.05-.223-.178-.307-.068-.085-.21-.128-.399-.128m.11 1.954H8.74v-.056h.077l.183-.082V103.713v-.241l-.183-.066H8.74v-.056h.888c.166 0 .3.012.372.036.178.036.294.101.374.194a.469.469 0 0 1 .026.595.555.555 0 0 1-.278.18c.143.03.25.08.32.146a.455.455 0 0 1 .147.342c0 .102-.032.157-.097.293a.55.55 0 0 1-.266.204c-.112.043-.284.065-.516.065"/></g><g><path fill="#bec962" d="M11.867 103.412a.545.545 0 0 0-.442.203c-.139.171-.208.385-.208.747 0 .336.072.638.215.774a.532.532 0 0 0 .437.206.597.597 0 0 0 .478-.225c.126-.117.19-.388.19-.713 0-.352-.07-.614-.209-.787a.56.56 0 0 0-.46-.205m.004 2.039a.948.948 0 0 1-.713-.302 1.252 1.252 0 0 1-.289-.782c0-.367.13-.592.333-.798a.988.988 0 0 1 .693-.269c.267 0 .498.102.694.305.195.202.293.455.293.759 0 .31-.098.57-.295.777a.957.957 0 0 1-.716.31"/></g><g><path fill="#bec962" d="M14.108 103.412a.546.546 0 0 0-.443.203c-.138.171-.208.385-.208.747 0 .336.072.638.215.774a.532.532 0 0 0 .437.206.596.596 0 0 0 .478-.225c.126-.117.19-.388.19-.713 0-.352-.07-.614-.208-.787a.562.562 0 0 0-.46-.205m.003 2.039a.949.949 0 0 1-.713-.302c-.193-.202-.289-.462-.289-.782 0-.367.111-.592.333-.798a.986.986 0 0 1 .693-.269c.267 0 .498.102.694.305.17.202.293.455.293.759 0 .31-.123.57-.295.777a.957.957 0 0 1-.716.31"/></g><g><path fill="#ccdcd3" d="M4.228 87.87l.002-.121c0-1.556-.403-2.274-.76-2.97h-.764H21.19 3.471s.529.8.71 1.978l.005.039c.049.333.069.694.042 1.075m17.201-4.061H2.726l.535-.01h18.191l-.023.01M3.471 90.63s.239-.417.449-1.057l-.036.12c-.207.666-.413.938-.413.938"/></g><g><path fill="#bec962" d="M17.516 105.405h-.978v-.056l.127-.03.038-.066-.014-.065-.095-.108-.709-.701V105c0 .145.006.214.02.247l.095.066.106.036h.07v.056H15.3v-.056h.072l.185-.074c.024-.032.036-.11.036-.275v-1.287a.72.72 0 0 0-.019-.208l-.062-.063-.14-.036H15.3v-.056h.876v.056h-.07l-.106.035-.097.072a.7.7 0 0 0-.018.2v.629c.02-.018.115-.083.208-.192.3-.275.481-.458.544-.55l.041-.106-.032-.062-.108-.026h-.047v-.056h.755v.056l-.12.018-.126.065-.203.153c-.022.02-.124.124-.307.358l-.314.265.758.735c.124.143.23.228.318.273l.264.076v.056"/></g><g><path fill="#bec962" d="M4.77 105.946h18.328v-.293H4.77z"/></g><g><path fill="#bec962" d="M4.77 103.096h18.328v-.293H4.77z"/></g><g><path fill="#31608c" d="M21.591 91.61H2.655s-.453-.017-.484-.468l-.001-.008v-.077c.023-.374.387-.427.485-.427h18.526l-.002.008c-.01.04-.022.076-.032.108-.002.007-.019.05-.035.113-.028.082-.044.141-.044.141h.021l-.02.06a.499.499 0 0 0 .09.286.625.625 0 0 0 .388.25l.044.013"/></g><g><path fill="#31608c" d="M21.19 84.774H2.705s-.434-.023-.465-.485v-.075c.028-.389.485-.409.485-.409h18.703c-.1.046-.496.246-.36.621.032.09.074.205.122.348"/></g><g><path fill="#5e8cb7" d="M21.124 91.286a.5.5 0 0 1-.054-.227l.02-.059a.524.524 0 0 0 .031.278l.003.008m.425.309a.625.625 0 0 1-.389-.249c.102.138.301.218.39.249"/></g><g><path fill="#c2cfc4" d="M20.398 90.099c.114.215.197.327.197.327l.274-.253c.274-.252.333-.7.333-.7V88h.395l.014-.087h-.409v-.21l.41.003-.005-.137-.405.004v-1.095c0-.11-.004-.21-.01-.304h.053L21.18 86c-.106-.898-.546-1-.546-1s-.142.058-.312.267c.091.146.18.366.226.733-.046-.367-.135-.587-.226-.733a2.103 2.103 0 0 0-.374.733l-11.207.174h11.146a4.575 4.575 0 0 0-.134 1.188c0 .076.002.15.005.223l-5.823.052 5.828.053c.004.078.01.155.016.23L6 88h13.79a5.89 5.89 0 0 0 .505 1.89l-8.998.209h9.101m.783.533H3.47s.206-.272.413-.938l6.479-.035-6.439-.1c.077-.341.213-.745.267-1.184l10.529-.165H4.209c.01-.111.015-.21.018-.338a5.028 5.028 0 0 0-.041-1.075l8.814-.15H4.164l.016.11c-.18-1.176-.71-1.977-.71-1.977h17.72c.182.546.434 1.49.435 2.843a7.389 7.389 0 0 1-.037.59c-.133 1.277-.299 2.029-.407 2.419"/></g><g><path fill="#5e8cb7" d="M21.149 90.745l.032-.108.002-.008c.108-.39.274-1.142.407-2.419.021-.21.033-.397.037-.59v.014c0 1.717-.477 3.11-.477 3.11h-.001m-.058.256h-.021s.016-.06.044-.142a.725.725 0 0 0-.023.142"/></g><g><path fill="#b0bcae" d="M19.886 86.172H8.74L19.947 86c-.022 0-.042.101-.061.172m1.359 0h-.054L21.179 86l.066.172"/></g><g><path fill="#b0bcae" d="M19.758 87.691l-5.828-.053 5.823-.052.005.105m1.85.016l-.41-.003v-.13l.406-.004.004.137"/></g><g><path fill="#b0bcae" d="M19.791 88H6l13.78-.082c.003.082.006.082.011.082m1.807 0h-.395v-.089l.41-.001-.015.09"/></g><g><path fill="#b0bcae" d="M20.402 90.094H11.3l8.999-.208c.024.052.048.114.07.114.012.053.023.074.033.094"/></g><g><path fill="#b0bcae" d="M4.181 86.795l-.005-.039-.016-.111H13l-8.818.15h-.001"/></g><g><path fill="#b0bcae" d="M4.19 88.372l.018-.165h10.51l-10.528.165"/></g><g><path fill="#b0bcae" d="M3.88 89.687l.036-.12.004-.014 6.439.099-6.479.035"/></g><g><path fill="#8c9588" d="M20.594 90.42s-.084-.112-.198-.327c-.01-.02-.02-.041-.031-.093.173-.22.214-.533.214-.533v-2.995c0-.197-.012-.368-.033-.472-.046-.373-.135-.593-.226-.739.17-.209.312-.261.312-.261s.44.096.546 1l.012.168c.007.094.01.195.01.304v2.995s-.058.448-.332.7l-.274.253"/></g><g><path fill="#72796b" d="M20.37 90c-.023 0-.047-.064-.07-.116A5.892 5.892 0 0 1 19.793 88c-.005 0-.008 0-.012-.086a8.577 8.577 0 0 1-.016-.231l-.005-.105a5.425 5.425 0 0 1-.005-.223 4.574 4.574 0 0 1 .134-1.188c.02-.071.04-.167.11-.167.06-.361.2-.587.325-.74.091.146.18.366.226.74.021.103.033.274.033.47v2.996s-.04.313-.214.534"/></g><g><path fill="#665e69" d="M91.5 103.547s7.176-4.127 12.106-.301c4.93 3.825 10.247 13.387 10.247 13.387L109.166 126s-7.03-5.842-13.166-6.444c-6.065-.556-26.12 1.387-26.12 1.387l1.023-11.34 20.598-6.056"/></g><g><path fill="#fff9ee" d="M113.473 113.799s-.842-.871-2.473-.101c-1.565.768-4 1.627-4.515 3.513-.485 1.886 1.893 3.512 1.893 3.512s-.781-.316-1.378.864c-.497 1.182.397 3.413 1.407 4.329 1.009.938 5.066-12.117 5.066-12.117"/></g><g><path fill="#fff9ee" d="M114.618 114.78s-1.566-.097-3.269 2.271c-1.703 2.37-.444 4.3-.24 4.652.202.353.66-.167.35-.703-.308-.589-1.042-1.618.126-3.324 1.168-1.676 2.95-2.438 2.98-2.576.033-.1.053-.32.053-.32"/></g><g><path fill="#fff9ee" d="M114.737 114.53s-2.029.47-2.552 2.793c-.522 2.282.63 2.598.758 2.31.13-.286-.357-.633-.355-1.404.002-.727.066-1.412.75-2.048.662-.637 1.327-1.181 1.438-1.363.111-.221-.039-.288-.039-.288"/></g><g><path fill="#fff9ee" d="M109.32 127.12s.272-.6 1.012-.12c.742.456 1.187 1.164 1.187 1.164l-.092.154s-.222-.463-.825-.972c-.602-.51-.88-.454-1.045-.346-.165.063-.163.206-.163.206l-.074-.085"/></g><g><path fill="#bfb7aa" d="M122.937 119.265c-.45-.067-.643-.341-.8-.561-.137-.205-.26-.367-.552-.41-.29-.043-.456.077-.663.229-.223.164-.502.368-.922.302-.477-.067-.67-.341-.827-.562-.173-.204-.259-.366-.55-.41-.293-.043-.456.078-.623.23-.264.165-.542.369-1 .302-.44-.067-.634-.385-.79-.561-.145-.205-.21-.367-.55-.41l.177-.354c.45.067.531.319.687.539.145.205.26.401.551.401.292.052.455-.068.663-.22.262-.164.501-.368.95-.302.45.066.643.341.798.522.145.244.26.406.514.449.33.044.493-.077.701-.23.223-.164.501-.368.95-.3.45.081.643.34.8.56.145.205.26.367.549.41l-.064.376"/></g><g><path fill="#bfb7aa" d="M122.247 121.095c-.465-.095-.664-.345-.823-.571-.148-.21-.265-.375-.567-.417-.303-.041-.474.085-.69.245-.235.173-.525.387-.99.323-.466-.063-.663-.344-.823-.571-.147-.21-.264-.376-.566-.417-.302-.041-.474.085-.69.245-.234.173-.525.387-.99.323-.465-.063-.663-.344-.822-.571-.147-.21-.286-.375-.566-.417l.188-.367c.465.1.547.323.706.549.148.21.264.376.567.418.302.04.473-.085.691-.245.233-.173.524-.387.988-.324.465.064.663.345.823.571.147.21.264.376.566.417.303.042.474-.085.691-.286.234-.131.524-.345.99-.282.466.064.664.345.823.57.148.21.247.377.567.418l-.073.389"/></g><g><path fill="#bfb7aa" d="M121.26 123.208c-.445-.073-.64-.348-.798-.57-.146-.205-.26-.367-.55-.414-.289-.048-.449.069-.65.217-.262.159-.49.357-.935.284-.443-.073-.639-.35-.796-.57-.146-.155-.262-.366-.531-.414-.308-.048-.468.069-.67.259-.218.117-.489.315-.933.242-.397-.074-.639-.348-.797-.57-.146-.205-.261-.367-.6-.415l.22-.347c.444.09.529.325.686.546.146.205.262.367.55.415.29.047.45-.07.651-.217.218-.16.49-.358.893-.284.484.073.68.347.837.569.163.205.261.367.55.415.29.047.448-.07.613-.218.255-.136.527-.357 1-.284.415.073.611.349.768.569.146.206.232.369.552.415l-.06.372"/></g><g><path fill="#bfb7aa" d="M120.177 125.087c-.43-.087-.617-.334-.769-.546-.14-.197-.25-.353-.53-.398-.279-.045-.434.068-.63.212-.248.155-.474.347-.902.278-.429-.068-.617-.333-.768-.546-.14-.197-.25-.353-.578-.397-.23-.045-.385.068-.58.212-.212.154-.474.346-.903.278-.429-.07-.617-.334-.768-.546-.14-.197-.251-.353-.529-.398l.165-.336c.429.1.51.31.615.523.186.198.297.354.576.399.278.044.424-.07.63-.213.21-.154.473-.347.901-.278.43.069.617.334.767.545.126.198.251.354.53.399.28.045.434-.07.596-.212.245-.155.508-.347.936-.278.43.068.617.333.768.546.142.197.296.353.53.398l-.057.358"/></g><g><path fill="#bfb7aa" d="M119.073 127c-.404-.112-.582-.361-.725-.562-.133-.187-.237-.334-.5-.376-.264-.062-.41.063-.594.199-.199.146-.446.326-.85.26-.404-.064-.583-.314-.725-.521-.133-.18-.238-.328-.5-.371-.263-.042-.409.065-.594.2-.199.171-.446.327-.85.26-.405-.089-.582-.314-.735-.515-.123-.187-.227-.334-.49-.376l.155-.318c.405.066.481.294.624.495.133.187.238.334.5.376.263.043.41-.063.594-.199.198-.145.446-.326.85-.261.405.066.582.316.767.516.09.193.195.334.458.377.263.042.41-.064.594-.184.198-.161.446-.342.85-.277.405.066.582.277.725.517.133.186.238.333.501.376l-.055.384"/></g><g><path fill="#bfb7aa" d="M117.888 128.529c-.4-.082-.366.02-.5-.187-.125-.191-.224-.342-.485-.396-.26-.054-.41.054-.6.174-.206.137-.46.308-.862.225-.441-.082-.569-.345-.703-.546-.124-.191-.223-.343-.484-.396-.254-.054-.41.047-.6.175-.206.136-.46.307-.862.225-.4-.082-.568-.34-.702-.546-.09-.191.171-.257-.09-.257l.084-.32c.401.082.16.184.293.391.125.191.223.343.484.396.261.054.411-.047.601-.175.205-.136.46-.292.861-.225.401.083.568.34.677.546.15.192.248.387.51.387.26.063.411 0 .601-.165.205-.136.46-.307.889-.225.373.082.54.34.675.546.124.19.062.11.325.165l-.112.208"/></g><g><path fill="#79727d" d="M97 101.732s-2.46 1.56-3.218 3.701c-.782 2.143 2.86 4.206 5.668 3.268 2.806-.94 2.493-3.169 5.836-3.96-1.286-2.29-4.792-3.827-8.286-3.009"/></g><g><path fill="#665e69" d="M51.68 102.632s-7.68-3.133-12.037 1.314c-4.377 4.448-8.373 14.633-8.373 14.633l5.89 8.635s6.194-6.703 12.16-8.112c5.965-1.408 22.242-1.59 22.242-1.59V106.07l-19.882-3.437"/></g><g><path fill="#edbb8b" d="M68.084 66.755s.636-1.35.777-3.054C69 62 68.487 59.76 68.487 59.76L78.767 61s.377 4.585.804 5.416c.429.83 1.219 1.207 1.219 1.207s-.882 5.144-1.512 5.529c-.631.386-8.753-2.979-9.18-3.223-.43-.244-2.418-2.043-2.418-2.043l.404-1.13"/></g><g><g/><g clip-path="url(#jnpka)"><path fill="#e4aa81" d="M68.82 64.414h10.318V62H68.82z"/></g></g><g><path fill="#df915c" d="M74.816 65.742c-.246 0-.503-.01-.816-.028-3.476-.254-5.096-2.881-5.113-2.91A14.256 14.256 0 0 0 68.84 62c1.41.302 2.958.47 4.654.47.506 0 .937-.013 1.423-.039a31.022 31.022 0 0 0 1.792-.146c.936-.081 1.596-.204 1.92-.285h.229c.065.638.142 1.568.285 2.414-.028.028-1.362 1.328-4.327 1.328"/></g><g><path fill="#edbb8b" d="M91.825 37.217s.279 2.578.949 4.25c.67 1.67 3.675 5.002 1.226 10.366-2.405 5.362-9.402 10.08-19.08 10.598-9.677.518-14.92-4.323-16.985-6.498-2.071-2.174-2.995-3.542-2.995-3.542s-1.073 1.973-2.94 1.89c-1.936-.086-5.684-1.45-7.133-5.808-1.448-4.356 1.352-5.305 2.133-5.838.843-.532 1.432-.506 1.432-.506s-9.25-8.595-5.283-21.043C47.117 8.636 64.54 2.76 78.456 8.933c13.912 6.172 13.963 16.862 13.654 19.88-.31 3.016-.532 6.777-.285 8.404"/></g><g><path fill="#df915c" d="M51.517 51.29c-.337 0-.746-.164-1.213-.555-1.717-1.441-1.785-2.326-1.71-3.006.073-.729.245-.874.245-.874s-.113-.036-.278-.036c-.28 0-.71.103-.995.656-.453.879-.219 1.68-.219 1.68s-1.098-1.328.148-2.754c.258-.296.598-.401.978-.401 1.454 0 3.527 1.816 3.936 3 .393 1.118.01 2.29-.892 2.29"/></g><g><path fill="#df915c" d="M77.752 44.423c-.083 0-.2-.038-.369-.155-.477-.333-.482-1.215.822-2.11.659-.451 1.644-.688 2.527-.688.868 0 1.637.229 1.9.71.532.97.368.965.233 1.17-.021.028-.065.043-.118.043-.156 0-.396-.126-.431-.444-.03-.28-.316-.547-1.071-.547-.424 0-1.001.077-1.781.272-2.34.586-1.524 1.618-1.524 1.618s-.033.13-.188.13"/></g><g><path fill="#352b26" d="M86.473 33.204s-1.473.153-1.614 2.314c-.139 2.16-.072 4.594 1.38 4.944 1.45.348 2.64-1.306 2.761-3.12 0-1.813-.164-3.595-1.112-3.944-.948-.398-1.415-.194-1.415-.194"/></g><g><path fill="#e99a77" d="M65.9 49.063c-1.323 0-2.455-.32-2.164-1.282.432-1.433 4.413-1.916 4.413-1.916.296-.048.851-.125 1.417-.125.886 0 1.798.189 1.79.975-.012 1.285-1.734 1.814-3.537 2.159a9.509 9.509 0 0 1-1.92.189"/></g><g><path fill="#e99a77" d="M87.763 44.31C86.695 44.31 85.79 44 86 43c.39-1.395 3.653-1.899 3.653-1.899A6.82 6.82 0 0 1 90.838 41c.717 0 1.447.159 1.437.937-.016 1.29-1.428 1.82-2.906 2.176a7.16 7.16 0 0 1-1.606.198"/></g><g><path fill="#756c65" d="M87.191 35.749c-.125 0-.255-.011-.387-.035-.804-.146-1.381-.714-1.283-1.244.082-.47.609-.75 1.251-.75.125 0 .228.011.387.035.841.147 1.381.704 1.283 1.245-.082.452-.609.749-1.251.749"/></g><g><path fill="#fffffe" d="M87.17 35.462c.02-.462.377-.75.83-.731.393.018.72.376.7.799-.018.47-.375.75-.798.73a.766.766 0 0 1-.731-.798"/></g><g><path fill="#fffffe" d="M87.426 36.87a.224.224 0 1 1 .448.019.234.234 0 0 1-.234.215.221.221 0 0 1-.214-.234"/></g><g><path fill="#352b26" d="M63.5 42.299s-1.105-1.757-.434-3.566c.672-1.809 3.768-2 4.8 1.362 1.034 3.363.134 4.538-1.067 4.813-1.194.275-2.712-.985-3.3-2.609"/></g><g><path fill="#756c65" d="M64.222 40c-.436 0-.8-.155-.941-.47-.226-.53.198-1.179.946-1.53.279-.11.563-.17.773-.17.484 0 .847.17 1 .484.214.502-.21 1.18-1 1.517-.236.169-.52.169-.778.169"/></g><g><path fill="#fffffe" d="M65.767 39.817a.77.77 0 0 1 .537-.94.76.76 0 0 1 .94.537.765.765 0 1 1-1.477.403"/></g><g><path fill="#fffffe" d="M66.443 41.069a.226.226 0 0 1 .158-.276c.12-.032.242.039.275.207.033.07-.038.194-.157.227a.225.225 0 0 1-.276-.158"/></g><g><path fill="#3a2a20" d="M57 20s-1.295 5.231 4.95 8.57c6.244 3.336 10.5 1.43 10.5 1.43s-3.97 0-5.955-.864c-1.985-.832-3.76-3.648-3.76-3.648s2.715 3.313 8.381 2.81c5.667-.506 8.111-3.11 8.111-3.11s-4.542 1.24-6.851 1.173c-2.31-.067-3.313-.968-3.313-.968s2.2 1.134 5.462.442c3.262-.69 4.178-1.127 4.178-1.127s-5.141.092-7.057-1.107c-1.918-1.2-2.92-2.934-2.92-2.934s2.675 3.28 7.047 3.56c1.754.112 3.227-.117 4.774-.346 2.272-.34 4.608-.682 7.952.119 5.587 1.31 4.998 7.71 4.998 7.71s3.631-5.71.045-11.27C90 14.895 86 13.909 86 13.909s3.085.707 6.237 4.422c3.152 3.67 3.073 4.982 3.073 4.982s1.606-3.748-1.859-8.856C90 9.348 82.653 6.866 82.653 6.866s2.925.877 3.945.765c1.019-.111 1.784-.934 1.784-.934s-2.821 1.13-5.269-1.226c-2.446-2.356-10.427-8.733-23.788-3.4C46 7.405 46.353 11.216 46.353 11.216l-.846-3.993s-.718 1.543-.624 2.637c.117 1.14.409 1.93.409 1.93s-1.195-.096-3.202.956C40.082 13.796 39.562 15 39.562 15s1.438-1.12 2.174-1.276c.733-.155 2.183-.532 2.183-.532S37.534 15 37.373 24.384c-.16 9.355 6.297 13.386 5.95 17.09-.323 3.702-3.482 2.699-3.482 2.699s1.483 2.736 5.039.827c3.555-2 3.634-4.542 3.634-4.542S48.279 42.305 48 43c-.264.68-.91 1.235-.91 1.235s3.227-1.646 3.154-5.589c-.075-3.942-.612-7.352-.592-10.324C49.672 25.35 54 21 54 21s-3.425 3.58-3.578 7.785c-.152 4.215 1.41 8.951 1.41 8.951s.326-5.355.771-8.509c.397-3.154 2.11-5.802 2.11-5.802s-1.567 3.878-1.596 5.276c-.028 1.397.208 3.387.208 3.387s2.007-3.439 2.588-6.39C56.493 22.747 57 20 57 20"/></g><g><path fill="#211914" d="M47 13.12s.379-2.958 2.784-5.068C52.189 5.944 57.36 4.57 57.36 4.57S51.49 6.753 50 8.804c-1.465 2.052-2 4.318-2 4.318s1-1.878 2.622-2.917c1.623-1.04 3.074-1.416 3.074-1.416S51 10.4 50.34 11.169c-.672.767-1.435 1.763-1.435 1.763s1.23-1.477 7.545-2.744c6.316-1.268 13.184.615 13.184.615s-8.264-.266-12.14.486c-3.875.711-8.351 2.602-8.351 2.602s-.738.782-.5 1.914l.438 2.064S47.906 16.587 48 15.813c0-.813.4-1.486.4-1.486s-1.982.49-4.128 3.169c-2.145 2.679-.823 8.59-.823 8.59s-1.953-4.293-.675-7.671c1.28-3.415 4.869-4.6 4.869-4.6s-4.058-.16-6.453 2.896c-2.395 3.058-2.58 4.813-2.58 4.813s.734-3.524 3.142-6.184c2.407-2.642 4.514-2.115 4.514-2.115s-.527-.63-1.628-.676c-1.099-.045-2.105.238-2.105.238s2.78-1.392 4.467.332"/></g><g><path fill="#211914" d="M82.647 6.87S77 2.92 72 3c-5 .087-7.21 1-7.21 1s4.683-2.543 10.85-1.105c6.167 1.439 8.915 4.473 8.915 4.473l-1.908-.497"/></g><g><path fill="#211914" d="M39.652 24.18s-.8 5.502 1.54 9.55c2.342 4.047 4.433 4.27 5.095 7.63.662 3.344-2.956 4.215-2.956 4.215s6.27-.83 5.112-5.638c-1.158-4.81-7.232-2.363-8.79-15.757"/></g><g><path fill="#211914" d="M54 21s-4 3.925-4.335 7c-.29 3.096.467 6.798.515 9 .049 2.169-.02 2.804-.02 2.804s-.95-7.352-1.233-10.665c-.285-3.312 3.332-6.756 3.332-6.756S49 24.702 48.321 26.278c-.71 1.575-.717 2.722-.717 2.722s-.46-1.708.92-4.226C49.903 22.257 54 21 54 21"/></g><g><path fill="#211914" d="M56 16.92s1.585.229 1 4.692c-.514 4.463-3.68 10.477-3.68 10.477s2.318-6.565 2.845-10.154c.526-3.59-.165-5.015-.165-5.015"/></g><g><path fill="#211914" d="M58 19.45s2.735 6.21 7.306 8.301c4.57 2.094 11.25-.83 11.25-.83s-7.264 2.134-11.773-.762C60.273 23.262 58 19.45 58 19.45"/></g><g><path fill="#211914" d="M56.15 14.284s5.101-1.87 8.85 2.254c3.721 4.124 5.35 8.369 12.577 7.905C84.805 24 86.57 23 89.749 24.495c3.179 1.505 3.379 3.973 3.379 3.973S93 24 89.259 22.675c-1.975-.675-5.097-.384-8.103-.046-2.677.3-5.262.603-6.864.156-3.4-.95-5.418-3.58-5.418-3.58s3.922 2.795 6.662 2.899c2.74.115 6.055-.656 6.055-.656s-4.722.687-7.343-.184c-2.618-.871-6.197-6.65-10.75-7.842-4.553-1.191-7.348.862-7.348.862"/></g><g><path fill="#211914" d="M95.308 23.313s-3.308-7.127-8.866-9.26c-5.535-2.132-8.632-2.961-8.632-2.961s7.028-.19 12.437 3.393c5.41 3.584 5.382 8.002 5.061 8.828"/></g><g><path fill="#433424" d="M69.352 19.753c-.352-.33-.48-.545-.48-.545s.35.248.913.6a5.658 5.658 0 0 0-.433-.055zm3.526.73c-1.35-1.025-2.878-2.76-4.666-4.28a28.236 28.236 0 0 0 6.734-5.48c2.585-2.877 3.3-4.91 3.112-6.338a28.08 28.08 0 0 1 3.085 1.542L80.58 7s2.918 1.632 3.882 2.68c.46.501-.202.594-1.039.594-.248 0-.512-.009-.766-.017-.254-.008-.5-.016-.71-.016-.358 0-.62.023-.662.11-.113.224.575.649 1.319 1.2A26.064 26.064 0 0 0 78 11.087l-.194.001s2.098.561 5.927 1.911c-.499.268-1.786.325-3.037.325a63.76 63.76 0 0 1-1.75-.028c-.504-.015-.946-.029-1.075-.029l-.067.001c-.551.025 2.563 1.591 3.427 2.52.267.288-.085.388-.714.388-1.408 0-4.202-.502-4.517-.53-.44 0 2 2.3 1.296 2.437-.072.013-.17.019-.296.019-1.142 0-4.252-.557-4.57-.867-.016-.016-.026-.024-.03-.024-.074 0 2.31 3.114 1.474 3.339a.903.903 0 0 1-.233.024c-.198 0-.46-.035-.763-.091zm-15.728-.382l.002-.101c.182 0 .555 0 1.084-.125.131.267.324.646.576 1.125-.754-.425-1.4-.762-1.662-.9zM81.545 5.144a21.182 21.182 0 0 0-3.747-1.647c-.964-2.035-4.005-2.407-4.005-2.407 3.82.346 7.742 4.036 7.752 4.054m-19.009 17.8a.372.372 0 0 1-.206-.063c-.33-.238-1.75-.976-3.009-1.64-.467-.58-.807-1.06-1.019-1.377a28.257 28.257 0 0 0 7.495-2.388c.96 1.14 1.803 2.264 2.692 3.264.025.354.01.665-.584.961a1.043 1.043 0 0 1-.468.096c-.505 0-1.133-.246-1.7-.492-.565-.248-1.07-.494-1.326-.494a.216.216 0 0 0-.114.026c-.368.225-1.087 2.107-1.76 2.107"/></g><g><path fill="#2c2419" d="M81.145 5.93a28.075 28.075 0 0 0-3.085-1.542 3.555 3.555 0 0 0-.26-.888c1.513.5 2.757 1.087 3.747 1.647l-.402.783"/></g><g><path fill="#2c2419" d="M57.151 20.098A1.022 1.022 0 0 1 57 20h.153l-.002.098"/></g><g><path fill="#2c2419" d="M59.325 21.237c-.173-.092-.325-.182-.509-.237a54.661 54.661 0 0 1-.576-1.129l.066-.011c.212.317.552.797 1.02 1.377"/></g><g><path fill="#2c2419" d="M68.492 20.746c-.889-1-1.732-2.123-2.692-3.264.786-.37 1.595-.791 2.415-1.272 1.785 1.519 3.315 3.254 4.667 4.28-.43-.08-.938-.203-1.453-.326a14.103 14.103 0 0 0-1.64-.35c-.564-.352-.914-.6-.914-.6s.125.215.48.545a2.82 2.82 0 0 0-.25-.012c-.285 0-.48.055-.539.192-.126.297-.09.563-.074.807"/></g><g><path fill="#2c2419" d="M83.737 13c-3.829-1.348-5.927-1.909-5.927-1.909l.19-.001c.56 0 2.35.037 4.61.462.457.33.936.702 1.263 1.084.127.174.127.306-.136.364"/></g><g><path fill="#433424" d="M48.086 31.25S47 27.492 46.912 27c-.011 0-.027-.062-.046-.062-.16 0-.57 1.596-.731 2.062-.018.085-.043.11-.072.11-.256 0-.875-1.995-1.063-2.556 0-.08 0-.118-.08-.118-.232 0-.635 1.651-.92 2.752 0 .226-.077.321-.142.321-.3 0-.714-1.992-1.026-2.378-.03-.038-.063-.056-.099-.056-.409 0-1.13 2.286-1.434 2.67-.017.022-.036.032-.056.032-.369 0-1.243-3.399-1.334-3.777a36.623 36.623 0 0 1-.256-1.817s-.15 1.038-.13 2.542c-.247.726-.523 1.803-.779 2.448-.08.233-.148.341-.208.341-.228 0-.334-1.594-.536-3.867-.263-2.866.638-6.257.638-6.257s-.13.61.127 1.508a3.538 3.538 0 0 0-.157.632s.048-.232.16-.622c.335 1.092 1.314 2.516 4.031 3.306.305 1.125.649 1.877.649 1.877s-.162-.721-.28-1.774c1.365.364 2.535.492 3.506.492a9.51 9.51 0 0 0 1.938-.19 3.31 3.31 0 0 0-.088.154c-1.38 2.517-.92 4.227-.92 4.227s.007-1.148.717-2.724c.303-.673 1.068-1.484 1.844-2.19-1.94 2.3-2.08 7.164-2.08 7.164"/></g><g><path fill="#2c2419" d="M38.61 21.522s.023-.217.157-.632a.15.15 0 0 1 .003.01c-.112.39-.16.622-.16.622m4.84 4.562s-.344-.753-.649-1.878h.001c.124.036.198.07.367.103a18.25 18.25 0 0 0 .28 1.775"/></g><g><path fill="#2c2419" d="M39.528 26.723c-.021-1.505.13-2.543.13-2.543.075.644.161 1.25.256 1.82H39.878c-.07 0-.198.276-.35.723"/></g><g><path fill="#2c2419" d="M47.604 29s-.46-1.715.92-4.233a3.35 3.35 0 0 1 .088-.153c1.016-.211 1.539-.526 1.553-.534-.776.706-1.541 1.517-1.844 2.19-.71 1.577-.717 2.73-.717 2.73"/></g><g><path fill="#3a2a20" d="M60.325 35.296s2.514-.884 5.248-.959c2.734-.076 3.21-.652 3.427-1.19.12-.539-.443-.916-4.108-.69-3.665.223-5.54 3.131-4.567 2.84"/></g><g><path fill="#3a2a20" d="M90.342 31s-2.342-.284-4.66.21c-2.293.496-2.871.053-3.181-.418-.31-.472.038-.942 3.151-1.49 3.112-.546 5.59 1.798 4.69 1.698"/></g><g><path fill="#a53a3c" d="M81.472 48s-1.112.122-1.213 1.183c-.1 1.062-.259 2.148 1.213 2.098 1.528-.052 1.112-1.34.985-2.047-.126-.708-.257-1.458-.985-1.234"/></g><g><path fill="#fff9ee" d="M31.27 115.713s.73-.974 2.405-.425c1.687.549 4.242 1.07 4.976 2.877.733 1.835-1.408 3.732-1.408 3.732s.757-.417 1.432.681c.699 1.097.108 3.422-.768 4.422-.907 1.112-6.637-11.287-6.637-11.287"/></g><g><path fill="#66a495" d="M36.825 122s1.321-1.282 1.427-2.847C38.36 117.587 35 116.406 33.4 116c-1.572-.415-1.954-.56-2.399 0l-.494.463-.25.384s-.483-1.089-3.03-2.618c-2.548-1.53-6.17.006-7.01 1.297-.841 1.292.304 5.92 2.574 9.236 2.27 3.316 3.911 6.972 7.725 8.022 3.813 1.05 5.344-1.617 5.62-2.67.277-1.055 1.33-1.937 1.684-2.796.354-.86 1.713-5.318-.994-5.318"/></g><g><path fill="#fff9ee" d="M24.29 114.181s-3.29.028-3.895 2.008c-.585 1.98 1.105 6.645 3.92 10.45 2.814 3.807 3.685 5.056 5.956 5.715 2.226.646 4.415.125 5.053-1.414.676-1.538-.808-4.657-2.777-7.94-1.969-3.23-3.97-8.914-8.256-8.819"/></g><g><path fill="#fff9ee" d="M30.26 116.845s1.538-.305 3.542 1.816c2.003 2.12 1.013 4.202.86 4.578-.155.377-.662-.077-.447-.676.231-.563.785-1.716-.564-3.252-1.385-1.536-3.247-2.024-3.297-2.157-.049-.154-.094-.309-.094-.309"/></g><g><path fill="#fff9ee" d="M30.113 116.6s2.078.235 2.887 2.4c.835 2.22-.263 2.687-.43 2.419-.166-.267.264-.72.165-1.419-.099-.741-.254-1.411-1.015-2-.72-.491-1.469-.905-1.608-1.109-.112-.205.001-.291.001-.291"/></g><g><path fill="#fff9ee" d="M37.161 128.357s-.349-.558-1.02.005c-.672.56-1.021 1.322-1.021 1.322l.113.141s.159-.489.687-1.075c.53-.584.812-.566.988-.503.174.063.192.203.192.203l.061-.093"/></g><g><path fill="#6c655b" d="M23.292 115.403s-1.459.597-1.652 1.81c-.192 1.188 1.36 4.787 2.716 6.98 1.378 2.173 3.046 4.718 4.644 5.9 1.66 1.185 2.689 1.339 3.794 1.13C33.9 131 34 130.756 34 130.756s-.64.88-2.871.722c-2.23-.157-4.04-2.22-4.993-3.477-.953-1.31-3.02-4.207-3.589-5.479-.547-1.272-1.673-3.748-1.486-5.07.187-1.323.768-1.595.768-1.595l.962-.516.501.063"/></g><g><path fill="#bfb7aa" d="M24.573 126.087c-2.436-3.295-4.135-7.667-3.635-9.358.519-1.729 3.295-1.807 3.429-1.808 3.047-.067 4.938 3.444 6.46 6.264.328.61.64 1.187.937 1.68 2.307 3.814 3.236 6.21 2.74 7.328-.556 1.342-2.427 1.883-4.447 1.284a4.776 4.776 0 0 1-1.27-.588c-1.281-.834-2.4-2.348-4.205-4.788zm-.2-10.823h-.002c-.027 0-2.656.04-3.105 1.562-.465 1.576 1.242 5.892 3.582 9.057l.01.014c2.321 3.103 3.487 4.716 5.297 5.252 1.845.547 3.543.09 4.032-1.088.284-.684.043-2.456-2.717-7.061-.302-.458-.615-1-.946-1.653-1.074-1.991-2.338-4.347-4.039-5.444-.639-.415-1.338-.657-2.112-.64z"/></g><g><path fill="#bfb7aa" d="M21 118.576c.431-.12.394-.275.509-.493.106-.202.191-.362.491-.44.21-.076.37.01.57.119.216.118.485.238.878.146.392-.12.552-.39.65-.61.105-.201.19-.361.445-.438.255-.077.457.01.614.14.217.096.486.243.843.124.427-.124.57-.39.684-.608.107-.202.191-.362.446-.439l-.249-.277c-.392.119-.385.338-.5.557-.106.202-.19.362-.445.439-.255.077-.414-.009-.615-.119-.216-.117-.486-.264-.878-.145-.39.119-.535.39-.649.608-.107.202-.19.362-.446.439-.254.078-.414-.008-.614-.118-.217-.118-.486-.264-.878-.145-.392.119-.535.389-.65.608-.107.202-.001.27-.206.348v.304"/></g><g><path fill="#bfb7aa" d="M21.849 120.544c.393-.118.735-.282.944-.68.107-.201.207-.362.447-.44.254-.076.413.01.614.119.217.119.486.265.878.146.392-.12.535-.39.65-.61.106-.201.19-.361.445-.438.255-.077.414.01.615.119.216.117.486.24.878.146.391-.12.534-.391.68-.61a.774.774 0 0 1 .51-.455l-.26-.331c-.393.118-.47.41-.584.628-.107.202-.19.362-.446.44-.22.077-.414-.01-.615-.12-.216-.117-.485-.263-.877-.144-.392.118-.535.39-.65.607-.078.202-.19.363-.445.44-.255.077-.414-.01-.633-.118-.198-.12-.468-.243-.86-.146-.392.119-.514.402-.649.608a1.427 1.427 0 0 1-.741.512l.099.327"/></g><g><path fill="#bfb7aa" d="M22.625 122.39c.436-.125.592-.39.717-.662.116-.222.21-.397.492-.48.284-.081.462.016.688.139.244.133.546.299.982.173.436-.126.592-.424.717-.663.116-.222.208-.397.491-.48.288-.082.462.016.688.14.243.133.546.298.982.172.437-.126.618-.424.718-.662.116-.223.208-.399.49-.48l-.222-.327c-.437.126-.484.387-.61.626-.116.223-.208.398-.492.48-.266.082-.46-.016-.687-.14-.243-.133-.579-.298-.982-.172-.436.126-.597.424-.717.663-.116.222-.208.398-.49.48-.285.08-.463-.016-.689-.14-.243-.133-.546-.298-.982-.172-.436.115-.592.424-.719.663-.114.222-.207.398-.49.452l.115.39"/></g><g><path fill="#bfb7aa" d="M23.544 124.115c.456-.115.611-.431.74-.676.118-.228.211-.439.505-.49.295-.08.481.051.718.152.254.14.571.314 1.023.189.47-.125.611-.431.74-.676.117-.228.211-.408.505-.49.294-.124.481.022.717.152.255.139.571.313 1.024.188.484-.125.611-.464.739-.675.117-.228.212-.408.506-.489l-.236-.3c-.452.085-.525.354-.627.599-.119.229-.212.401-.506.489-.294.08-.48-.021-.717-.151-.255-.14-.572-.314-1.024-.19a1.041 1.041 0 0 0-.738.677c-.119.228-.213.408-.507.49-.293.086-.48-.022-.717-.152-.254-.14-.57-.313-1.023-.188-.453.125-.612.426-.74.675-.118.228-.212.409-.506.49l.124.376"/></g><g><path fill="#bfb7aa" d="M24.798 126.075c.431-.131.588-.43.714-.67.118-.223.211-.405.488-.485.283-.086.457.009.677.08.237.177.532.337.962.205.431-.131.588-.43.715-.67.117-.223.21-.4.49-.535.28 0 .453.06.673.179.237.129.483.289.963.157.43-.131.587-.43.715-.67.117-.223.21-.399.489-.484l-.215-.322c-.469.14-.469.391-.607.632-.118.222-.21.399-.49.508-.28.062-.454 0-.674-.152-.237-.13-.532-.289-.962-.157-.43.131-.588.43-.736.67-.096.222-.189.399-.468.484-.28.086-.454-.01-.674-.128-.238-.13-.533-.29-.963-.157-.43.132-.588.44-.715.67-.117.223-.18.399-.49.485l.108.36"/></g><g><path fill="#bfb7aa" d="M26.126 127.792c.416-.125.567-.412.688-.642.113-.215.186-.384.472-.466.271-.081.44.01.653.127.23.124.516.28.931.189.416-.16.567-.447.688-.677.113-.215.202-.384.442-.465.3-.082.47.01.682.142.23.109.516.265.932.139.386-.139.566-.412.688-.643.112-.214.201-.383.471-.496l-.208-.28c-.416.125-.464.376-.565.607-.133.214-.222.383-.492.464-.27.082-.439-.01-.653-.126-.229-.125-.515-.28-.93-.155-.416.125-.567.412-.688.643-.113.215-.237.384-.473.466-.27.08-.439-.011-.652-.127-.229-.125-.516-.281-.93-.156-.417.126-.568.413-.69.664-.112.194-.202.364-.492.445l.126.347"/></g><g><path fill="#bfb7aa" d="M27.47 129.499c.392-.12.53-.39.65-.608.106-.203.19-.363.445-.44.255-.077.435.009.615.119.216.117.486.263.878.144.392-.118.535-.39.65-.607.106-.202.19-.362.445-.44.255-.077.413.009.614.119.233.118.486.214.878.145.355-.118.535-.39.65-.608.106-.202.19-.323.445-.44l-.196-.293c-.392.118-.438.356-.544.574-.115.203-.199.362-.454.439-.255.077-.414-.01-.615-.118-.216-.118-.485-.265-.877-.146-.393.119-.535.39-.65.609-.106.202-.19.362-.404.439-.297.077-.455-.01-.656-.12-.217-.116-.486-.267-.878-.143-.392.118-.535.389-.65.607-.107.203-.191.362-.446.439l.1.329"/></g><g><path fill="#bfb7aa" d="M28.847 130.906c.387-.135.366-.03.471-.251.098-.207.176-.37.427-.458.255-.088.414-.008.62.093.221.108.496.243.883.108.386-.135.518-.398.623-.634.129-.207.129-.37.428-.458.251-.088.413-.008.62.093.22.108.495.244.882.108.386-.134.518-.411.623-.633.098-.207-.197-.183.054-.271l-.125-.303c-.353.135-.133.204-.239.426-.114.207-.175.37-.426.458-.252.088-.414.008-.619-.093-.222-.091-.497-.244-.884-.091-.386.118-.517.394-.623.617-.098.207-.176.383-.427.458-.25.088-.414.008-.619-.075-.22-.126-.516-.262-.883-.126-.387.126-.519.412-.633.633-.089.207 0 .119-.29.207l.137.192"/></g><g><path fill="#dfdccd" d="M122.497 128.242v3.468l-37.98 1.004-46.38 2.1-.457-3.377 36.155-9.677 36.245 1.35 12.417 5.132"/></g><g><path fill="#f7f4ec" d="M78 114.82s3.865-4.472 10.712-4.198c6.847.274 11.596 2.556 14.79 2.739 3.196.182 4.498-.183 4.498-.183l14.493 15.063s-10.042.638-14.493 0c-4.497-.64-10.706-3.105-15.088-2.374-4.382.73-8.765 4.29-8.765 4.29L78 114.822"/></g><g><path fill="#f7f4ec" d="M78 114.821s-3.71-3.924-10.739-2.737c-7.03 1.186-8.4 3.56-13.969 4.746-5.57 1.17-7.03.547-7.03.547l-8.582 14.06s9.587-.366 15.703-1.279c6.118-.913 8.218-3.105 16.16-3.377 7.943-.275 14.608 3.377 14.608 3.377L78 114.821"/></g><g><path fill="#dfdccd" d="M78 114.819l6.147 15.337.853-.625-6.445-15.241-.555.529"/></g><g><path fill="#b0ac9f" d="M82.89 132.551l5.433-.228s-.617-1.21-3.173-1.46c-2.556-.252-2.99 1.688-2.99 1.688h.73"/></g><g><path fill="#b0ac9f" d="M85.4 131s2.51-2.538 5.432-3.405c2.922-.867 6.168 0 6.168 0s-3.452-.799-6.19.251c-2.738 1.05-5.136 3.356-5.136 3.356L85.4 131"/></g><g><path fill="#b0ac9f" d="M87.46 131.695c.119-.089 5.021-1.814 9.268-1.631 4.272.183 6.527.844 9.517 1.141 2.99.296 4.953.228 4.953.228s-2.624.251-5.478-.114c-2.853-.319-6.72-1.187-10.636-1.004-3.926.183-7.418 1.597-7.418 1.597l-.206-.217"/></g><g><path fill="#b0ac9f" d="M108 129s2.118.405 7.07.496c4.93.09 7.42-.285 7.42-.285v.3S112.445 130 108 129"/></g><g><path fill="#b0ac9f" d="M122.496 130.86s-3.31.14-6.004.14c-2.693 0-3.492-.14-3.492-.14s4.428.298 7 .229l2.496-.089v-.14"/></g><g><path fill="#b0ac9f" d="M52.351 131s-2.123.671-7.048 1.194c-4.927.522-7.473.36-7.473.36l.041.306S48 132.419 52.351 131"/></g><g><path fill="#b0ac9f" d="M38 134.194s3.338-.142 6-.405c2.7-.26 3.488-.422 3.488-.422s-4.386.633-6.915.834l-2.502.151-.071-.158"/></g><g><path fill="#b0ac9f" d="M86.86 131.546s3.583-2.546 6.848-2.897c3.292-.365 8.992 1.095 8.992 1.095S97 128.49 93.685 129c-3.333.448-6.825 2.546-6.825 2.546"/></g><g><path fill="#b0ac9f" d="M84.283 131.286s-2.638-1.975-5.6-2.523c-2.96-.549-6.173.384-6.173.384s3.421-.888 6.21-.147c2.787.686 5.28 2.476 5.28 2.476l.283-.19"/></g><g><path fill="#b0ac9f" d="M82.546 132.369c-.123-.069-5.107-1.215-9.335-.798-4.211.429-6.47 1.115-9.44 1.551-2.968.434-4.931.499-4.931.499s2.633.048 5.461-.436c2.829-.484 6.636-1.415 10.564-1.505 3.927-.09 7.487.884 7.487.884l.194-.195"/></g><g><path fill="#b0ac9f" d="M82.854 131.837s-3.71-1.908-6.985-2.012C72.59 129.72 67 131.304 67 131.304s5.556-1.409 8.908-1.213c3.35.197 6.946 1.746 6.946 1.746"/></g><g><path fill="#798a93" d="M91.713 124c.163.29.531.468.891.389 1.217-.267 4.108-.715 7.156.15 4.017 1.142 6.39 1.826 8.24 2.1.266.047.554.078.819.097.753.053 1.181-.875.597-1.388l-.308-.286c-.108-.13-.32-.205-.51-.213-.854-.037-3.392-.18-5.004-.63-1.963-.547-5.523-2.045-8.81-1.683-1.136.125-1.912.21-2.443.272-.552.063-.873.653-.628 1.192"/></g><g><path fill="#798a93" d="M84.151 124.612h-.001l.004-.297c.846-.764 4.918-4.185 11.05-3.818 4.061.245 6.591.94 8.796 1.554 1.557.421 3 .818 4.726 1.004 3.612.388 6.724.311 7.527.281a.204.204 0 0 1 .211.195.203.203 0 0 1-.196.215c-.817.031-3.953.108-7.586-.283-1.756-.189-3.217-.59-4.765-1.016-2.212-.609-4.719-1.298-8.737-1.539-5.989-.362-9.969 2.991-10.748 3.71l-.281-.006"/></g><g><path fill="#798a93" d="M82.861 122.483h-.001l.013-.297c.836-.728 4.896-3.974 10.768-4.015 4.546-.034 7.967 1.086 10.462 1.902 1.147.376 2.139.7 2.994.84 2.373.389 5.664.17 6.503.087.111 0 .21.093.22.204a.203.203 0 0 1-.189.223c-.855.067-4.186.286-6.631-.11-.856-.144-1.861-.473-3-.854-2.63-.851-5.87-1.91-10.357-1.881-5.75.04-9.71 3.224-10.5 3.913l-.282-.012"/></g><g><path fill="#798a93" d="M81.513 119.937v-.001a.205.205 0 0 1 .023-.297c.85-.639 4.914-3.639 11.284-3.794 4.596-.085 7.5.857 10.062 1.691 1.402.464 2.726.886 4.118 1.05 3 .358 4.625.173 5.127.087a.205.205 0 0 1 .232.15v.001a.205.205 0 0 1-.161.256c-.546.095-2.143.28-5.198-.08-1.48-.174-2.823-.612-4.246-1.074-2.53-.823-5.4-1.756-9.926-1.67-6.26.12-10.234 3.056-11.034 3.744l-.28-.063"/></g><g><path fill="#798a93" d="M80.795 117.47a.205.205 0 0 1 .041-.293c.885-.632 5.088-3.387 11.03-3.387l.134.001c4.774.033 7.319.908 9.364 1.61.876.302 1.636.599 2.448.722 2.324.458 4.912.333 5.64.286a.203.203 0 0 1 .217.186.205.205 0 0 1-.19.224c-.748.049-3.378.181-5.746-.293-.843-.165-1.65-.443-2.503-.736-2.017-.694-4.526-1.556-9.23-1.588h-.134c-5.866 0-9.953 2.709-10.79 3.308l-.28-.04"/></g><g><path fill="#798a93" d="M79.903 115.24c-.08-.089-.068-.24.025-.299.86-.678 4.976-3.564 11.719-2.833 4.723.512 7.268 1.249 9.127 1.787 1.164.337 2.083.603 3.157.722 2.232.248 3.613.19 4.069.155.136-.008.23.07.244.228.015.068-.07.173-.186.182-.503.038-1.892.097-4.173-.182-1.108-.098-2.042-.369-3.226-.71-1.843-.535-4.37-1.29-9.057-1.774-6.602-.718-10.602 2.114-11.42 2.746l-.28-.023"/></g><g><path fill="#798a93" d="M40.14 129.203a.195.195 0 0 1 .195-.203c.738 0 3.59-.211 9.593-1 3.848-.529 5.943-1.099 8.37-1.76 2.01-.549 4.292-1.17 7.963-1.834 7.2-1.304 13.925 1.353 15.136 1.87.107.045.154.17.105.274v.001a.206.206 0 0 1-.266.103c-1.168-.498-7.803-3.128-14.902-1.845-3.653.661-5.924 1.28-7.929 1.827-2.405.664-4.547 1.239-8.405 1.757-6 .804-8.89.977-9.647 1.01a.203.203 0 0 1-.213-.2"/></g><g><path fill="#798a93" d="M42 126.724v-.001c0-.111.097-.204.21-.207.906-.024 4.79-.175 9.533-1.042 2.655-.474 4.912-1.059 7.257-1.669 2.63-.66 5.306-1.343 8.765-1.982 5.991-1.109 11.423 1.247 12.495 1.752.106.05.148.176.094.28v.001c-.051.144-.17.144-.27.091-1.024-.485-6.363-2.807-12.244-1.72-3.446.637-6.115 1.317-8.695 1.976-2.396.612-4.659 1.19-7.33 1.675-4.815.871-8.673 1.024-9.595 1.049-.114.003-.22-.089-.22-.203"/></g><g><path fill="#798a93" d="M43.43 124.233v-.001c-.001-.112.088-.232.201-.232.873 0 4.48-.073 8.995-.623 3.079-.377 5.63-1.086 8.582-1.909 2.074-.578 4.219-1.176 6.792-1.739 5.665-1.215 10.073.618 11 1.066.138.05.18.205.124.283-.051.095-.124.135-.267.09-.857-.423-5.213-2.229-10.734-1.038-2.598.561-4.736 1.158-6.804 1.734-2.969.828-5.533 1.543-8.643 1.922a90.867 90.867 0 0 1-9.039.651.204.204 0 0 1-.207-.204"/></g><g><path fill="#798a93" d="M45.09 122c-.005-.09.081-.183.193-.19.828-.041 4.173-.238 9.397-.901 3.082-.391 4.93-1.111 6.884-1.909 1.936-.716 3.937-1.497 7.305-2.061 5.846-.939 8.43.312 9.131.753.083.067.102.21 0 .308l-.1.139.1-.139h-.245c-.601-.34-3.126-1.611-8.818-.656-3.326.558-5.307 1.329-7.223 2.075-1.98.772-3.85 1.5-6.982 1.898-5.233.683-8.59.862-9.428.904-.114.006-.21-.083-.214-.221"/></g><g><path fill="#798a93" d="M47.12 119.52v-.001a.204.204 0 0 1 .186-.222c1.01-.092 5.586-.522 8.909-1.123 1.712-.31 3.033-.94 4.563-1.67 1.774-.847 3.783-1.806 6.844-2.419 4.952-.99 8.693.915 9.552 1.362.103.057.135.19.071.29-.059.091-.178.121-.245.067-.829-.452-4.465-2.283-9.297-1.316-3.01.602-4.996 1.512-6.703 2.386-1.536.712-2.946 1.384-4.714 1.705-3.337.603-7.926 1.036-8.943 1.127a.204.204 0 0 1-.222-.186"/></g><g><path fill="#edbb8b" d="M51.701 77.227S48 86.249 45.64 85.806C42.472 85.213 39 70.8 39 70.8l-5.47.91s1.555 14.797 4.521 21.626c2.949 6.829 12.01 6.129 16.07-2.1 2.134-6.305-2.42-14.01-2.42-14.01"/></g><g><path fill="#edbb8b" d="M95.682 76.62s6.442 13.625 7.556 21.38c1.115 7.734 0 15.1 0 15.1l-5.413-1.475s-3.041-11.688-4.694-16c-1.652-4.313-5.481-14.017-5.481-14.017l8.032-4.988"/></g><g><path fill="#edbb8b" d="M97.825 110.62s-1.252.38-1.663 1.609c-.412 1.205-2.738 1.771-2.66 2.51.078.74 1.498.883 2.498.261.863-.564 2.292-.513 3.638.194 1.362.708 2.938 2.223 4.429 2.806 1.492.53 1.239-.383.632-1 1.112 1.226 1.997 1.732 2.224 1.454.228-.279 0-1.061 0-1.061s.38.097.405-.393c.025-.416-2.2-2.127-2.2-2.127s.658-.135 1.088.127c.429.32.657.725.884.56.228-.164.228-1.073-1.187-1.983-1.416-.91-4.044-1.951-4.044-1.951l-4.044-1.006"/></g><g><path fill="#edbb8b" d="M39 71.699s1.179-6.108.35-6.572c-.826-.464-1.35-.629-1.35-.629s-1.28-4.01-2.541-6.082c-1.262-2.074-2.582-2.305-2.369-.668.213 1.636 1.445 4.82 1.445 4.82s-.996.135-1.463.53c-.466.398-.51.808-.51.808s-1.245-.12-1.562.171c-.344.291-.375 1.282-.375 1.282s-.893.723-1.107 1.444c-.214.722 1.482 3.983 2.164 4.623.636.64 2.471 1.789 2.471 1.789L39 71.699"/></g><g><path fill="#daeeec" d="M67.682 67.883s-5.525-1.037-9.267.58c-3.74 1.618-7.026 7.273-8.681 11.424-1.656 4.113-3.243 5.625-4.36 5.256-1.117-.369-2.124-2.628-2.124-2.628s-1.25 4.178-4.094 4.902c-2.8.725-3.156-.505-3.387 0-.202.506-.607 6.117 4.802 10.008C46 101.317 52.512 97 54 93.465c-1 6.874-2.324 9.166-2.324 9.166s7.446 7.818 19.68 7.143c12.234-.673 17.539-5.93 17.539-5.93V88.686s3.491 6.819 4.249 8.486c.76 1.668 1.062 3.741 1.264 3.828l.202.115s-.61-1.743 3.993-2.679c4.556-.937 5.258.707 5.46.564.203-.16-.91-5.365-2.173-10.723C100.626 82.92 94.78 69 90 67.857c-4.793-1.146-9.8-.65-9.8-.65s-.892 2.941-5.962 3.143c-5.072.202-6.556-2.467-6.556-2.467"/></g><g><path fill="#add9cf" d="M68.343 66.103S68.555 70.16 74 70.16c5.37 0 5.37-4.42 5.37-4.42s3.766 1.164 3.816 1.363c.051.2-3.642 8.995-4.045 9.197C78.738 76.503 74 71 74 71s-3 5.637-3.906 5.62c-.86-.017-5.359-7.38-5.864-9.056 1.011-.716 4.113-1.461 4.113-1.461"/></g><g><path fill="#c6e4dc" d="M91.35 93.526s-1.967-5.79-2.439-9.766-.539-10.445-.809-9.57c-.269.877-.459 6.537-.459 6.537s-1.563-3.639-1.563-3.032c0 .606 1.306 5.054 1.563 8.154.257 3.1 1.248 13.95 1.248 13.95V88.684l2.458 4.842"/></g><g><path fill="#c6e4dc" d="M48.16 98.448s4.362-2.448 5.777-7.744c1.417-5.257 2.063-15.972 2.158-14.422.068 1.55.404 5.796.404 5.796l1.079-3.302s-.472 6.738-.135 6.132c.337-.607 5.796-7.682 4.111-5.055-1.685 2.63-3.554 7.616-5.324 12.872-1.82 5.275-3.766 10.638-3.766 10.638l-.784-.731L53.803 94s-1.718 4-5.643 4.448"/></g><g><path fill="#79727d" d="M46 101.558s2.637 1.224 3.674 3.245c1.036 2.022-2.275 4.55-5.182 3.993-2.907-.556-2.894-2.796-6.312-3.148.954-2.437 4.24-4.43 7.82-4.09"/></g></g></svg>