<svg xmlns="http://www.w3.org/2000/svg" width="176" height="158" viewBox="0 0 176 158"><g><g><path fill="#f5d1c3" d="M174.196 133.218c-2.257-3.52-7.566-4.568-11.196-5.938-8.693-3.28-17.46-6.21-26.172-9.28-15.77-5.51-30.562-9.111-47.366-7.688-30.411 2.564-58.999 14.303-83.24 32.618-1.052.07-1.765.71-2.06 1.57-.324.253-.656.5-.98.748-1.984 1.57-.182 4.087 1.92 4.058.086.619.448 1.19 1.247 1.533C38.223 164.376 77 155.149 110.204 152c17.996-1.78 36.7-2.532 54.477-5.867 6.265-1.133 14.319-5.392 9.515-12.915"/></g><g><g><path fill="#edbb8b" d="M50 59.373s5 .51 5.352-.14c.377-.65 2.802-13.566 3.368-14.124.565-.558 5.464 1.115 5.28 3.067-.194 1.953-1.206 16.444-2.431 18.674C60.344 69.082 50.063 69 50.063 69L50 59.373"/></g><g><path fill="#da3f33" d="M42.441 58L51 59.55l-.45 9.152L50.333 70 40 69.922 42.441 58"/></g><g><path fill="#f3f1ed" d="M82.5 134C41.355 134 8 131.538 8 128.5s33.355-5.5 74.5-5.5 74.5 2.462 74.5 5.5-33.355 5.5-74.5 5.5"/></g><g><path fill="#8ec0b2" d="M18 89.318s.257 7.513 1.54 14.6c1.284 7.082 3.851 18.504 3.851 18.504s1.54.513 4.108.513h4.022s1.702-11.59 1.75-15.091c.047-3.5.517-8.367.517-8.367h1.727l8.329 22.69s1.156 1.11 4.792.768c3.68-.342 4.364-1.11 4.364-1.11s-.685-13.896-1.882-19.53c-1.199-5.635-4.279-14.45-4.279-14.45L30.751 83 18 89.318"/></g><g><path fill="#edbb8b" d="M27.318 56s.508-1.182.595-2.64C28 51.9 27.526 50 27.526 50l8.653.896s.401 3.878.821 4.58c.328.701 1 1.007 1 1.007s-1.722 2.03-2.244 2.371c-.522.34-6.325.004-6.69-.197C28.703 58.457 27 57 27 57l.318-1"/></g><g><path fill="#e4aa81" d="M27.068 52.868L27 52.218v.003c0 .211.058.429.068.646M36 54a45.95 45.95 0 0 1-.295-2L36 54"/></g><g><path fill="#df915c" d="M32.067 55h-.472c-3.053-.146-4.512-2.141-4.54-2.179-.055-.205-.055-.41-.055-.611 1.092.174 2.278.276 3.562.276.557 0 1.134-.02 1.728-.06a30.343 30.343 0 0 0 1.573-.147c.795-.078 1.358-.183 1.638-.279h.204c.07.518.174 1.238.295 1.893C36 53.907 34.795 55 32.067 55"/></g><g><path fill="#edbb8b" d="M46.218 30.409s.279 2.164.863 3.591c.585 1.36 3.128 4.106 1.221 8.663s-7.6 8.657-15.587 9.273c-7.986.616-12.402-3.359-14.153-5.15C16.812 45 16 43.864 16 43.864s-.827 1.68-2.4 1.644c-1.6-.035-4.694-1.114-5.97-4.752-1.277-3.638 1.019-4.488 1.68-4.951.69-.463 1.149-.452 1.149-.452s-7.802-7.058-4.752-17.605C8.757 7.201 23 1.933 34.654 6.865 46.262 11.798 46.5 20.791 46.3 23.334c-.2 2.543-.3 5.666-.082 7.075"/></g><g><path fill="#df915c" d="M13.09 43c-.29 0-.645-.149-1.09-.504-1.495-1.337-1.57-2.18-1.52-2.83.052-.666.2-.84.2-.84s-.09-.028-.223-.028c-.244 0-.635.097-.881.647-.38.848-.159 1.607-.159 1.607s-.987-1.243.076-2.63c.228-.296.507-.422.883-.422 1.27 0 3.077 1.688 3.472 2.812.37 1.052.047 2.188-.758 2.188"/></g><g><path fill="#df915c" d="M34.57 37c-.07 0-.17 0-.31-.146-.411-.32-.431-1.195.656-2.113.57-.481 1.446-.741 2.217-.741.697 0 1.308.213 1.53.665.468.953.337.95.22 1.158-.02.028-.058.044-.106.044-.132 0-.332-.12-.367-.431-.03-.268-.237-.521-.856-.521-.363 0-.869.085-1.554.31-2 .634-1.268 1.642-1.268 1.642s-.027.133-.162.133"/></g><g><path fill="#352b26" d="M42.521 28s-1.411.186-1.521 2c-.066 1.723 0 3.71 1.45 4 1.4.227 2.55-1.146 2.55-2.63 0-1.483-.2-2.936-1.117-3.203C43 27.899 42.52 28 42.52 28"/></g><g><path fill="#d8854e" d="M21.148 32c-.148 0-.343-2.17.254-3.532C22 27 23.85 26 24.457 26h.09c.453.13.528.935.368 1.116-.158.182-1.419.293-2.393 1.072-.974.812-1.326 3.69-1.326 3.69-.014.122-.03.122-.048.122"/></g><g><path fill="#d8854e" d="M44.948 26h-.034s-.482-1.612-1.914-2a5.517 5.517 0 0 0-.948-.101c-.4 0-.704.101-.946.158-.242.08-.422.16-.574.16a.37.37 0 0 1-.036-.003c-.402-.037-.644-.782-.395-.96.125-.09.747-.254 1.505-.254.743 0 1.617.158 2.28.702 1.22.997 1.172 2.298 1.062 2.298"/></g><g><path fill="#e99a77" d="M23.886 41c-1.142 0-2.086-.272-1.886-1.088.404-1.27 4-1.773 4-1.773.334-.051.9-.139 1.46-.139.771 0 1.54.167 1.54.826 0 1.174-1.552 1.63-3.198 1.969a9.878 9.878 0 0 1-1.916.205"/></g><g><path fill="#e99a77" d="M43.342 36c-.813 0-1.485-.271-1.342-1.086.289-1.268 2.889-1.774 2.889-1.774.208-.051.614-.14 1.014-.14.55 0 1.097.167 1.097.824 0 1.176-1.11 1.63-2.286 1.97a5.146 5.146 0 0 1-1.372.206"/></g><g><path fill="#756c65" d="M42.69 30h-.348c-.824-.155-1.421-.692-1.342-1.23.084-.46.636-.77 1.31-.77h.348c.825.155 1.421.692 1.342 1.23-.083.46-.636.77-1.31.77"/></g><g><path fill="#fffffe" d="M43 29.49a.5.5 0 1 1 .489.51.5.5 0 0 1-.489-.51"/></g><g><path fill="#fffffe" d="M43.196 30.494a.305.305 0 1 1 .609.013.305.305 0 0 1-.61-.013"/></g><g><path fill="#352b26" d="M22.635 34.578s-1.034-1.578-.463-3.334c.57-1.71 3.367-1.954 4.369 1.178 1.001 3.131.206 4.252-.87 4.578-1.074.24-2.472-.91-3.036-2.421"/></g><g><path fill="#756c65" d="M22.697 34a.768.768 0 0 1-.697-.42c-.12-.451.17-1.075.696-1.395a1.18 1.18 0 0 1 .607-.185c.298 0 .547.146.697.421.12.45-.17 1.074-.696 1.394a1.18 1.18 0 0 1-.607.185"/></g><g><path fill="#fffffe" d="M24 33.642a.566.566 0 0 1 .357-.642.565.565 0 0 1 .643.358.565.565 0 0 1-.358.642.566.566 0 0 1-.642-.358"/></g><g><path fill="#fffffe" d="M24.208 33.586a.303.303 0 0 1 .205-.377.305.305 0 1 1-.205.378"/></g><g><path fill="#a53a3c" d="M33 39.751s2.415 1.249 4.938.418c2.523-.837 2.425-2.511 3.43-2.107 1.004.405 1.403 4.599-3.462 5.764C33 45 30.46 39.928 33 39.751"/></g><g><path fill="#dc3c3f" d="M35 42.61s1.103-1.385 3-1.61c1.8-.148 3 .403 3 .403s-1.094 1.232-3 1.519c-2 .287-3-.311-3-.311"/></g><g><path fill="#855637" d="M16.46 16.685S15.441 21 20.757 23.602c5.317 2.626 8.863.981 8.863.981s-3.343.049-5.027-.583c-1.686-.662-3.233-2.943-3.233-2.943s2.347 2.672 7.105 2.154c4.759-.518 6.767-2.7 6.767-2.7s-3.799 1.1-5.743 1.088c-1.945-.014-2.805-.735-2.805-.735s1.872.89 4.603.264c2.713-.627 3.495-1.003 3.495-1.003s-4.324.17-5.96-.78C27.187 18.395 26.31 17 26.31 17s2.313 2.634 5.997 2.784c1.48.06 2.693-.156 4.018-.372 1.904-.322 3.86-.643 6.675-.055 4.737.983 4.36 6.251 4.36 6.251s2.949-4.768-.172-9.258c-3.121-4.49-6.488-5.227-6.488-5.227s2.63.524 5.35 3.517c2.722 2.993 2.679 4.036 2.679 4.036S50 15.569 47 11.436C44 7.305 37.773 5.4 37.773 5.4s2.476.667 3.332.6c.895-.154.484-.882.484-.882s-1.352 1.018-3.455-.872C36 2.356 29.197-2.737 18.054 1.887 6.91 6.511 7.31 9.635 7.31 9.635L6.523 6.37S5.95 7.65 6 8.546a7.89 7.89 0 0 0 .428 1.578s-1.006-.056-2.676.876c-1.67.867-2.087 1.824-2.087 1.824s1.195-.905 1.808-1.045A60.02 60.02 0 0 0 5.3 11.3S0 12.93 0 20.614c0 7.684 5.549 10.878 5.325 13.926-.224 3.047-2.88 2.28-2.88 2.28s1.3 2.18 4.256.569c2.955-1.651 2.972-3.778 2.972-3.778s-.162 1.521-.378 2.091c-.216.57-.749 1.037-.749 1.037s2.685-1.41 2.55-4.647c-.096-3.237-.651-6.028-.69-8.469-.04-2.44 3.594-6.097 3.594-6.097S11.112 20.532 11.062 24c-.062 3.446 1.353 7.315 1.353 7.315s.174-4.404.49-7.003c.315-2.598 1.667-4.802 1.667-4.802s-1.246 3.213-1.244 4.36c.002 1.13.238 2.779.238 2.779s1.625-2.86 2.058-5.295c.434-2.435.836-4.67.836-4.67"/></g><g><path fill="#674028" d="M7.916 11.241S8.193 8.794 10.184 7c1.992-1.773 6.334-3 6.334-3s-4.917 1.907-6.127 3.626c-1.21 1.72-1.613 3.6-1.613 3.6s.803-1.569 2.155-2.456c1.351-.886 2.569-1.224 2.569-1.224s-2.237 1.38-2.79 2.025a34.713 34.713 0 0 0-1.179 1.481s1.011-1.241 6.322-2.403C21.165 7.49 27 8.916 27 8.916s-7-.068-10.243.622c-3.26.69-7.005 2.3-7.005 2.3s-.609.659-.385 1.588l.408 1.694s-1.018-1.036-.994-1.675c.023-.64.352-1.234.352-1.234s-1.665.44-3.427 2.69C3.945 17.15 5.172 22 5.172 22s-1.73-3.505-.713-6.313c1.016-2.81 4.025-3.885 4.025-3.885s-3.43-.058-5.395 2.508C1.123 16.875 1 18.326 1 18.326s.554-2.934 2.538-5.157c1.983-2.224 3.772-1.827 3.772-1.827s-.458-.51-1.387-.528C5 10.797 4.15 11 4.15 11s2.322-1.15 3.767.241"/></g><g><path fill="#674028" d="M38.452 5.606S33.83 2.302 29.805 2.47C25.782 2.637 24 3.51 24 3.51s3.731-2.326 8.73-1.202C37.73 3.431 40 6 40 6l-1.548-.394"/></g><g><path fill="#674028" d="M2.074 20s-.578 4.661 1.492 8C5.636 31.41 7.42 31.573 8 34.385 8.674 37.197 5.61 38 5.61 38s5.323-.818 4.246-4.857C8.78 29.103 3.654 31.283 2.074 20"/></g><g><path fill="#674028" d="M15 18s-3.774 3.189-4 5.644c-.192 2.455.602 5.356.693 7.116.092 1.735.041 2.24.041 2.24s-1.053-5.821-1.392-8.447c-.342-2.625 3.012-5.424 3.012-5.424S10.347 21 9.708 22.291c-.638 1.264-.622 2.15-.622 2.15s-.47-1.324.783-3.347C11.12 19.07 15 18 15 18"/></g><g><path fill="#674028" d="M16 15s1.31.154.93 3.68C16.552 22.206 14 27 14 27s1.828-5.213 2.204-8c.376-2.887-.204-4-.204-4"/></g><g><path fill="#674028" d="M18 16s2.274 5.583 6 7.39c3.69 1.808 9-.982 9-.982s-5.795 2.085-9.467-.408C19.86 19.416 18 16 18 16"/></g><g><path fill="#674028" d="M16 12.091s4.342-1.618 7.626 1.68c3.282 3.299 4.76 6.734 10.954 6.229 6.193-.515 7.689-1.384 10.42-.182C47.782 21 48 23 48 23s-.201-3.612-3.43-4.658c-1.704-.553-4.368-.223-6.936.107-2.297.295-4.517.551-5.904.253C28.794 18 27 15.877 27 15.877s3.43 2.203 5.785 2.247c2.353.045 5.215-.646 5.215-.646s-4.072.647-6.336-.016c-2.264-.664-5.446-5.317-9.375-6.207-3.93-.89-6.289.836-6.289.836"/></g><g><path fill="#674028" d="M48.918 19S46 13 41.3 11.347C36.616 9.649 34 9 34 9s5.896-.284 10.505 2.64c4.609 2.925 4.667 6.656 4.413 7.36"/></g><g><path fill="#9a7143" d="M27.297 16.277c-.297-.277-.416-.435-.416-.435s.3.158.783.472a5.528 5.528 0 0 0-.367-.037zm2.992.532c-1.16-.809-2.506-2.195-4.022-3.4a23.634 23.634 0 0 0 5.583-4.586c2.15-2.39 2.696-4.057 2.51-5.217 1.034.394 1.949.838 2.64 1.2l-.46.904S39 7 39.867 7.802c.452.453-.328.505-1.16.505l-.37-.002A21.42 21.42 0 0 0 38 8.303c-.433 0-.76.015-.803.103-.09.185.498.528 1.136.952a23.522 23.522 0 0 0-3.6-.295c-.296 0-.46.008-.46.008s1.782.419 5.04 1.48c-.554.26-2.313.298-3.572.298a94.3 94.3 0 0 1-1.228-.006c-.095 0-.164 0-.201.002-.465.03 2.193 1.25 2.94 1.99.25.247-.113.33-.721.33-1.223 0-3.44-.335-3.707-.35h-.007c-.365 0 1.788 1.835 1.183 1.96a2.353 2.353 0 0 1-.348.022c-1.023 0-3.536-.383-3.803-.624-.014-.013-.023-.02-.026-.02-.063 0 2.009 2.494 1.308 2.693a.842.842 0 0 1-.23.025 4.16 4.16 0 0 1-.612-.062zM17 16.782v-.062c.154-.018.468-.06.913-.142.087.215.285.52.507.883-.644-.31-1.196-.573-1.42-.68zM37.318 4.16a18.115 18.115 0 0 0-3.195-1.274C33.273 1.247 30.697 1 30.697 1c3.221.212 6.59 3.127 6.62 3.16M21.596 19h-.168c-.319-.235-1.497-.812-2.573-1.33-.405-.464-.7-.848-.854-1.102a26.085 26.085 0 0 0 6.253-2.08c.831.912 1.564 1.81 2.333 2.61.028.288.023.54-.475.793C26 18 25.846 18 25.688 18c-.424 0-.948-.21-1.422-.396-.474-.188-.896-.375-1.114-.375a.685.685 0 0 0-.152.023c-.259.19-.833 1.748-1.405 1.748"/></g><g><path fill="#815e2e" d="M36.696 5a21.627 21.627 0 0 0-2.475-1.251A2.65 2.65 0 0 0 34 3c1.209.398 2.206.87 3 1.327L36.696 5"/></g><g><path fill="#815e2e" d="M17.585 16.552l-.17-.083.17-.02v.103"/></g><g><path fill="#815e2e" d="M19 18l-.462-.19c-.235-.33-.416-.606-.538-.81h.059c.196.23.51.58.941 1"/></g><g><path fill="#815e2e" d="M26.32 17c-.765-.866-1.493-1.84-2.32-2.83.653-.341 1.324-.729 2-1.17 1.509 1.307 2.846 2.809 4 3.688-.361-.062-.788-.16-1.221-.258-.484-.11-.976-.22-1.388-.279-.48-.3-.779-.513-.779-.513s.143.188.388.473c0-.004-.088-.006-.14-.006-.263 0-.444.051-.493.181-.1.265-.066.498-.047.714"/></g><g><path fill="#815e2e" d="M38.83 11C35.708 9.574 34 9 34 9h.441c.636 0 1.907.053 3.45.398.376.352.77.745 1.042 1.156.123.186.067.332-.103.446"/></g><g><path fill="#9a7143" d="M9.27 26s-1.042-3.205-1.143-3.613c-.01-.044-.025-.064-.042-.064-.142 0-.48 1.38-.617 1.807-.016.05-.038.072-.064.072-.233 0-.829-1.697-1-2.202-.024 0-.052-.072-.083-.072-.208 0-.539 1.428-.743 2.38-.043.196-.095.278-.154.278-.27 0-.683-1.696-.97-2.021-.027-.032-.057-.046-.088-.046-.366 0-.975 1.983-1.241 2.319-.015.02-.033.028-.051.028-.332 0-1.161-2.866-1.277-3.21-.096-.49-.185-1.01-.266-1.561 0 0-.115.905-.066 2.184-.209.628-.465 1.558-.653 2.117-.069.202-.128.296-.181.296-.206 0-.333-1.365-.563-3.31C-.224 18.928.52 16 .52 16s-.105.564.145 1.292c-.112.358-.129.545-.129.545s.039-.2.132-.536c.332.933 1.234 2.134 3.698 2.76.297.939.634 1.6.634 1.6s-.173-.661-.3-1.519c1.133.262 2.116.359 2.945.359a9.13 9.13 0 0 0 1.966-.202 3.858 3.858 0 0 0-.077.133C8.342 22.62 8.79 24 8.79 24s-.016-.907.592-2.273c.26-.585.932-1.295 1.618-1.916C9.297 21.823 9.27 26 9.27 26"/></g><g><path fill="#815e2e" d="M1 18.499s0-.17.116-.499h.002C1 18.316 1 18.499 1 18.499M5 22s-.291-.586-.558-1.465c.102.027.201.051.3.075C4.856 21.436 5 22 5 22"/></g><g><path fill="#815e2e" d="M2.259 23c-.074-1.183.1-2 .1-2 .12.505.256 1 .4 1.43v-.001c-.012-.022-.03-.033-.048-.033-.094 0-.26.25-.452.604"/></g><g><path fill="#815e2e" d="M9.072 24s-.39-1.35.65-3.414l.066-.126C10.573 20.273 11 20 11 20c-.598.586-1.185 1.256-1.412 1.808-.53 1.29-.516 2.192-.516 2.192"/></g><g><path fill="#da3f33" d="M21.119 58s5.744-2.535 14.02-1.898c8.275.638 8.808 2.211 9.38 3.614.573 1.403 3.805 14.879 4.481 20.108.65 5.229 1 9.735 1 9.735l-9.306 4.804-3.606-7.78L34.699 95S28.28 94.873 24 93.47c-4.34-1.403-6.77-3.189-6.77-3.189S15.581 64.256 21.118 58"/></g><g><path fill="#fff9ee" d="M28 54s2.158 1.777 5.5 1.556c3.342-.22 3.342-1.556 3.342-1.556L40 56.702l-3.242 5.77L34 58.235 32.723 63 25 56.656 28 54"/></g><g><path fill="#b62d2b" d="M33 58s1.485 6.382 2.48 14.906c.985 8.46.941 13.983.941 13.983L37 88s.19-7.253-.889-15.683C35 63.888 33.747 59 33.747 59L33 58"/></g><g><path fill="#6ea494" d="M34.13 99.909L34 98.794s4-1.072 7.405-2.46C44.791 94.946 46 94 46 94s-2.177 2.776-4.171 3.785c-1.995 1.01-4.172 2.124-4.172 2.124l2.343.462-2.222.758L40 112l-4.243-12.091H34.13"/></g><g><path fill="#b7ddcf" d="M24 109.134s0-4.267 3.513-4.134c3.487.14 2.33 6.493 2.154 7.56-.176 1.068-2.769 1.976-4.395 1.068-1.625-.908-1.272-4.494-1.272-4.494"/></g><g><path fill="#b7ddcf" d="M50 104.324s1.433 3.863.868 5.676c-.565 1.72-4.127 1.146-4.779-1-.651-2.129-2.089-4.348 0-5.457 2.085-1.11 3.54-.353 3.911.78"/></g><g><path fill="#da3f33" d="M22 58s-1.343-.27-6.393 2.855C10.555 64 5.533 69.318 6 70.36 6.537 71.4 11.811 77 12.69 77c.879 0 6.404-4 6.404-4L22 58"/></g><g><path fill="#b62d2b" d="M17.271 73.234L23 69s-3.808 4.083-3.517 4.234c.292.15 2.137.27 2.137.27l-2.865.916L17 80l.271-6.766"/></g><g><path fill="#edbb8b" d="M11.288 76.847s-1.392 1.97-.65 3.084C11.381 81 16 84.398 16.822 84.14c.844-.258 2.003-.419 3.498-.547 1.495-.128 4.68 1.07 4.68 1.67 0 .6-1.128.558-1.907.215-.78-.343-2.426-.13-2.426-.13s1.928.114 2.62.379c.713.273 1.408.672 1.56 1.036.153.364 0 .727-.65.642-.65-.086-1.927-.514-2.274-.535-.346-.021-1.321 0-1.321 0s1.906.282 2.556.547c.65.266 1.19.583 1.278.91.086.363-.802.673-1.235.535-.433-.13-.975-.344-1.69-.407-.714-.065-1.775-.193-1.646-.065.135.128 1.019.086 1.971.3.953.214 1.164.429 1.164.75 0 .32-1.77.481-2.68.56-.91 0-2.382.114-3.514-.271-1.132-.386-14.15-3.907-15.58-8.533C-.203 76.57 5.6 71 5.6 71l5.69 5.847"/></g><g><path fill="#fff9ee" d="M5.598 68.092s-.255 1.485 2.967 4.573c3.221 3.087 5.198 2.89 5.435 3.433.202.542-1.688 1.784-1.688 1.997 0 .212-.312 1.135-1.312.851-1.069-.284-5.41-3.13-7-5.647-1.562-2.516-1-3.651-.302-3.864.7-.213.719-1.833 1.9-1.343"/></g><g><path fill="#da3f33" d="M44.079 121.735s-.285 5.74.227 6.015c.512.25 1.963.73 3.286.684 1.322-.046 2.005.003 2.005.003s1.963.682 5.163.563c3.24-.155 3.926-.748 4.011-1.114.086-.365.47-2.373 0-3.377-.47-1.004-2.048-1.918-3.37-2.328-1.324-.411-1.964-.571-1.964-.571l.354-.725c.283-.58.049-1.298-.512-1.559-.69-.326-1.804-.527-3.469-.021-2.942.894-2.73 2.328-2.73 2.328s-1.466-1.336-3.001.102"/></g><g><path fill="#fff9ee" d="M44 126s.348.441 2.096.592c1.747.151 2.904.037 3.332.113.474.076 2.336.719 5.326.643 2.988-.076 4.246-.671 4.246-.671s-.081 1.266-.212 1.436c-.13.17-1.512.887-4.726.887s-4.47-.594-4.863-.575c-.391.019-1.856.233-3.199-.081-1.249-.344-1.695-.545-1.837-.681C44 127.527 44 126 44 126"/></g><g><path fill="#fff9ee" d="M43.87 124s.577-.402 1.447-.29c.87.112 1.683.213 1.773-.022.049-.235.08-2.034 3.289-2.532 3.207-.498 3.259.787 3.19 1.237-.067.45-.241.782-.241.782s.774-.653.672-1.746c-.124-1.092-1.43-1.75-4.46-1.269-3.03.482-2.917 2.377-2.917 2.377s-.623-1.043-2.563-.273c-1.902.736-.781 1.994-.19 1.736"/></g><g><path fill="#fff9ee" d="M52.465 122.16s-.592-.443-2.161.144c-1.57.588-2.304 2.097-2.304 2.431 0 .333.609.373.912 0 .304-.372.294-1.12 1.608-1.843C52.09 122 53 122.31 53 122.31l-.535-.148"/></g><g><path fill="#fff9ee" d="M54.073 122s-.887 0-1.75.64c-.865.633-1.323 1.646-1.323 1.972 0 .326.39.597.763.163.373-.435.47-1.32 1.457-1.954.987-.635 1.78-.529 1.78-.529l-.927-.292"/></g><g><path fill="#fff9ee" d="M44 123s1 .054 2 1.233c.902 1.178 1 2.767 1 2.767l-.293-.09s-.157-1.552-.939-2.552c-.768-1-1.768-1.143-1.768-1.143V123"/></g><g><path fill="#da3f33" d="M30.896 122.758l-.705-.522s.594-2.095-2.985-2.236c-3.578-.13-3.273 2.236-3.273 2.236s-.933-.407-1.121 0c-.208.408-.374 2.175-.374 2.945 0 .819-.829 1.819-.207 3.533.622 1.72 3.939 2.536 8.168 2.219 4.228-.318 3.772-2.808 3.317-4.212-.457-1.405-2.939-3.06-2.82-3.963"/></g><g><path fill="#fff9ee" d="M22 127s.611 1.715 6 1.543c5.432-.17 5.92-1.274 5.92-1.274s.18.731 0 1.593c-.178.88-.92 1.384-1.062 1.519-.19.135-2.911.857-5.692.539-2.78-.318-4.375-.92-4.853-2.022C21.835 127.821 22 127 22 127"/></g><g><path fill="#fff9ee" d="M31.614 124l-.83-.301s.5-2.458-3.095-2.414c-3.596.044-3.573 2.259-3.573 2.259s-.5-.266-1.046-.222c-.547.044-.515.555-.515.555s-1.01-.63-.305-1.235c.75-.642 1.365-.162 1.365-.162s.16-2.48 4.21-2.48 3.39 3.056 3.39 3.056.342-.177.683.244c.341.42-.284.7-.284.7"/></g><g><path fill="#fff9ee" d="M24.089 123.427c-.001-.052.663-1.162 3.117-1.427 2.677-.228 3.684 1.28 3.794 1.551.062.273-.08.585-.44.386-.362-.199-1.248-1.502-3.213-1.276-1.965.226-2.667 1.063-3.103 1.277-.436.214-.155-.51-.155-.51"/></g><g><path fill="#fff9ee" d="M23.102 125.438c0-.052.76-1.166 3.565-1.438 3.06-.233 4.208 1.277 4.333 1.55.07.273-.091.586-.504.387-.413-.2-1.423-1.504-3.669-1.273-2.247.23-3.05 1.07-3.548 1.336-.498.166-.177-.562-.177-.562"/></g><g><path fill="#fff9ee" d="M52.274 59.13s1.027.751.638 4.87c-.39 4.088-.84 5.481-1.182 5.68-.342.198-.383-.084-.73.01-.273.092-.5.31-.865.31C49.77 69.939 49 70 49 70s.91-2.707 1-6.111c0-3.404-.77-5.269-.593-5.442.179-.174.76-.755.886-.236.126.52.489.253.707.22.178-.034.446.014.552.182.106.167.545.302.722.518"/></g><g><path fill="#b5afa6" d="M10.105 84.468c-.989 3.964 5.102 8.757 13.605 10.708 8.502 1.95 16.196.319 17.185-3.644.989-3.964-5.102-8.757-13.605-10.708-8.502-1.95-16.196-.319-17.185 3.644"/></g><g><path fill="#f2e8dc" d="M10.105 83.468c-.989 3.963 5.102 8.758 13.605 10.708 8.502 1.95 16.196.32 17.185-3.644.989-3.963-5.102-8.757-13.605-10.708-8.502-1.95-16.196-.32-17.185 3.644"/></g><g><path fill="#51463c" d="M17 80c-.206 1 1.39 2.219 3.587 2.751 2.197.533 4.163.181 4.413-.751.207-1-1.39-2.219-3.586-2.751-2.197-.534-4.163-.181-4.414.751"/></g><g><path fill="#edbb8b" d="M17.92 79.753S21.29 78 22.397 78s1.717 0 1.603.395c-.149.434-1.25 1.442-1.821 1.767-.571.324-.863 1.184-.838 1.482.024.297.378 1.356.378 1.356s-1.94-.299-3.31-1.182C17 80.936 17 80.157 17 80.157l.92-.404"/></g><g><path fill="#4e85b8" d="M25 79.881c-.153.755.817 1.644 2.187 1.985 1.37.342 2.62.007 2.813-.747.153-.754-.817-1.643-2.187-1.985-1.37-.342-2.62-.007-2.813.747"/></g><g><path fill="#5dc1d2" d="M31 82.881c-.154.755.816 1.644 2.186 1.985 1.37.342 2.62.007 2.814-.747.153-.754-.817-1.643-2.186-1.985-1.37-.342-2.62-.007-2.814.747"/></g><g><path fill="#63b450" d="M35 86.881c-.153.755.817 1.643 2.187 1.985 1.37.342 2.62.008 2.813-.747.153-.755-.817-1.643-2.187-1.985-1.37-.342-2.62-.007-2.813.747"/></g><g><path fill="#da3435" d="M30 90.881c-.153.754.817 1.643 2.187 1.985 1.37.342 2.62.007 2.813-.747.153-.754-.817-1.643-2.187-1.985-1.37-.342-2.62-.007-2.813.747"/></g><g><path fill="#e78d39" d="M24 90.88c-.153.755.817 1.644 2.187 1.986 1.37.342 2.62.007 2.813-.747.153-.755-.817-1.644-2.187-1.985-1.37-.342-2.62-.008-2.813.747"/></g><g><path fill="#edce3c" d="M18 89.881c-.153.755.817 1.643 2.187 1.985 1.37.342 2.62.007 2.813-.747.153-.755-.817-1.644-2.187-1.985-1.37-.342-2.62-.008-2.813.747"/></g><g><path fill="#714e8f" d="M13 85.88c-.153.756.817 1.644 2.187 1.986 1.37.342 2.62.007 2.813-.747.153-.755-.817-1.643-2.187-1.985-1.37-.342-2.62-.008-2.813.747"/></g><g><path fill="#8a4b28" d="M66.644 47c-.22-.11-14.286-12.12-14.574-12.27-.289-.152.279-1.73 2.418.27C56.628 37 67 46.548 67 46.548l-.356.452"/></g><g><path fill="#43271b" d="M74 53s-1.949-1.9-3.642-2.084c-1.693-.184-4.303-1.86-3.011-3.41 1.29-1.506 4.18.805 5.404 2.494C74 51.683 74 53 74 53"/></g><g><path fill="#edbb8b" d="M60.104 44.928s-.234-3.22 0-3.764c.233-.545 1.094-1.741 1.094-1.741S62 37.447 63 38.153c1.081.705 3.259 1.483 3.91 2.223.651.74 1.423 1.624.937 3.375-.484 1.741-1.678 4-2.473 4.249-.796.221-4.922-2.602-5.27-3.072"/></g><g><path fill="#8a4b28" d="M143 37.61L136.289 83H130l11.536-54L143 32.124v5.487"/></g><g><path fill="#8a4b28" d="M142 128h3V17h-3z"/></g><g><path fill="#8a4b28" d="M84 128h3V38h-3z"/></g><g><path fill="#ae734e" d="M130 83h4.402L145 17h-4.402L130 83"/></g><g><path fill="#ae734e" d="M74 83h4.402L89 17h-4.402L74 83"/></g><g><path fill="#ae734e" d="M87 22h53v-5H87z"/></g><g><path fill="#ae734e" d="M78 83h53v-5H78z"/></g><g><path fill="#413e39" d="M129 24h4.41L135 14h-4.41L129 24"/></g><g><path fill="#413e39" d="M92 24h4.41L98 14h-4.41L92 24"/></g><g><path fill="#faf2e9" d="M140 22H89.23L80 78h50.057L140 22"/></g><g><path fill="#8a4b28" d="M142.158 98H145l-8.158-15H134l8.158 15"/></g><g><path fill="#8a4b28" d="M83.159 98H86l-8.158-15H75l8.159 15"/></g><g><path fill="#8a4b28" d="M132 128h15v-3h-15z"/></g><g><path fill="#8a4b28" d="M73 128h15v-3H73z"/></g><g><path fill="#fadb48" d="M98.158 39.688l-4.824-4.765a1.139 1.139 0 0 1-.03-1.58 1.068 1.068 0 0 1 1.538-.031l4.824 4.765c.433.428.447 1.136.03 1.58a1.068 1.068 0 0 1-1.538.031"/></g><g><path fill="#fadb48" d="M87.083 55.354c-.233-.53.043-1.136.614-1.354l7.764-2.923c.539-.216 1.224.04 1.456.57.233.53-.043 1.135-.614 1.353l-7.764 2.924c-.539.215-1.223-.04-1.456-.57"/></g><g><path fill="#fadb48" d="M95.703 47l-5.812-1c-.593-.123-.984-.645-.891-1.187.131-.542.703-.898 1.297-.813l5.812 1c.594.122.984.645.891 1.186-.132.542-.703.899-1.297.814"/></g><g><path fill="#fadb48" d="M104.635 36L104 32.345c-.09-.631.35-1.226 1-1.345a1.208 1.208 0 0 1 1.365 1l.635 3.656c.09.63-.35 1.225-1 1.344a1.208 1.208 0 0 1-1.365-1"/></g><g><path fill="#fadb48" d="M113.498 37.805c-.498-.345-.656-1.028-.293-1.527l5.69-7.805c.363-.473 1.105-.623 1.607-.278.498.345.656 1.029.292 1.527l-5.689 7.805c-.363.473-1.105.623-1.607.278"/></g><g><path fill="#fadb48" d="M119 40.166c-.1-.575.258-1.166.828-1.27l3.887-.896a1.133 1.133 0 0 1 1.285.834c.101.575-.258 1.166-.827 1.27l-3.888.896a1.134 1.134 0 0 1-1.285-.834"/></g><g><path fill="#fadb48" d="M127.651 51l-8.827-2c-.582-.176-.937-.715-.824-1.247.178-.532.767-.856 1.349-.753l8.827 2c.582.175.937.714.824 1.247-.178.532-.767.856-1.349.753"/></g><g><path fill="#fadb48" d="M95.296 59.666c-.43-.41-.386-1.039.097-1.403l2.662-2.012c.482-.365 1.221-.328 1.65.083.429.41.385 1.039-.098 1.403l-2.662 2.012c-.482.365-1.22.327-1.65-.083"/></g><g><path fill="#fadb48" d="M106.06 74c-.621 0-1.06-.514-1.06-1.07l.745-10.982c.037-.556.572-.948 1.195-.948.622 0 1.06.514 1.06 1.07l-.744 10.982c-.037.556-.573.948-1.195.948"/></g><g><path fill="#fadb48" d="M113.126 62.456l-1.02-2.019a.99.99 0 0 1 .438-1.33c.456-.247 1.083-.051 1.33.437l1.02 2.019a.992.992 0 0 1-.438 1.33c-.456.247-1.083.052-1.33-.437"/></g><g><path fill="#fadb48" d="M127.396 63.845l-10.873-6.762c-.523-.314-.674-1-.375-1.533a1.02 1.02 0 0 1 1.456-.394l10.873 6.761c.523.314.674 1 .375 1.532-.299.551-.95.71-1.456.396"/></g><g><path fill="#fadb48" d="M105.33 38.878S99.362 41 99 48c-.332 7 5.356 10.434 11.369 8.442 6.01-1.992 7.331-11.746 3.373-16.039-3.958-4.293-8.412-1.525-8.412-1.525"/></g><g><path fill="#b62d2b" d="M46.066 70L44 61s2.42 7.623 2.614 7.623C46.808 68.623 50 69 50 69l-.274 1h-3.66"/></g></g></g></svg>