<svg xmlns="http://www.w3.org/2000/svg" width="36" height="36" viewBox="0 0 36 36"><g><g><path fill="none" stroke="#b02c44" stroke-linecap="round" stroke-linejoin="round" stroke-miterlimit="20" stroke-width="2.5" d="M2.25 30.25v0a3.5 3.5 0 0 0 3.5 3.5"/></g><g><path fill="none" stroke="#b02c44" stroke-linecap="round" stroke-linejoin="round" stroke-miterlimit="20" stroke-width="2.5" d="M2.255 5.75v24.5"/></g><g><path fill="none" stroke="#b02c44" stroke-linecap="round" stroke-linejoin="round" stroke-miterlimit="20" stroke-width="2.5" d="M12.75 33.755h-7"/></g><g><path fill="none" stroke="#b02c44" stroke-linecap="round" stroke-linejoin="round" stroke-miterlimit="20" stroke-width="2.5" d="M33.75 5.75v0a3.5 3.5 0 0 0-3.5-3.5"/></g><g><path fill="none" stroke="#b02c44" stroke-linecap="round" stroke-linejoin="round" stroke-miterlimit="20" stroke-width="2.5" d="M33.755 11V5.75"/></g><g><path fill="none" stroke="#b02c44" stroke-linecap="round" stroke-linejoin="round" stroke-miterlimit="20" stroke-width="2.5" d="M5.75 2.255h24.5"/></g><g><path fill="none" stroke="#b02c44" stroke-linecap="round" stroke-linejoin="round" stroke-miterlimit="20" stroke-width="2.5" d="M2.25 5.75v0a3.5 3.5 0 0 1 3.5-3.5"/></g><g><path fill="none" stroke="#b02c44" stroke-linecap="round" stroke-linejoin="round" stroke-miterlimit="20" stroke-width="2.5" d="M11.875 26.86v0a2.625 2.625 0 0 1-2.625-2.625v0a2.625 2.625 0 0 1 2.625-2.625v0a2.625 2.625 0 0 1 2.625 2.625v0a2.625 2.625 0 0 1-2.625 2.625z"/></g><g><path fill="none" stroke="#b02c44" stroke-linecap="round" stroke-linejoin="round" stroke-miterlimit="20" stroke-width="2.5" d="M9.25 9.355h14"/></g><g><path fill="none" stroke="#b02c44" stroke-linecap="round" stroke-linejoin="round" stroke-miterlimit="20" stroke-width="2.5" d="M9.25 15.485H18"/></g><g><path fill="none" stroke="#b02c44" stroke-linecap="round" stroke-linejoin="round" stroke-miterlimit="20" stroke-width="2.5" d="M20.62 32.875v0-.71 0a3.675 3.675 0 0 1 3.664-3.665h5.797v0a3.675 3.675 0 0 1 3.664 3.664v.711a.875.875 0 0 1-.875.875H21.495v0a.868.868 0 0 1-.875-.875v0z"/></g><g><path fill="none" stroke="#b02c44" stroke-linecap="round" stroke-linejoin="round" stroke-miterlimit="20" stroke-width="2.5" d="M23.69 20.616v0a3.5 3.5 0 1 1 3.5 3.514h0a3.5 3.5 0 0 1-3.5-3.5v-.014z"/></g></g></svg>