<svg xmlns="http://www.w3.org/2000/svg" width="36" height="36" viewBox="0 0 36 36"><g><g><g><path fill="none" stroke="#b02c44" stroke-linecap="round" stroke-linejoin="round" stroke-miterlimit="20" stroke-width="2.5" d="M18 19.105c0-.61.495-1.105 1.105-1.105h13.54c.61 0 1.105.495 1.105 1.105v13.54c0 .61-.495 1.105-1.105 1.105h-13.54c-.61 0-1.105-.495-1.105-1.105z"/></g><g><path fill="none" stroke="#b02c44" stroke-linecap="round" stroke-linejoin="round" stroke-miterlimit="20" stroke-width="2.5" d="M2.25 19.105c0-.61.495-1.105 1.105-1.105h13.54c.61 0 1.105.495 1.105 1.105v13.54c0 .61-.495 1.105-1.105 1.105H3.355c-.61 0-1.105-.495-1.105-1.105z"/></g><g><path fill="none" stroke="#b02c44" stroke-linecap="round" stroke-linejoin="round" stroke-miterlimit="20" stroke-width="2.5" d="M10.13 3.355c0-.61.495-1.105 1.105-1.105h13.54c.61 0 1.105.495 1.105 1.105v13.54c0 .61-.495 1.105-1.105 1.105h-13.54c-.61 0-1.105-.495-1.105-1.105z"/></g><g><path fill="none" stroke="#b02c44" stroke-linecap="round" stroke-linejoin="round" stroke-miterlimit="20" stroke-width="2.5" d="M7.94 23.69v0h4.375v4.375H7.94v0z"/></g><g><path fill="none" stroke="#b02c44" stroke-linecap="round" stroke-linejoin="round" stroke-miterlimit="20" stroke-width="2.5" d="M23.32 24.125c0-.444.36-.805.805-.805h3.495c.444 0 .805.36.805.805v3.495c0 .444-.36.805-.805.805h-3.495a.805.805 0 0 1-.805-.805z"/></g></g></g></svg>