<svg xmlns="http://www.w3.org/2000/svg" width="32" height="36" viewBox="0 0 32 36"><g><g><g><path fill="none" stroke="#b02c44" stroke-linecap="round" stroke-linejoin="round" stroke-miterlimit="20" stroke-width="2.5" d="M16 12.75a4.376 4.376 0 0 0 4.38-4.375C20.38 6 18.421 4 16 4c-2.411 0-4.37 2-4.37 4.375A4.374 4.374 0 0 0 16 12.75z"/></g><g><path fill="none" stroke="#b02c44" stroke-linecap="round" stroke-linejoin="round" stroke-miterlimit="20" stroke-width="2.5" d="M7.25 20.302c0-.305.247-.552.552-.552h16.396c.305 0 .552.247.552.552v5.896a.552.552 0 0 1-.552.552H7.802a.552.552 0 0 1-.552-.552z"/></g><g><path fill="none" stroke="#b02c44" stroke-linecap="round" stroke-linejoin="round" stroke-miterlimit="20" stroke-width="2.5" d="M2 27.302c0-.305.247-.552.552-.552h26.896c.305 0 .552.247.552.552v5.896a.552.552 0 0 1-.552.552H2.552A.552.552 0 0 1 2 33.198z"/></g><g><path fill="none" stroke="#b02c44" stroke-linecap="round" stroke-linejoin="round" stroke-miterlimit="20" stroke-width="2.5" d="M16 2.25V4"/></g><g><path fill="none" stroke="#b02c44" stroke-linecap="round" stroke-linejoin="round" stroke-miterlimit="20" stroke-width="2.5" d="M9.88 13.302c0-.305.247-.552.552-.552h11.146c.305 0 .552.247.552.552v5.896a.552.552 0 0 1-.552.552H10.432a.552.552 0 0 1-.552-.552z"/></g></g></g></svg>