<svg xmlns="http://www.w3.org/2000/svg" width="36" height="33" viewBox="0 0 36 33"><g><g><path fill="none" stroke="#b02c44" stroke-linecap="round" stroke-linejoin="round" stroke-miterlimit="20" stroke-width="2.5" d="M21.496 13.37v0l-4.371 4.376v0L14.5 15.12v0"/></g><g><path fill="none" stroke="#b02c44" stroke-linecap="round" stroke-linejoin="round" stroke-miterlimit="20" stroke-width="2.5" d="M18 2C9.302 2 2.25 7.878 2.25 15.12a12.472 12.472 0 0 0 6.352 10.496A10.302 10.302 0 0 1 7 28.49c-.323.51-.314 1.23.062 1.75.377.521 1.04.76 1.657.57a18.756 18.756 0 0 0 5.851-2.885c1.131.212 2.28.317 3.43.315 8.698 0 15.75-5.878 15.75-13.12C33.75 7.878 26.698 2 18 2z"/></g></g></svg>