<svg xmlns="http://www.w3.org/2000/svg" width="102" height="73" viewBox="0 0 102 73"><g><g><path fill="#f1bc68" d="M72 5.908c.195-1.412.92-2.77 2.205-2.583C75.472 3.513 76 5 76.33 6.251c.53 2.178.942 4.385 1.45 6.566.22 1.015.68 4.429 1.414 1.918C80.432 10.51 81.081 6 82 1.711c.119-.56.272-1.177.742-1.506.67-.473 1.664-.069 2.11.621.445.69.49 1.557.522 2.38l.25 6.49c.044 1.128-.414 5.08.543 5.74.833-1.123 1.173-2.619 1.546-3.955.397-1.423 1.106-2.684 1.705-4.045.362-.82 1.184-2.436 2.27-1.539.312.267.483.68.612 1.103.492 1.483.425 3.094.774 4.633.378 1.665 1.265 1.423 2.029.123C96.116 10 97 8.223 98 6.457c.506-.99 1-2.457 1.836-3.262 2.372-2.33 2.25 4.317 2.09 5.31-.04.242-.083.495-.13.722A60.875 60.875 0 0 1 94.734 28c-2.033 3.458-5.09 7.103-9.119 7-5.43-.143-8.099-6.471-9.907-10.711C73.21 18.434 72 12.243 72 5.908"/></g><g><path fill="#f1bc68" d="M83 73l-2-.31a189.91 189.91 0 0 0 2.823-41.614L85.829 31c.595 14-.364 28.154-2.829 42"/></g><g><path fill="#f1bc68" d="M38.758 28.292C38 26.95 37.403 25.592 37 24.09c-.333-.951-.59-1.91-.818-2.875-.266-1.127-.372-2.566.63-3.214 1.76-1.07 2.934 1.075 3.518 2.398.233.533.432 1.824.872 2.21.798.731.408-2.13.357-2.476-.381-2.616-.559-5.253-.68-7.897-.022-.845.121-1.903.942-2.171 1.69-.548 3 2.584 3.557 3.627.719 1.309 1.362 2.74 1.927 4.158.165.417.994 3.151 1.843 2.47.46-.37.04-1.533-.035-1.993-.195-1.195-.464-2.482.067-3.578.43-.887 1.558-1.478 2.189-.474.393.623.746 1.27 1.058 1.934.28.601.432 1.365.853 1.885.44.548.847.357 1.037-.223.336-1.022.147-2.11.172-3.164.026-1.128.452-2.16 1.003-3.136.279-.495.9-1.446 1.508-1.485.577-.032 1.147.54 1.401.915.675 1.075.661 2.518.523 3.702L56.757 33.26c-.257 2.192-.666 4.653-2.513 5.94-1.244.894-3.03.986-4.544.54-1.228-.357-2.315-1.032-3.263-1.863-1.437-1.269-2.965-2.68-4.181-4.168A27.435 27.435 0 0 1 39.704 30c-.325-.58-.643-1.142-.946-1.708"/></g><g><path fill="#f1bc68" d="M58.126 66A103.515 103.515 0 0 0 50 36.762L51.726 36A105.292 105.292 0 0 1 60 65.768L58.126 66"/></g><g><path fill="#f1bc68" d="M.737 22.408c-.665-1.465-1.19-3.322-.146-4.56.936-1.105 2.76-1.095 4.024-.366 1.265.73 2.102 1.984 2.892 3.196l2.348 3.601c.297.455 1.721 3.19 2.378 2.883.767-.353-.557-3.03-.762-3.545-.471-1.297-1.227-2.516-1.754-3.812-.365-.899-1.09-2.992-.216-3.735 1.774-1.512 4.242 1.93 5.068 3.128.87 1.237 1.337 2.72 2.02 4.06.671 1.314 1.524 2.92 2.593 3.97.942.92.582-.958.298-1.483a35.036 35.036 0 0 1-3.04-7.653c-.16-.595-.638-1.705.018-2.17.89-.628 1.897.789 2.303 1.395.653.969 1.076 2.061 1.765 3.02.106.148.235.303.416.327 1.268.176.35-2.783.193-3.206a31.803 31.803 0 0 1-1.346-4.736c-.25-1.244-.91-2.868.576-3.552 1.83-.838 4.037 1.625 4.937 2.91 1.459 2.08 2.106 4.592 2.636 7.062.92 4.288 1.57 8.633 1.948 12.999.293 3.382.198 7.307-2.469 9.47-.854.695-1.892 1.118-2.983 1.287C21 43.43 17.422 41.795 14.665 40c-1.28-.89-2.46-2-3.593-3-2.425-2.22-4.628-4.662-6.498-7.34-.836-1.198-1.574-2.438-2.307-3.717-.64-1.167-.99-2.34-1.53-3.535"/></g><g><path fill="#f1bc68" d="M40.288 73A167.182 167.182 0 0 0 25 40l1.542-1A170.176 170.176 0 0 1 42 72.398L40.288 73"/></g></g></svg>