<svg xmlns="http://www.w3.org/2000/svg" width="115" height="113" viewBox="0 0 115 113"><g><g><g><path fill="#f5d1c3" d="M60.482 32.08c3.288-.08 6.59-1.71 5.187-5.698-1.56-4.382-7.28-4.622-11.35-3.523 1.115-4.165.488-10.373-4.928-9.859-4.977.536-7.85 6.598-5.71 10.76-3.42-.996-7.681-1.558-9.31 2-.928 2.042.039 4.444 1.229 6.15 1.4 1.972 2.848 2.357 4.857 2.866C39 37.281 40.503 41 43.156 42.39c3.49 1.809 7.096-.799 9.412-3.39 1.864 3.188 5.817 7.343 9.13 3.38 2.557-3.064 1.302-7.547-1.216-10.3"/></g><g><path fill="#f5d1c3" d="M28.908 39.61c-1.007-1.505-2.31-2.431-3.832-2.82 2.173-2.271 2.98-6.19.68-8.577-2.342-2.428-5.03-2.213-7.189-.822C18 25 16 23 13 23c-5-.053-5.753 4.516-4.619 8.348-.381-.029-.662-.04-.94-.029-3.096-.593-6.734-.135-7.361 3.397C-.744 39.356 5 41.808 9 42.809 7.237 44.225 6.064 46 6.497 48.58c.437 2.646 1.99 4.855 4.448 5.85 4.949 2.005 8.679-1.552 9.055-6.19 3.23 2.428 8.69 4.841 10.67.222.996-2.32-.455-6.896-1.762-8.851"/></g><g><path fill="#f5d1c3" d="M58.82 59c1.737-2.262 3.18-5.89.18-7.47-3.282-1.709-4.945 1.03-5.588 3.742-2.412-2.988-6.873-5.122-9.976-2.162-3.717 3.542.564 7.117 4.026 8.457-2.376 2.717-3.956 7.433.394 9.037 1.608.582 3.54.579 4.955-.39C54.55 69 55 67.444 55.246 65.696 57.342 68.348 60.798 71 62.531 67c1.469-3.392-.713-6.82-3.71-8"/></g><g><path fill="#f5d1c3" d="M103.894 64.117C104.862 58.773 99 54.185 94 53.892c1.658-4.108 2.802-11.892-3.29-10.784-3.617.66-5.627 3.527-6.126 6.744C82.667 47.357 80.072 45.563 77 47c-3.726 1.83-2.619 6-.748 9-3.118.055-6.104 2.846-5.028 6.236C73 67.81 78 69.832 82.484 67.427 82 72.107 84 78.057 89.802 76.84c5.057-1.057 5.355-6.191 4.344-10.48 3.573 2.48 8.752 3.274 9.748-2.242"/></g><g><path fill="#f5d1c3" d="M72.74 101.086c1.86-2.014 4.26-5.378 2.129-7.346-2.047-1.85-5 .62-6.32 2.718-1.61-3.238-4.71-6.002-8.395-3.458-3.613 2.465-2.273 7.438.147 10.36-2.437 2.283-5.301 7.274-1.301 9.375 1.28.692 3.75-.132 5-.649 2-.871 3.287-2.43 4.08-4.334 2.38 2.585 6.696 5.647 9.054 2.025 2.473-3.777-.778-7.633-4.394-8.69"/></g><g><path fill="#f5d1c3" d="M46 79.082c.206-5.62-4.793-8.158-9.445-6.954 1.871-4.598 3.667-12.764-2.42-13.128-2.444-.132-4.321 1.612-5.54 3.571a26.443 26.443 0 0 0-1.077 1.856c-.957-2.942-3.065-5.182-6.682-3.859-4.117 1.507-3.99 7.264-1.48 10.432-4.356.488-7.876 4.436-5.683 9.34 2.03 4.531 6.95 7.03 10.908 4.452.11 4.9 2.724 11.208 8.552 8.622 4.273-1.866 4.97-6.583 3.65-10.535 3.872 1.863 9.001 1.63 9.217-3.797"/></g><g><path fill="#f5d1c3" d="M115 21.851c.372-3.552-2.63-7.54-6.16-8.46.434-.293.843-.614 1.16-.985 3-2.517 5.868-6.08 3.22-8.951-2.452-2.665-6.069.054-8.22 2.737-.83-3.462-2.528-6.877-6.902-6.073-3.591.656-4.4 4.306-4.098 7.505v.267C89.92 6 83.245 5 83 10.834c-.215 5.481 4.6 8.82 9.445 8.933-3.013 3.233-4.528 8.547.022 11.428 4.633 2.932 9.057-2.77 10.005-7.133 4.27 2.456 11.722 4.493 12.528-2.21"/></g></g></g></svg>