<svg xmlns="http://www.w3.org/2000/svg" width="190" height="109" viewBox="0 0 190 109"><g><g><path fill="#ffb7a4" d="M81.617 48.12c-.171-6.91-2.14-13.414-4.617-19.833C72.715 17 66.779 7.389 56.832.174c-.571-.416-1.129-.022-1.293.508-.365.163-.633.515-.539 1.012 1.79 6.995 3.609 14.167 3.076 21.435-.357 4.871-1.887 9.36.318 14.014 5.043 10.66 13.674 20.44 22.083 28.593.523.483 1.151.264 1.444-.21.404-.003.747-.252.897-.646.672-1.784-.718-4.242-.94-6.075-.429-3.552-.171-7.119-.26-10.685"/></g><g><path fill="#ffb7a4" d="M79.462 66.28C74 61.325 67.892 59.264 61.321 56.224c-3.2-1.48-6.66-1.85-10.007-2.862-3.617-1.09-7.124-2.362-10.805-3.222-7.696-1.844-15.82-4.505-23.734-5.084-4.41-.321-13.453.65-15.853 5.07-.658.014-1.267.874-.694 1.607C8.826 62.072 16.366 74.833 31 75.872c7.33.521 15-.604 22.13-2.33C61.583 71.488 70 66.376 78.835 68c1.164.223 1.63-1.406.626-1.72"/></g><g><path fill="#ffb7a4" d="M81.915 66.058c-.37-.123-.808-.058-1.096.33-1.257 1.724-6.631 3.503-8.7 4.174-2.929.958-6.036 1.438-9.036 2.189-5.176 1.249-10.71 2-15.34 4.751C43.324 80.129 39.903 84 37 88.192 35.733 90 30.803 95.42 32.27 98c1.477 2.513 6.851-.319 8.514-1.227 3.093-1.697 5.848-3.444 9.216-4.653 2.778-1.01 5.65-1.796 8.345-3.061 9.934-4.667 20.587-11.299 24.591-21.894.278-.735-.405-1.165-1.021-1.107"/></g><g><path fill="#ffb7a4" d="M189.609 107.243c-8.264-6.186-18.883-6.636-27.745-11.547C156 92.472 151.209 87.363 146.28 83c-4.865-4.385-9.707-8.753-14.785-12.85-7.273-5.867-15.868-12.885-25.71-13.15-4.861-.125-9.194 1.937-13.563 3.804C89.415 62 86.6 63.185 83.799 64.4c-1.575.688-2.937 1.063-3.7 2.654-.509 1.06 1.073 2.016 1.587.946.965-2 5.655-3.121 7.618-4 2.277-.932 4.547-1.935 6.839-2.877 5.751-2.363 11-2.955 16.915-.712 10.427 3.95 19.229 12.589 27.41 19.83 7.167 6.364 14.133 14.286 23.006 18.293 8.328 3.767 17.714 4.695 25.184 10.286.951.712 1.895-.872.951-1.577"/></g></g></svg>