<svg xmlns="http://www.w3.org/2000/svg" width="190" height="109" viewBox="0 0 190 109"><g fill="#FFB7A4" fill-rule="evenodd" transform="matrix(1 0 0 -1 0 109)"><path d="M81.6173507 48.1197352C81.4458039 41.2104215 79.4765893 34.7060754 77.0284732 28.2869855 72.7147854 16.9763147 66.7785506 7.38853187 56.8324088.173716418 56.260586-.241908106 55.7030588.15240234 55.5386598.681701947 55.1741228.84510988 54.9060809 1.19679217 55.0311671 1.69412066 56.7895221 8.68869064 58.6086331 15.8608779 58.0761232 23.1289786 57.718734 28.0027978 56.1891082 32.4894112 58.3941996 37.142985 63.4369614 47.8035764 72.0679109 57.5831859 80.4772791 65.7358208 80.977624 66.2189399 81.6280724 65.973828 81.9211315 65.5262324 82.3249814 65.52268 82.668075 65.2740158 82.8181785 64.8797053 83.4900702 63.0964275 82.0998261 60.6382038 81.8782448 58.8051931 81.4493778 55.2528467 81.706698 51.686291 81.6173507 48.1197352M79.4623168 66.2797958C73.9764204 61.3249191 67.892451 59.2636618 61.3207672 56.2235752 58.1203643 54.7446142 54.6600844 54.3730878 51.3137232 53.3621072 47.6968051 52.2725344 44.1902458 51.022205 40.5092485 50.1398297 32.8126177 48.296487 24.6887919 45.6350716 16.7750037 45.0563478 12.3642149 44.7348345 3.32191972 45.706519.92250754 50.1255403.263915177 50.1398297-.344837764 51.0472116.22831559 51.7331066 8.8256159 62.0715443 16.3656085 74.8320487 30.9970388 75.8716082 38.3305538 76.3931742 46.0129447 75.2678778 53.1293021 73.5424232 61.5842041 71.4883107 69.9501071 66.3762498 78.8357641 68.0159674 79.9535911 68.2231649 80.4662251 66.5941643 79.4623168 66.2797958"/><path d="M81.914804,66.0583895 C81.5446378,65.9346562 81.1068451,65.99122 80.8185426,66.3871664 C79.5621131,68.1123617 74.1875847,69.8905855 72.119637,70.5622804 C69.1903411,71.5203294 66.0830806,72.0435444 63.0825988,72.7505916 C57.9073907,73.9631776 52.3726942,74.7515353 47.7420575,77.501949 C43.3249781,80.1286295 39.9045001,84.0279951 37.0036785,88.1925033 C35.7330118,90.0166852 30.8033947,95.4185261 32.2698223,97.9568257 C33.7469278,100.512801 39.1214563,97.6810773 40.7836448,96.7725216 C43.8766682,95.0756082 46.6315589,93.3292015 49.9844104,92.1201508 C52.7784533,91.1090732 55.6508006,90.3242508 58.3451834,89.0586362 C68.2791627,84.3921244 78.9321187,77.7600213 82.9363204,67.1649184 C83.213945,66.4295893 82.5305613,65.9700086 81.914804,66.0583895"/><path d="M189.609028,107.243352 C181.345323,101.057125 170.726159,100.607153 161.86379,95.6964363 C156.041067,92.4722284 151.208991,87.3630991 146.280701,82.9590438 C141.416554,78.615221 136.573788,74.2465965 131.495832,70.1507896 C124.222774,64.28344 115.627665,57.2645876 105.785339,57.0059424 C100.924756,56.8748482 96.5915665,58.936924 92.2227427,60.80413 C89.4147222,62.0016929 86.5995747,63.1850835 83.7986811,64.4003618 C82.2236239,65.0877204 80.8623754,65.4632875 80.0997911,67.0541329 C79.5902138,68.1135155 81.172398,69.0701486 81.6855388,68.0001367 C82.6512413,65.9912072 87.3407781,64.8786784 89.3042543,64.0425102 C91.5813167,63.0681617 93.851252,62.0654685 96.1425683,61.1230077 C101.894021,58.7597697 107.143024,58.1680744 113.058397,60.4108475 C123.485134,64.3613879 132.286924,72.981715 140.468669,80.2414972 C147.634823,86.6048788 154.601422,94.527218 163.474482,98.5344478 C171.802329,102.300748 181.18853,103.229036 188.657579,108.820025 C189.609028,109.532185 190.55335,107.948426 189.609028,107.243352"/></g></svg>