<svg xmlns="http://www.w3.org/2000/svg" width="42" height="42" viewBox="0 0 42 42"><g><g><g><path fill="none" stroke="#b02c44" stroke-linecap="round" stroke-linejoin="round" stroke-miterlimit="20" stroke-width="2.5" d="M7 33.25v0c0-1.849.72-3.625 2-4.938a7.059 7.059 0 0 1 4.942-2.062H14v0h4v0"/></g><g><path fill="none" stroke="#b02c44" stroke-linecap="round" stroke-linejoin="round" stroke-miterlimit="20" stroke-width="2.5" d="M22.75 28.86a7.468 7.468 0 0 0 1.973 4.704 12.64 12.64 0 0 0 3.35 2.752 3.436 3.436 0 0 0 3.52-.104 13.72 13.72 0 0 0 3.064-2.673 7.71 7.71 0 0 0 2.094-4.68c.008-1.042-.382-2.049-1.09-2.859C35 25.303 34 24.877 33 24.87a3.697 3.697 0 0 0-3.225 1.494l-.024.035v0l-.024-.035c-.727-.965-1.806-1.525-2.989-1.495A3.979 3.979 0 0 0 23.898 26a3.992 3.992 0 0 0-1.147 2.86z"/></g><g><path fill="none" stroke="#b02c44" stroke-linecap="round" stroke-linejoin="round" stroke-miterlimit="20" stroke-width="2.5" d="M21 20.125a7.437 7.437 0 0 0 7.435-7.438 7.437 7.437 0 1 0-14.875 0A7.438 7.438 0 0 0 21 20.125z"/></g><g/></g></g></svg>