<svg xmlns="http://www.w3.org/2000/svg" width="17" height="21" viewBox="0 0 17 21"><g><g><path fill="none" stroke="#e02020" stroke-linecap="round" stroke-linejoin="round" stroke-miterlimit="20" stroke-width="1.5" d="M15.183 4.686L12.237 1.74c-.39-.39-.92-.61-1.473-.61h-7.47c-1.151 0-2.084.933-2.084 2.083v14.584c0 1.15.933 2.083 2.083 2.083H13.71c1.15 0 2.083-.933 2.083-2.083V6.159c0-.552-.22-1.082-.61-1.473z"/></g><g><path fill="none" stroke="#e02020" stroke-linecap="round" stroke-linejoin="round" stroke-miterlimit="20" stroke-width="1.5" d="M9.273 9.91l1.355 2.397a.887.887 0 0 1-.777 1.32H7.155a.885.885 0 0 1-.771-1.32L7.732 9.91a.884.884 0 0 1 1.541 0z"/></g></g></svg>