<svg xmlns="http://www.w3.org/2000/svg" width="20" height="20" viewBox="0 0 20 20"><g><g><path fill="none" stroke="#b02c44" stroke-linecap="round" stroke-linejoin="round" stroke-miterlimit="20" stroke-width="1.5" d="M10 19v0c-5 0-9-4-9-9v0c0-5 4-9 9-9v0c5 0 9 4 9 9v0c0 5-4 9-9 9z"/></g><g><path fill="none" stroke="#b02c44" stroke-linecap="round" stroke-linejoin="round" stroke-miterlimit="20" stroke-width="1.5" d="M10 11.247v0V11c0-.82.505-1.263 1-1.603.505-.333 1-.767 1-1.567a2 2 0 1 0-4 0"/></g><g><path fill="none" stroke="#b02c44" stroke-linecap="round" stroke-linejoin="round" stroke-miterlimit="20" stroke-width="1.5" d="M10 14a.25.25 0 1 0 0 .5.25.25 0 0 0 0-.5"/></g></g></svg>