<svg xmlns="http://www.w3.org/2000/svg" width="34" height="26" viewBox="0 0 34 26"><g><g><g><path fill="none" stroke="#b02c44" stroke-linecap="round" stroke-linejoin="round" stroke-miterlimit="20" stroke-width="2.5" d="M11.595 5.275a3.434 3.434 0 0 1 0 4.95c-1.367 1.367-3.595 1.367-4.95 0a3.5 3.5 0 0 1 0-4.95c1.355-1.367 3.583-1.367 4.95 0"/></g><g><path fill="none" stroke="#b02c44" stroke-linecap="round" stroke-linejoin="round" stroke-miterlimit="20" stroke-width="2.5" d="M27.099 3.781c1.708 1.709 1.708 4.48 0 6.219a4.433 4.433 0 0 1-6.188 0c-1.708-1.74-1.708-4.51 0-6.219a4.375 4.375 0 0 1 6.188 0"/></g><g><path fill="none" stroke="#b02c44" stroke-linecap="round" stroke-linejoin="round" stroke-miterlimit="20" stroke-width="2.5" d="M31.88 23.5v0-1.75c0-2.9-2.35-5.25-5.25-5.25h-5.25a5.25 5.25 0 0 0-5.25 5.25v1.75"/></g><g><path fill="none" stroke="#b02c44" stroke-linecap="round" stroke-linejoin="round" stroke-miterlimit="20" stroke-width="2.5" d="M10.88 16.5v0h-3.5a5.25 5.25 0 0 0-5.25 5.25v1.75"/></g></g></g></svg>