<svg xmlns="http://www.w3.org/2000/svg" width="20" height="16" viewBox="0 0 20 16"><g><g><g><path fill="none" stroke="#b02c44" stroke-linecap="round" stroke-linejoin="round" stroke-miterlimit="20" stroke-width="1.5" d="M12.123 5.88c1.171 1.17 1.171 3.12 0 4.245-1.123 1.17-3.072 1.17-4.245 0-1.17-1.125-1.17-3.072 0-4.245 1.173-1.173 3.122-1.173 4.245 0"/></g><g><path fill="none" stroke="#b02c44" stroke-linecap="round" stroke-linejoin="round" stroke-miterlimit="20" stroke-width="1.5" d="M1 8c0-.659.152-1.311.446-1.912v0C3 3 6.309 1 10 1s7 2 8.554 5.088v0C18.848 6.689 19 7.341 19 8s-.152 1.311-.446 1.912v0C17 13 13.691 15 10 15s-7-2-8.554-5.088v0A4.346 4.346 0 0 1 1 8z"/></g></g></g></svg>