<svg xmlns="http://www.w3.org/2000/svg" width="48" height="48" viewBox="0 0 48 48"><g><g><g><g><path fill="none" stroke="#323232" stroke-linecap="round" stroke-linejoin="round" stroke-miterlimit="20" stroke-width="2.5" d="M28.247 19.76a6.008 6.008 0 0 1 0 8.49 6.008 6.008 0 0 1-8.49 0 6.008 6.008 0 0 1 0-8.49 6 6 0 0 1 8.49 0"/></g><g><path fill="none" stroke="#323232" stroke-linecap="round" stroke-linejoin="round" stroke-miterlimit="20" stroke-width="2.5" d="M6 24c0-1.318.304-2.622.892-3.824v0C9.922 14 16.618 10 24 10s14.078 4 17.108 10.176v0A8.693 8.693 0 0 1 42 24a8.693 8.693 0 0 1-.892 3.824v0C38.078 34 31.382 38 24 38S9.922 34 6.892 27.824v0A8.693 8.693 0 0 1 6 24z"/></g></g><g/></g></g></svg>