<svg xmlns="http://www.w3.org/2000/svg" width="74" height="75" viewBox="0 0 74 75"><g><g><g><path fill="#ffb7a4" d="M19.125 13.67c-.232.105-.426.33-.523.563-.924 2.676-1.05 5.767 1.562 7.711 2.523 1.855 5.936 1.148 7.741-1.2 2.041-2.656 1.095-5.357-1.506-7.31-2.168-1.654-5.502-2.24-7.274.235"/></g><g><path fill="#ffb7a4" d="M21.1 34.221c-.1.29-.1.593-.1.895 0 .806.287 1.562.937 2.068.063.034.063.048.143.079.682.663 1.569.88 2.66.646 1.21-.257 2.587-.793 3.079-1.909.413-1 .09-2.148-.66-2.899-1.763-1.77-5.409-1.414-6.059 1.12"/></g><g><path fill="#ffb7a4" d="M22.458 48c-1.157 0-1.738.399-1.94 1-.258.116-.468.315-.518.668-.119 1.535.466 2.916 1.62 4.025 1.059 1.022 2.733 1.831 4.156.892 3.105-2.053-.326-6.516-3.318-6.585"/></g><g><path fill="#ffb7a4" d="M5.755 47C4 46.932 2.778 47.713 2 48.906c-.342.005-.627.147-.78.51C-.851 54.403-.555 60 4.222 63.217 7.854 65.636 12.838 62 13 58.066c.155-4.303-2-10.84-7.245-11.066"/></g><g><path fill="#ffb7a4" d="M39.867 46.11c-.391-.11-1.166-.17-1.54-.051-.327-.059-.668.043-.835.292-1.297 1.938.18 4.993 1.998 6.086 1.036.623 2.377.823 3.427.111.924-.627 1.335-1.726.924-2.772-.439-1.104-1.64-1.853-2.453-2.675-.388-.431-.9-.858-1.521-.991"/></g><g><path fill="#ffb7a4" d="M43 24.27c-.333.318-.641.807-.883 1.372-.117.07-.117.144-.216.249-1.346 2.367-1.452 5.711 1.558 6.762 2.482.867 4.836.08 6.331-2.04 1.445-2.05 1.87-4.82-.27-6.613-1.812-1.448-4.81-1.31-6.52.271"/></g><g><path fill="#ffb7a4" d="M49.091 1.13C49 1.17 49 1.218 49 1.26c-.205 0-.368.023-.535.106-1.566.78-1.988 2.635-.718 3.863C49 6.383 51 6.133 52.317 5.194c1.296-.949 2.3-2.98 1.236-4.368-1.155-1.512-3.306-.666-4.462.305"/></g><g><path fill="#ffb7a4" d="M25.243 65.11c-.572.204-.945.572-1.243 1.013-.546-.06-1.205.434-.94 1.163.478 1.313.649 2.584.66 3.975.006.924.03 1.919.585 2.739 1.067 1.48 3.26 1.204 4.407 0 1.288-1.415 1.622-4.133.97-5.856-.562-1.492-2.682-3.66-4.439-3.033"/></g><g><path fill="#ffb7a4" d="M49.86 66.477c-.31.039-.602.197-.712.523-.628 2 .852 5.213 3.065 5C53.298 71.881 54 70.824 54 69.706c0-1.142-.779-2.419-1.594-3.148-.737-.663-1.8-.79-2.546-.08"/></g><g><path fill="#ffb7a4" d="M69.632 24.373c-.345-.091-.72-.014-.976.282-2.24 2.575 1.756 7.039 4.505 4.678 2.421-2.084-.907-6.666-3.529-4.96"/></g><g><path fill="#ffb7a4" d="M61.84 43.639a.84.84 0 0 0-.42.283c-1.324 1.658-2.892 3.216-2.286 5.503C59.544 51 60.641 53 62.478 53c1.758 0 3.86-1.402 4.345-3.11.284-1.006.177-2.08.05-3.102-.1-.858-.143-1.974-.663-2.714-.854-1.21-3.21-1.457-4.37-.435"/></g></g></g></svg>