<svg xmlns="http://www.w3.org/2000/svg" width="69" height="51" viewBox="0 0 69 51"><g><g><path fill="#b02c44" d="M36.845 4.444c.155-.281.155-.631-.156-.92-7.957-7.778-21.229-1.281-27.207 6-4.098 4.99-7.936 11.551-8.907 17.995C-.27 33.126-.465 40.342 2 45.624 3.055 48 6 53 9 50.17c1.88-1.683 2.372-5.68 3-7.945 1.173-3.873 2.207-7.784 3.623-11.57 2.789-7.46 6.897-13.354 13.622-17.788 2.976-1.963 8.755-4.202 7.6-8.423"/></g><g><path fill="#b02c44" d="M55.103 15.854C53.63 15 51.643 15 50 15c-2.552 0-5.116.415-7.537 1.254-4.817 1.668-9.091 4.907-11.863 9.16-2.6 4.042-4.6 9.24-5.324 13.974-.449 2.948-.81 8.849 2.818 10.329 2.639 1.075 4.463-1.12 5.77-3.087 3.462-5.205 6.003-11.324 10.08-16.095.33-.386.73-.709 1.128-1.022 2.765-2.174 15.179-7.936 11.12-12.77-.31-.37-.68-.662-1.089-.89"/></g><g><path fill="#b02c44" d="M65.17 27c-.329 0-.68 0-1.063.065a17.98 17.98 0 0 0-4.992 1.556c-1.47.707-3.004 2.5-4.115 3.703-1.348 1.47-2.503 3.129-3.282 4.973C51 39 48 47.835 52.129 48c2.084.081 5.056-3.456 6.342-4.746C61.479 40.234 63.694 36.732 67 34c1.827-1.405 2.882-3.595 1-5.458-.9-.93-1.736-1.459-2.83-1.542"/></g></g></svg>