<svg xmlns="http://www.w3.org/2000/svg" width="80" height="158" viewBox="0 0 80 158"><g><g transform="rotate(180 40 79)"><path fill="#ffb7a2" d="M67.272 76.701c-3.637-5.17-7.923-9.622-12.17-14.275-6.407-7.012-8.467-14.185-8.288-23.63.24-12.682 1.274-28.25-11.132-35.961-12.168-7.567-24.477 1.488-33.178 9.922-.89.864-1.295 1.832-1.372 2.789a6.333 6.333 0 0 0-.645 1.146c-1.726 4.174 1.626 9.754 2.427 13.818 1.6 8.122 1.719 16.49 1.563 24.708C4.18 71 3.12 86.674 4.735 102.405 7 124.311 14.09 159.241 42.37 158c22.14-1 37.557-23.178 37.63-44.101 0-13.372-5.128-26.386-12.727-37.198"/></g></g></svg>