<svg xmlns="http://www.w3.org/2000/svg" width="79" height="78" viewBox="0 0 79 78"><g><g><path fill="#ffb7a2" d="M79 38.926c.194 10.243-2.448 21.158-9.944 28.142C64.33 71.5 58.099 74 51.849 75.654c-11.943 3.24-25.411 3.78-35.996-2.654C6 67 .172 55.54 0 44c-.089-6 1.306-12 3.799-17.479C7.334 18.792 11 12 18.811 8.176 28.745 3.37 41.208-1.62 52.407.503 60.685 2 67.902 7.673 72.385 14.825 76.87 22 78.803 30.489 79 38.925zM47.7 14.62c-10.956-3.129-19.234-.62-25.82 8.81-4.668 6.686-5.599 15.198-5.822 23.132C16 50 16.058 53.769 18 56.656c2.262 3.344 6.578 4.787 10.614 4.862C35 61.629 41.078 59 46.567 55.762 52 52.615 57.206 48.648 60 43.06c5.577-11.007-.487-25.06-12.3-28.44z"/></g></g></svg>