<svg xmlns="http://www.w3.org/2000/svg" width="175" height="197" viewBox="0 0 175 197"><g><g><path fill="#f5d1c3" d="M169.351 72.854c-.732-2.281-1.483-4.547-2.223-6.79-2.128-6.45-4.19-12.979-4.923-19.73-.544-5-.361-10.123-1.745-14.959-3.332-11.63-12.77-14.55-22.77-18.287-1.033-.387-2.041-.385-2.988-.157-1.856-.182-3.702-.354-5.495-.554-4.898-.546-9.975-1.708-14.583-3.479-3.447-1.325-6.707-3.65-10.418-4.265-2.62-.434-5.38-1.633-7.994-1.866C88.104.705 79.756.099 71.379 0 52.517-.195 34.91 3.402 18.31 12.501c-.754.414-1.158 1.008-1.31 1.644C6.884 20.2-8.375 36.349 5.658 44.115c9.21 5.095 20.925-1.581 30.395-2.115 14.312-.791 28.154 3 41.146 8.738C84.73 54 93.36 57 98.907 63.42c2.946 3.388 3.922 6.914 4.093 11.302.137 6.222 1.463 12.711.17 18.938-1.363 6.56-2.386 13.534-4.37 19.962-2.874 11.115-6.667 22.128-7.29 33.59a61.874 61.874 0 0 0 3.165 23.09c2.325 6.873 5.945 13.421 11.229 18.405 5.284 4.985 12.334 8.292 19.61 8.292 10.818 0 16.486-7.085 21.11-15.79 5.785-11 10.872-21.592 13.464-33.86.601-2.845.79-5.805 1.981-8.446 1.169-2.586 2.6-5.164 3.84-7.742 2.81-5.83 5.791-11.632 7.536-17.89 3.704-13.272.168-27.118-4.094-40.418"/></g></g></svg>