<svg xmlns="http://www.w3.org/2000/svg" width="341" height="89" viewBox="0 0 341 89"><g><g><path fill="#f5d1c3" d="M336.463 5.53C320.587 3.561 304.354 3 288.138 2.76c-.707-.545-1.597-.888-2.702-.867-2.83.053-5.616.298-8.36.691-8.2-.116-16.378-.238-24.477-.521-26.546-.927-53.091-1.742-79.654-1.981C117.673-.416 62.383 1.307 7.351 6.613 3.125 7 1.916 11.88 3.757 14.393.905 30.23-.476 46.262.147 62.362.485 71-.797 88.236 11.763 89c5.075.28 9.785-2.742 13.616-5.66 7.393-5.631 14.418-11.71 21.897-17.25 13.16-9.748 26.942-20 41.825-27.011 15.79-7.44 35.244-9.76 52.513-10.815 17.08-1.043 33.792.978 49.162 8.818C215.235 49.557 236.102 69.11 265.577 65c16.002-2.294 33.94-8.773 47.922-16.948C327.313 40 334.265 26.637 340.47 12.485c1.53-3.43-.31-6.485-4.007-6.955"/></g></g></svg>