<svg xmlns="http://www.w3.org/2000/svg" width="48" height="234" viewBox="0 0 48 234"><g><g transform="rotate(180 24 117)"><path fill="#ffb7a4" d="M.11 89.167C.52 65.332 2.452 41 9.24 18.067 10.894 12.46 12.908 1 20.311.057c1.978-.242 3.688.309 4.96 1.335.252.084.503.198.728.346C40.164 10 49.13 25.798 47.885 42.4c-.796 10.6-6.642 19.685-9.452 29.766-3.722 13.368-2.65 27.612-.548 41.153 3.652 23.527 8.294 45.681 3.174 69.423-2.34 10.847-6.465 20.988-11.267 30.937-3.792 7.884-7.516 16.117-15.864 19.89-1.684.76-4.115.631-5.032-1.33-9.374-20.111-6.896-44.68-7.534-66.367C.644 140.33-.329 114.72.11 89.167"/></g></g></svg>