<svg xmlns="http://www.w3.org/2000/svg" width="82" height="87" viewBox="0 0 82 87"><g><g><path fill="#f5d1c3" d="M80.595 63.254c-4.138.359-10.048 7.501-11.942 9.24-1.028.942-3.753 4.828-5.44 4.36-1.544-.428-.874-3.293-.831-4.364.09-2.38.21-4.753.439-7.124.45-4.675 1.179-9.366 2.304-13.89.456-1.938 4.875-17.83-.318-16.526-.884.223-1.523.974-2.093 1.684C59.425 40.72 56.208 44.864 53 49c-3.577 4.604-7.23 9.167-10.675 13.832-.603.815-.956 1.725-2.008 2.008-2.868.768-2.083-6.603-2.044-8.22.147-5.679 1.363-11.228 1.513-16.898.017-.8-.236-1.419-1.088-1.54-2.283-.326-4.223 3.87-5.037 5.406-1.17 2.2-2.286 4.541-3.02 6.927-.721 2.347-1.956 4.64-2.961 6.889a518.707 518.707 0 0 1-3.243 7.093c-.381.816-.78 1.657-1.437 2.237-.72.58-1.78.823-2.53.32-.934-.63-.923-1.984-.802-3.105A196.179 196.179 0 0 1 29.663 20C31 16.262 36.483-2.196 26.756.217c-2.148.533-4.002 1.915-5.572 3.426C17.332 7.35 15.774 12 13.473 16.72 10.915 21.926 8.839 27.36 7.13 32.9 3.778 43.772 1.82 55.152.165 66.302 0 67.707-.378 70.237 1.49 68.372 2.868 67 3 64.064 3.507 62.266 6 52.896 8.87 43.618 12.167 34.494c.885-2.494 1.833-4.909 2.75-7.346a61.37 61.37 0 0 1 2.02-4.666c.47-.957 1.38-2.238 2.546-2.323.246 2.298.246 4.376-.14 6.705-.47 2.855-1.526 5.515-2.214 8.291-1.129 4.389-1.734 8.677-2.397 13.165-.614 4.125-1.388 8.23-1.787 12.384-.257 2.656-.19 5.296-.225 7.99-.025 1.816-.278 3.736.42 5.467.79 1.95 2.86 1.964 4.641 1.375 3.735-1.203 6.492-4.204 8.743-7.284 1.138-1.557 2.154-3.197 3.214-4.809.82-1.248 1.262-3.55 2.985-3.76-.089.01-.307 10.317-.135 10.974.606 2.53 2.222 4.076 4.943 3.76 2.419-.28 5.469-3.2 7.341-4.766 2.729-2.33 4.526-5.097 6.57-7.988A69.458 69.458 0 0 1 56 55.88c.522-.59 3.118-4.617 4-3.097.213.291.217.651.21.992-.032 1.745-.364 3.41-.546 5.135-.275 2.6-.524 5.202-.728 7.808-.346 4.393-.695 8.874-.363 13.282.092 1.223.11 3.181 1.059 4.126.902.874 2.265 1.014 3.368.436 4.18-2.207 6.794-6.277 9.922-9.66C74.77 72.907 75.53 74.147 76 76.5c.275 1.71.46 3.439.632 5.168.117 1.208-.122 3.88.681 4.835C79.378 89 80 81.515 80.084 80.78c.468-3.7.81-7.418 1.374-11.105.182-1.21 1.542-6.675-.863-6.421"/></g></g></svg>