<svg xmlns="http://www.w3.org/2000/svg" width="97" height="85" viewBox="0 0 97 85"><g><g><path fill="#ffb7a2" d="M97 50.31c0-.476-.342-.805-1-.886-.835-.098-2 .446-2.694.764-1.662.739-3.111 1.882-4.43 3.119-3.504 3.288-6.735 6.914-10.071 10.372L68.717 74.136c-2.256 2.339-4.199 4.987-6.717 7.04-.76.598-3 2.52-4.075 2.203-1.23-.379.173-1.98.504-2.557.571-1.054 1.233-2.092 1.882-3.118a125.632 125.632 0 0 1 4.112-6.058c2.876-4.01 5.909-7.902 8.794-11.905l18.466-25.624c.745-1.033 3.79-4.547.998-5.371-.681-.213-1.519.254-2.095.637-1.963 1.357-3.586 3.773-5.2 5.527L64.116 58c-3.892 4.232-7.784 8.457-11.677 12.682l-6.256 6.794c-1.019 1.105-1.977 2.306-3.082 3.33-1.101.99-1.17.462-.7-.633.707-1.647 1.79-3.09 2.71-4.619C46.495 73.251 48 71 49.5 68.791c3.036-4.374 6.316-8.57 9.683-12.69 3.49-4.27 7.061-8.475 10.535-12.757 1.838-2.263 4.595-4.525 5.02-7.588.669-4.82-4.105-1.829-5.826-.45-2.189 1.754-4.142 3.774-6.078 5.797-4.486 4.69-8.947 9.404-13.258 14.257-3.96 4.458-7.791 9.033-11.395 13.788C36 72 34.06 75.158 31.719 78a54.76 54.76 0 0 1-1.858 2c-.423.415-1.327 1.587-1.914 1.714-1.09.232.053-1.503.36-1.987.447-.827.933-1.632 1.443-2.423 1.04-1.603 2.187-3.135 3.38-4.628 2.357-2.95 4.87-5.738 7.26-8.676a23056 23056 0 0 1 15.245-19.142L70.498 26.21c2.271-2.852 4.724-5.63 6.833-8.604.812-1.145 2.669-4.517.6-5.435-1.385-.619-3.037 1.05-4.097 1.716a49.666 49.666 0 0 0-4.687 3.326c-8.857 6.984-15.544 16.204-22.945 24.618-.709.808-1.43 1.604-2.202 2.392-4.253 4.643-8.85 8.988-13.342 13.436-2.243 2.221-4.46 4.47-6.6 6.792A123.728 123.728 0 0 0 20.92 68c-.128.142-2.544 3.737-2.795 3.42-.488-.61.749-2.023 1.122-2.576.55-.844 1.194-1.565 1.753-2.356 1.413-1.87 2.921-3.64 4.392-5.488 4.007-4.863 8.014-9.771 12.021-14.68 7.885-9.658 15.77-19.32 23.655-28.975 1.721-2.109 6.676-6.214 5.059-9.495-1.643-3.334-4.966-.13-6.635 1.33C51 16.602 43.224 25.206 35.658 33.563c-4.076 4.503-8.019 9.131-11.658 13.96-3.39 4.374-6.21 9.4-10 13.477 8.144-18.593 23.208-32.789 35.742-48.386a180.607 180.607 0 0 0 4.052-5.222c1.1-1.474 3.482-3.801 3.855-5.625C58.214-1 55.143.085 53.934 1c-9.042 6.588-17.386 14.528-25.202 22.54-6.974 7.15-13.484 14.732-19.567 22.65a263.977 263.977 0 0 1 12.96-21.35A249.418 249.418 0 0 1 32 11.204C33.654 9 35.639 7.1 37 4.732c.542-.837 1.665-2.596 1.37-3.617-.466-1.615-2.167.386-2.734.968C25.938 12.056 16.24 22 6.542 32c-.84.86-2.82 3.689-4.014 3.85-1.87.254.735-3.135 1.087-3.727 1.75-2.934 3.58-5.817 5.488-8.65A185.872 185.872 0 0 1 22.467 6c.533-.63-.355-1.515-.877-.906A198.205 198.205 0 0 0 10 20a212.332 212.332 0 0 0-5.35 8.087c-.856 1.363-1.65 2.74-2.518 4.122-.67 1.129-2.423 2.682-2.132 4.163.665 2.778 4.45-.458 5.301-1.316C9 31.32 12.645 27.504 16.316 23.73l20.37-20.942c-.95 2.147-2.77 3.947-4.19 5.752a263.103 263.103 0 0 0-12.702 17.555 260.993 260.993 0 0 0-8.148 13.14 268.992 268.992 0 0 0-3.831 6.831C7.209 47.183 6.61 48.307 6 49.434c-.361.723-1.457 1.888-1 2.78.726 1.486 2.078-1.214 2.51-1.82a255.609 255.609 0 0 1 18.106-21.766A258.478 258.478 0 0 1 47.185 8a463.896 463.896 0 0 1 5.91-4.797c.488-.389 1.998-1.584 2.675-1.287C56.773 2.359 54 5 53.605 5.568c-2.899 3.971-6.006 7.787-9.18 11.537-5.994 7.082-12.249 13.946-17.948 21.275-5.997 7.71-11.263 15.928-14.817 25.07-.244.627.618.972 1.037.605C16 61.201 18.25 57.613 20.7 54.081c3.188-4.595 6.637-9.002 10.25-13.268C37.527 33 44.627 25.745 51.745 18.479c1.668-1.704 3.328-3.415 5.032-5.081.909-.884 1.83-1.76 2.772-2.61C60.435 10 63.384 7.54 64.6 8.71c.887.853-.941 2.931-1.409 3.69-.886 1.437-1.936 2.76-3 4.066l-5.817 7.125-20.94 25.648c-3.832 4.695-7.69 9.369-11.495 14.083-1.712 2.121-3.377 4.304-4.693 6.678-.653 1.212-1.246 2.45-1.652 3.738-.195.58-.645 1.591-.398 2.202.55 1.361 1.383-.309 1.804-.877A75.688 75.688 0 0 1 22.55 68c3.943-4.59 8.255-8.798 12.559-13 4.091-4 8.189-8 11.97-12.289 7.513-8.532 14.28-17.927 23.358-24.908 1.563-1.203 3.052-2.53 4.777-3.506.453-.297 1.786-1.088 2.282-.556.582.59-1.16 3.103-1.569 3.652-.557.748-1.152 1.47-1.733 2.198l-3.43 4.304C68.35 26.922 65.937 30 63.523 33c-4.7 5.879-9.4 11.775-14.101 17.673l-13.72 17.215c-3.93 4.932-8.516 9.773-10.51 15.882-.192.534.459.954.912.702 3.83-2.118 6.467-5.472 8.978-8.968C38.542 70.674 42.124 66 46 61.429c7-8.357 14.433-16.964 22.499-24.36.59-.541 2.814-2.698 3.81-2.526 2.968.513-1.119 4.993-1.465 5.457a449.922 449.922 0 0 1-4.706 5.764C62.74 49.877 59.293 54 56 58.12c-3.322 4.1-6.488 8.3-9.384 12.683a106.056 106.056 0 0 0-4.157 6.792 93.142 93.142 0 0 0-1.881 3.516c-.324.637-2.124 3.274-.578 3.645 1 .245 3.467-2.433 4.151-3.077 2.718-2.565 4.971-5.56 7.497-8.302 3.892-4.228 7.785-8.453 11.677-12.68 4.675-5.08 9.357-10.16 14.036-15.24l7.085-7.692c1.251-1.359 2.355-2.85 3.657-4.16.606-.604 2.249-3.23 3.394-2.604.903.524-.497 2-.885 2.489l-5.069 7.034L74.68 55.595C71.22 60.398 67.54 65 64.077 69.843c-1.736 2.406-3.419 4.853-4.986 7.375a82.62 82.62 0 0 0-2.19 3.726c-.488.882-1.976 2.63-1.233 3.607.862 1.131 3.513-.17 4.484-.697 1.531-.854 2.848-2.03 4.052-3.255C67.736 77 71.163 73.39 74.638 69.79l10.088-10.46c1.668-1.728 3.2-3.592 4.978-5.212.907-.825 1.874-1.599 2.937-2.212.471-.274 2.133-1.285 2.637-.791.722.692-2.278 4.04-2.7 4.625-2.723 3.41-5.952 6.375-8.698 9.769a145.46 145.46 0 0 0-6.743 9.028A117.406 117.406 0 0 0 74 79.319c-.556.832-1.528 2.064-.737 3.025.63.77 1.737.319 2.486.024 2.066-.772 3.468-2.675 5.064-4.1C85 74.547 89.14 70.83 93.303 67.11c.598-.532-.303-1.412-.877-.88l-8.327 7.437c-1.58 1.412-7.099 7.677-9.87 7.597 3.612-5.807 7.578-11.376 11.964-16.622 2.235-2.643 4.757-5.09 6.993-7.76.679-.813 4.086-4.763 3.814-6.572"/></g></g></svg>