<svg xmlns="http://www.w3.org/2000/svg" width="145" height="127" viewBox="0 0 145 127"><g><g><path fill="#ffb7a2" d="M145 75.17c-.111-.712-.582-1.17-1.607-1.325-1.205-.147-2.908.666-3.983 1.155-2.482 1.09-4.648 2.798-6.62 4.646-5.234 4.913-10.062 10.354-15.046 15.498-5.024 5.207-10.048 10.417-15.072 15.623-3.37 3.495-6.274 7.452-10.07 10.52-1.103.892-4.486 3.764-6.055 3.292-1.839-.579.259-2.958.753-3.821a123.571 123.571 0 0 1 2.812-4.659C92.062 113 94.131 110 96.256 107c4.296-5.944 8.828-11.76 13.138-17.74A27733.725 27733.725 0 0 1 137 51c1.099-1.569 5.649-6.818 1.476-8.05-1.09-.319-2.269.354-3.13.952-2.932 2.027-5.346 5.637-7.77 8.258L95.798 86.665C90 93 84.166 99.295 78.35 105.607 75.234 109 72.12 112.375 69 115.76c-1.52 1.65-3 3.445-4.602 4.974-1.6 1.479-1.748.69-1.045-.946 1.056-2.46 2.647-4.615 4.047-6.9a163.764 163.764 0 0 1 6.6-10.105c4.497-6.535 9.396-12.782 14.428-18.96C93.643 77.44 99 71.16 104.17 64.76c2.745-3.38 6.831-6.761 7.5-11.337.999-7.201-6.133-2.732-8.669-.673-3.306 2.62-6.224 5.64-9.116 8.662-6.704 7.007-13.37 14.05-19.81 21.302-5.917 6.66-11.641 13.496-17.074 20.6-3.239 4.333-6.111 8.981-9.609 13.157a46.36 46.36 0 0 1-2.775 3.047c-.616.63-1.983 2.381-2.86 2.57-1.628.348.143-2.244.537-2.968.707-1.235 1.394-2.438 2.158-3.62 1.549-2.395 3.267-4.684 5.049-6.914 3.5-4.408 7.332-8.587 10.847-12.985C67.94 86.077 75.533 76.55 83.125 67c7.402-9.265 14.805-18.554 22.207-27.839 3.394-4.261 7.058-8.411 10.21-12.855 1.214-1.712 3.975-6.75.897-8.121-2.07-.924-4.539 1.568-6.122 2.564a81.621 81.621 0 0 0-7.003 4.97C90.08 36.153 80.09 49.929 69 62.5c-1 1.207-2.105 2.396-3.195 3.574C59.387 73 52.517 79.503 45.807 86.149c-3.351 3.32-6.665 6.678-9.862 10.148a147.655 147.655 0 0 0-4.689 5.289c-.19.226-3.8 5.597-4.174 5.124-.73-.913 1.117-3.022 1.675-3.85.821-1.22 1.784-2.337 2.66-3.52 2.07-2.792 4.324-5.438 6.522-8.131l17.96-22 35.344-43.293c2.572-3.151 9.975-9.285 7.559-14.188-2.455-4.98-7.42-.193-9.914 1.988-12.687 11.09-24.306 23.945-35.61 36.431C47.187 56.876 41.295 63.79 35.785 71 30.793 77.54 26.579 85 21 91.13c12.086-27.77 34.593-48.979 53.32-72.283A221.56 221.56 0 0 0 80.375 11c1.625-2.158 5.203-5.635 5.76-8.36C87-1.48 82.39.126 80.584 1.448c-13.51 9.89-25.976 21.753-37.655 33.724C32.509 45.854 22.782 57.184 13.694 69c5.955-10.914 12.399-21.567 19.362-31.887a389.472 389.472 0 0 1 14.725-20.371c2.502-3.238 5.468-6.134 7.568-9.672.744-1.25 2.421-3.878 1.98-5.404-.696-2.413-3.237.577-4.085 1.447C38.754 18 24.264 32.909 9.774 47.809c-1.254 1.29-4.213 5.514-5.997 5.754C1 53.943 4.875 48.88 5.402 48a263.588 263.588 0 0 1 8.2-12.928A288.746 288.746 0 0 1 33.568 8.925C34.343 8 33 6.7 32.26 7.61a288.743 288.743 0 0 0-17.334 22.338A265.713 265.713 0 0 0 6.948 42c-1.28 2-2.534 4.058-3.763 6.124-1 1.687-3.62 4.007-3.123 6.22.938 4.15 6.587-.684 7.859-1.966 5.542-5.582 10.973-11.283 16.458-16.923C34.523 25 44.668 14.597 54.812 4.165c-1.419 3.21-4.137 5.898-6.26 8.595A400.634 400.634 0 0 0 42.23 21a386.132 386.132 0 0 0-12.655 18c-4.251 6.41-8.309 13-12.174 19.623a408.28 408.28 0 0 0-5.725 10.206A326.68 326.68 0 0 0 9 73.859C8.425 74.942 6.788 76.682 7.45 78c1.105 2.233 3.125-1.834 3.771-2.704C14 71.518 16.898 67.79 19.84 64.12a379.819 379.819 0 0 1 18.434-21.346A378.13 378.13 0 0 1 70.5 12a438.868 438.868 0 0 1 8.83-7.215c.73-.58 2.986-2.367 3.997-1.923 1.498.663-2.588 4.57-3.235 5.457-4.33 5.934-8.974 11.681-13.717 17.239-8.954 10.581-18.3 20.837-26.815 31.787C30.6 68.865 22.732 81.143 17.422 94.8c-.366.939.923 1.454 1.578.906 4.842-4.264 8.266-9.625 11.927-14.903C35.69 73.938 40.843 67.353 46.24 61c9.83-11.626 20.437-22.533 31.073-33.39 2.491-2.547 4.97-5.103 7.518-7.61 1.357-1.303 2.732-2.61 4.168-3.881 1.297-1.193 5.703-4.853 7.52-3.119 1.325 1.289-1.406 4.393-2.105 5.528-1.324 2.145-2.892 4.122-4.483 6.074-2.932 3.548-5.794 7.097-8.69 10.645A16887.802 16887.802 0 0 0 50 73.57c-5.77 7.014-11.535 13.997-17.22 21.04-2.558 3.17-5.047 6.39-7.012 10.013-.976 1.776-1.82 3.627-2.468 5.55-.3.827-.964 2.378-.595 3.29.822 2.035 2.066-.463 2.661-1.31 2.578-3.688 5.381-7.215 8.326-10.614C39.583 94.743 46 88.455 52.457 82.178c6.113-5.97 12.235-11.942 17.885-18.363C81.567 51.068 91.676 37 105.241 26.6c2.337-1.798 4.561-3.782 7.138-5.24.677-.36 2.621-1.625 3.409-.83.87.881-1.732 4.637-2.343 5.47-.833 1.105-1.722 2.182-2.59 3.27l-5.125 6.432-10.82 13.575c-7.022 8.813-14.045 17.621-21.068 26.434l-20.5 25.721c-5.871 7.37-12.723 14.568-15.701 23.73-.26.838.684 1.425 1.359 1.05 5.724-3.212 9.665-8.212 13.416-13.4 5.17-7.215 10.522-14.248 16.248-21.03 10.543-12.487 21.63-25.346 33.68-36.396.884-.81 4.205-4.032 5.656-3.774 4.472.766-1.633 7.459-2.151 8.114-2.299 2.918-4.666 5.787-7.031 8.651-5.077 6.145-10.228 12.236-15.21 18.46-4.9 6.163-9.608 12.4-13.958 18.95a165.444 165.444 0 0 0-6.211 10.147c-.973 1.73-1.912 3.481-2.811 5.254-.484.952-3.173 4.891-.846 5.446C61.246 127 64.945 123 66 122c4-3.795 7.394-8.271 11.168-12.368C83 103.316 88.8 97 94.615 90.686c6.991-7.588 13.981-15.18 20.972-22.77 3.529-3.832 7.057-7.664 10.586-11.492 1.827-2.03 3.518-4.257 5.464-6.216.905-.913 3.363-4.827 5.07-3.867 1.35.759-.776 2.94-1.321 3.659-2.525 3.538-5.05 7-7.575 10.546-5.41 7.505-10.811 15.014-16.23 22.52-5.172 7.176-10.67 14.112-15.843 21.288-2.593 3.595-5.107 7.251-7.448 11.018A141.513 141.513 0 0 0 85 120.94c-.713 1.318-2.935 3.929-1.825 5.39 1.288 1.67 5.248-.255 6.7-1.042 2.287-1.236 4.23-3.033 6.053-4.863 5.277-5.303 10.397-10.771 15.59-16.153 0 0 15.071-15.627 15.073-15.627 2.492-2.582 4.78-5.368 7.409-7.788 1.384-1.232 2.828-2.389 4.417-3.306.703-.408 3.187-1.919 3.94-1.181 1.056 1.035-3.357 6.037-4.034 6.91-4.07 5.096-8.893 9.526-12.997 14.596a217.302 217.302 0 0 0-10.074 13.49 227.964 227.964 0 0 0-4.728 7.147c-.79 1.242-2.242 3.083-1.061 4.487.942 1.181 2.537.508 3.715.068 3.087-1.154 5.181-3.997 7.566-6.127 6.256-5.558 12.441-11.112 18.662-16.67.893-.794-.406-2.108-1.311-1.271l-12.441 11.069c-2.362 2.11-10.654 11.47-14.748 11.351 5.398-8.676 11.323-16.998 17.877-24.836C132.122 92.587 135.89 89 139.23 85c1.014-1.225 6.105-7.126 5.769-9.83"/></g></g></svg>