<svg xmlns="http://www.w3.org/2000/svg" width="97" height="85" viewBox="0 0 97 85"><g><g transform="rotate(180 48.5 42.5)"><path fill="#ffb7a2" d="M-.017 50.31c0-.476.343-.805 1-.886.835-.098 2 .446 2.694.764 1.662.739 3.111 1.882 4.43 3.118 3.504 3.289 6.735 6.915 10.071 10.373l10.088 10.457c2.256 2.339 4.199 4.987 6.717 7.04.761.598 3 2.52 4.075 2.203 1.23-.38-.173-1.98-.504-2.557-.57-1.054-1.233-2.092-1.882-3.118a125.652 125.652 0 0 0-4.112-6.059c-2.875-4.01-5.909-7.901-8.794-11.904L5.3 34.117c-.745-1.033-3.79-4.547-.997-5.371.68-.214 1.518.254 2.094.637 1.963 1.357 3.586 3.773 5.2 5.527L32.867 58c3.892 4.231 7.785 8.457 11.677 12.682l6.256 6.794c1.02 1.105 1.977 2.306 3.082 3.33 1.101.989 1.17.462.7-.633-.707-1.647-1.79-3.09-2.709-4.619-1.386-2.303-2.89-4.554-4.39-6.763-3.037-4.374-6.316-8.57-9.684-12.69-3.49-4.27-7.06-8.475-10.535-12.757-1.837-2.263-4.594-4.525-5.02-7.588-.668-4.82 4.105-1.829 5.826-.45 2.19 1.754 4.142 3.774 6.078 5.797 4.486 4.69 8.947 9.404 13.258 14.257 3.96 4.458 7.791 9.033 11.395 13.788C60.983 72 62.924 75.158 65.265 78c.59.658 1.206 1.343 1.857 2 .423.415 1.327 1.587 1.914 1.714 1.09.232-.053-1.503-.36-1.987a36.71 36.71 0 0 0-1.443-2.423c-1.04-1.604-2.187-3.135-3.38-4.628-2.356-2.95-4.87-5.738-7.26-8.676A23372.78 23372.78 0 0 0 41.35 44.858L26.485 26.21c-2.271-2.852-4.724-5.63-6.833-8.604-.812-1.145-2.669-4.517-.6-5.435 1.385-.619 3.038 1.05 4.097 1.716a49.682 49.682 0 0 1 4.687 3.326c8.857 6.984 15.544 16.204 22.945 24.618.71.808 1.43 1.604 2.202 2.392 4.253 4.642 8.851 8.988 13.342 13.436 2.243 2.221 4.461 4.47 6.6 6.792A123.68 123.68 0 0 1 76.065 68c.127.141 2.543 3.736 2.794 3.42.489-.611-.748-2.023-1.121-2.576-.55-.844-1.194-1.565-1.754-2.356-1.412-1.87-2.921-3.64-4.392-5.488a4182.011 4182.011 0 0 1-12.02-14.68C51.684 36.662 43.8 27 35.914 17.345c-1.721-2.109-6.676-6.214-5.059-9.495 1.643-3.334 4.966-.13 6.635 1.33 8.492 7.422 16.268 16.026 23.834 24.383 4.076 4.503 8.019 9.131 11.658 13.96 3.39 4.374 6.211 9.4 10 13.477C74.84 42.406 59.776 28.21 47.241 12.614a180.5 180.5 0 0 1-4.052-5.222c-1.099-1.474-3.482-3.801-3.855-5.625C38.769-1 41.84.084 43.049 1c9.043 6.588 17.386 14.528 25.202 22.54 6.975 7.15 13.484 14.732 19.567 22.65a263.96 263.96 0 0 0-12.959-21.35 249.37 249.37 0 0 0-9.876-13.635c-1.654-2.205-3.639-4.106-5-6.473-.542-.837-1.665-2.596-1.37-3.617.466-1.615 2.167.386 2.734.968C71.045 12.056 80.743 22 90.441 32c.84.86 2.82 3.689 4.015 3.85 1.869.253-.735-3.135-1.088-3.727a186.703 186.703 0 0 0-5.488-8.65A185.888 185.888 0 0 0 74.516 6c-.533-.63.355-1.515.877-.906A198.181 198.181 0 0 1 86.983 20a212.512 212.512 0 0 1 5.35 8.087c.856 1.363 1.65 2.739 2.518 4.122.67 1.129 2.423 2.682 2.132 4.163-.664 2.778-4.45-.458-5.3-1.316-3.7-3.736-7.345-7.552-11.016-11.326-6.79-6.982-13.58-13.96-20.369-20.942.95 2.147 2.77 3.947 4.19 5.752a262.898 262.898 0 0 1 12.701 17.555c2.845 4.297 5.56 8.68 8.148 13.14a268.563 268.563 0 0 1 3.831 6.831c.607 1.117 1.205 2.241 1.815 3.367.361.724 1.457 1.889 1 2.78-.726 1.486-2.078-1.213-2.51-1.818a255.921 255.921 0 0 0-18.106-21.767A258.479 258.479 0 0 0 49.8 8a464.099 464.099 0 0 0-5.91-4.798c-.49-.388-1.999-1.584-2.675-1.286-1.003.443 1.77 3.084 2.165 3.652 2.898 3.971 6.005 7.787 9.18 11.537 5.993 7.082 12.248 13.946 17.948 21.275 5.996 7.71 11.262 15.928 14.816 25.069.245.628-.618.973-1.037.606-3.303-2.854-5.552-6.442-8.002-9.974-3.187-4.595-6.637-9.002-10.25-13.268C59.457 33 52.357 25.745 45.239 18.479c-1.668-1.704-3.327-3.416-5.032-5.081-.908-.885-1.829-1.76-2.772-2.61C36.548 10 33.6 7.54 32.384 8.71c-.887.853.94 2.931 1.408 3.69.886 1.436 1.936 2.76 3 4.065l5.817 7.126 20.94 25.648c3.832 4.695 7.69 9.369 11.495 14.083 1.712 2.12 3.378 4.304 4.693 6.678.653 1.212 1.246 2.45 1.652 3.738.196.58.645 1.59.398 2.202-.55 1.361-1.383-.309-1.804-.877A75.693 75.693 0 0 0 74.433 68c-3.942-4.59-8.255-8.798-12.559-13-4.091-4-8.188-8-11.97-12.29-7.513-8.531-14.279-17.926-23.357-24.907-1.564-1.203-3.053-2.531-4.778-3.507-.453-.296-1.786-1.088-2.281-.556-.583.59 1.159 3.104 1.568 3.653.557.748 1.152 1.469 1.733 2.198l3.43 4.304C28.633 26.922 31.046 30 33.46 33c4.7 5.879 9.401 11.774 14.101 17.672l13.72 17.215c3.93 4.933 8.517 9.774 10.51 15.883.192.534-.459.954-.912.702-3.829-2.119-6.467-5.472-8.977-8.968-3.46-4.83-7.042-9.504-10.919-14.075-7-8.357-14.433-16.964-22.498-24.36-.591-.541-2.814-2.698-3.81-2.526-2.968.513 1.118 4.992 1.465 5.457a449.922 449.922 0 0 0 4.705 5.764C34.243 49.877 37.69 54 40.983 58.12c3.322 4.1 6.489 8.3 9.385 12.683a106.082 106.082 0 0 1 4.156 6.792 93.143 93.143 0 0 1 1.882 3.516c.323.637 2.123 3.273.577 3.645-1 .245-3.467-2.433-4.15-3.077-2.718-2.565-4.972-5.56-7.498-8.302-3.892-4.228-7.785-8.453-11.677-12.68-4.675-5.08-9.357-10.16-14.036-15.24-2.362-2.565-4.723-5.13-7.085-7.692-1.25-1.359-2.355-2.85-3.657-4.16C8.274 33 6.631 30.373 5.486 31c-.903.523.497 2 .885 2.489l5.07 7.034 10.862 15.072c3.462 4.803 7.141 9.405 10.604 14.248 1.735 2.406 3.418 4.853 4.985 7.375a82.534 82.534 0 0 1 2.19 3.726c.489.882 1.976 2.63 1.233 3.607-.862 1.131-3.512-.17-4.484-.697-1.53-.854-2.848-2.03-4.052-3.255-3.531-3.6-6.958-7.209-10.434-10.811L12.257 59.329c-1.667-1.728-3.2-3.592-4.978-5.213-.907-.824-1.873-1.598-2.937-2.212-.47-.273-2.133-1.284-2.636-.79-.723.692 2.277 4.04 2.699 4.625 2.723 3.41 5.952 6.375 8.699 9.769a145.448 145.448 0 0 1 6.742 9.028 117.438 117.438 0 0 1 3.137 4.783c.556.832 1.528 2.064.738 3.025-.631.77-1.738.319-2.487.024-2.066-.772-3.467-2.675-5.064-4.1-4.187-3.72-8.326-7.437-12.49-11.157-.597-.532.303-1.412.878-.88l8.326 7.437c1.58 1.412 7.1 7.676 9.87 7.597-3.612-5.807-7.578-11.376-11.964-16.623-2.235-2.642-4.756-5.09-6.993-7.76-.678-.812-4.086-4.762-3.814-6.571"/></g></g></svg>