<svg xmlns="http://www.w3.org/2000/svg" width="25" height="15" viewBox="0 0 25 15"><g><g><path fill="#fff" d="M13.677 14.134s.433-.047.655-.281c.203-.215.196-.619.196-.619s-.027-1.889.866-2.167c.88-.275 2.011 1.826 3.21 2.634.907.61 1.595.477 1.595.477l3.206-.044s1.676-.134.881-1.396c-.066-.106-.464-.957-2.383-2.738-2.01-1.8-1.74-1.503.68-4.67 1.474-1.93 2.064-3.107 1.88-3.61-.176-.482-1.26-.354-1.26-.354l-3.609.022s-.267-.036-.466.08c-.193.115-.319.38-.319.38s-.57 1.493-1.332 2.763C15.87 7.288 15.227 7.43 15 7.264c-.647-.388-.494-1.558-.494-2.388 0-2.596.401-3.678-.78-3.958C13.332.824 13 .763 12 .753c-1.247-.013-2.336.005-3 .3-.365.198-.682.638-.488.663.238.031.778.143 1.065.526.37.494.357 1.602.357 1.602s.212 3.056-.497 3.435C9 7.54 8.284 7 6.851 4.58A23.737 23.737 0 0 1 5.563 2s-.106-.299-.298-.437c-.265-.167-.554-.219-.554-.219l-3.429.022S.767 1.38.578 1.6c-.168.194-.013.599-.013.599S3.25 8.365 6.29 11.472c2.788 2.848 5.953 2.662 5.953 2.662z"/></g></g></svg>