<svg xmlns="http://www.w3.org/2000/svg" width="26" height="26" viewBox="0 0 26 26"><g><g clip-path="url(#clip-23FBC9F5-2EEC-41B2-935E-87CAD18A1646+DA1B7A3F-F4F5-48F4-9289-3B58E876ED01)"><path fill="#fff" d="M12.927 23h-.004c-1.838 0-3.641-.526-5.214-1.455l-.374-.22-3.876 1.011 1.034-3.761-.243-.386a10.133 10.133 0 0 1-1.566-5.425c.002-5.62 4.597-10.193 10.247-10.193 2.736.001 5.307 1.063 7.241 2.99C22.106 7.488 23.17 10 23.17 12.772 23.167 18.393 18.572 23 12.927 23m8.717-18.903A12.273 12.273 0 0 0 12.927.5C6.134.5.606 6 .603 12.763c0 2.162.567 4.237 1.645 6.132L.5 25.25 7 23.544C8.833 24.522 10.86 25 12.922 25h.005c6.792 0 12.32-5.465 12.323-12.227.001-3.277-1.25-6.358-3.606-8.676m-3.099 11.235c-.308-.154-1.822-.895-2.104-.997-.282-.103-.441-.154-.693.153-.205.307-.748.997-.975 1.202-.18.204-.359.23-.667.076-.308-.153-1.3-.477-2.476-1.52-.915-.813-1.533-1.817-1.713-2.124-.18-.306-.02-.472.135-.625.139-.137.308-.358.462-.497.154-.219.205-.347.308-.551.102-.205.051-.384-.026-.537-.077-.153-.693-1.662-.95-2.275-.25-.637-.503-.517-.692-.526C9 7.1 8.769 7.1 8.564 7.1c-.205 0-.564.076-.821.383C7.46 7.79 6.665 8.531 6.665 10c0 1.548 1.103 3 1.257 3.21.154.204 2.172 3.3 5.26 4.627a17.73 17.73 0 0 0 1.756.645c.737.234 1.409.2 1.94.122.59-.088 1.821-.741 2.122-1.457.212-.716.212-1.33.135-1.457-.077-.128-.282-.205-.59-.358"/></g></g></svg>